{
.appVersion = "3148";
copyright = "Copyright (c) 2012-2017 by Eduardo Rodriguez Tunni. All rights reserved.";
customParameters = (
{
name = fsType;
value = (
);
},
{
name = "Use Typo Metrics";
value = 1;
},
{
name = "Disable Last Change";
value = 1;
},
{
name = fsType;
value = (
);
},
{
name = licenseURL;
value = "http://scripts.sil.org/OFL";
},
{
name = description;
value = "Unica One is a condensed unicase sans serif style. Good performance for composing headlines and short texts. Readbility and simplicity are some of the virtues of this unique typeface.";
},
{
name = trademark;
value = "Unica Extra-condensed Regular is a trademark of Eduardo Rodriguez Tunni.";
},
{
name = license;
value = "This Font Software is licensed under the SIL Open Font License, Version 1.1. This license is available with a FAQ at: http://scripts.sil.org/OFL";
},
{
name = vendorID;
value = TIPO;
}
);
date = "2017-11-27 12:31:17 +0000";
designer = "Eduardo Rodriguez Tunni";
designerURL = "http://www.tipo.net.ar";
disablesNiceNames = 1;
familyName = Unica;
featurePrefixes = (
{
automatic = 1;
code = "languagesystem DFLT dflt;\012languagesystem latn dflt;\012languagesystem latn CAT;\012languagesystem latn ROM;\012languagesystem latn MOL;\012languagesystem latn KAZ;\012languagesystem latn TAT;\012languagesystem latn TRK;\012languagesystem latn CRT;\012languagesystem latn AZE;\012";
name = Languagesystems;
}
);
features = (
{
automatic = 1;
code = "feature ccmp;\012feature locl;\012feature sinf;\012feature sups;\012feature numr;\012feature dnom;\012feature frac;\012feature ordn;\012feature pnum;\012feature tnum;\012feature case;\012";
name = aalt;
},
{
automatic = 1;

glyphs = (
{
glyphname = A;
layers = (
{
anchors = (
{
name = bottom;
position = "{240, 0}";
},
{
name = ogonek;
position = "{439, 0}";
},
{
name = top;
position = "{240, 650}";
}
);
hints = (
{
horizontal = 1;
place = "{150, 60}";
type = Stem;
},
{
horizontal = 1;
place = "{650, -20}";
target = down;
type = TopGhost;
},
{
horizontal = 1;
place = "{0, 21}";
target = up;
type = BottomGhost;
}
);
layerId = UUID0;
paths = (
{
closed = 1;
nodes = (
"187 650 LINE",
"40 0 LINE",
"110 0 LINE",
"144 150 LINE",
"335 150 LINE",
"369 0 LINE",
"439 0 LINE",
"292 650 LINE"
);
},
{
closed = 1;
nodes = (
"239 572 LINE",
"321 210 LINE",
"157 210 LINE"
);
}
);
width = 479;
}
);
leftKerningGroup = A;
rightKerningGroup = A;
unicode = 0041;
},
{
glyphname = AE;
layers = (
{
anchors = (
{
name = bottom;
position = "{435, 0}";
},
{
name = top;
position = "{435, 650}";
}
);
hints = (
{
place = "{335, 70}";
type = Stem;
},
{
horizontal = 1;
place = "{0, 60}";
type = Stem;
},
{
horizontal = 1;
place = "{260, 60}";
type = Stem;
},
{
horizontal = 1;
place = "{590, 60}";
type = Stem;
}
);
layerId = UUID0;
paths = (
{
closed = 1;
nodes = (
"237 650 LINE",
"0 0 LINE",
"70 0 LINE",
"165 260 LINE",
"335 260 LINE",
"335 0 LINE",
"630 0 LINE",
"630 60 LINE",
"405 60 LINE",
"405 260 LINE",
"580 260 LINE",
"580 320 LINE",
"405 320 LINE",
"405 590 LINE",
"620 590 LINE",
"620 650 LINE"
);
},
{
closed = 1;
nodes = (
"285 590 LINE",
"335 590 LINE",
"335 320 LINE",
"187 320 LINE"
);
}
);
width = 680;
}
);
leftKerningGroup = AE;
unicode = 00C6;
},
{
glyphname = B;
layers = (
{
anchors = (
{
name = bottom;
position = "{253, 0}";
},
{
name = top;
position = "{253, 650}";
}
);
hints = (
{
place = "{100, 70}";
type = Stem;
},
{
place = "{350, 70}";
type = Stem;
},
{
horizontal = 1;
place = "{0, 60}";
type = Stem;
},
{
horizontal = 1;
place = "{315, 50}";
type = Stem;
},
{
horizontal = 1;
place = "{590, 60}";
type = Stem;
}
);
layerId = UUID0;
paths = (
{
closed = 1;
nodes = (
"100 650 LINE",
"100 0 LINE",
"261 0 LINE SMOOTH",
"369 0 OFFCURVE",
"420 53 OFFCURVE",
"420 140 CURVE SMOOTH",
"420 230 LINE SMOOTH",
"420 291 OFFCURVE",
"393 326 OFFCURVE",
"339 341 CURVE",
"387 357 OFFCURVE",
"410 391 OFFCURVE",
"410 450 CURVE SMOOTH",
"410 510 LINE SMOOTH",
"410 596 OFFCURVE",
"357 650 OFFCURVE",
"251 650 CURVE SMOOTH"
);
},
{
closed = 1;
nodes = (
"350 140 LINE SMOOTH",
"350 100 OFFCURVE",
"321 60 OFFCURVE",
"261 60 CURVE SMOOTH",
"170 60 LINE",
"170 315 LINE",
"261 315 LINE SMOOTH",
"320 315 OFFCURVE",
"350 269 OFFCURVE",
"350 230 CURVE SMOOTH"
);
},
{
closed = 1;
nodes = (
"340 450 LINE SMOOTH",
"340 410 OFFCURVE",
"311 365 OFFCURVE",
"251 365 CURVE SMOOTH",
"170 365 LINE",
"170 590 LINE",
"251 590 LINE SMOOTH",
"310 590 OFFCURVE",
"340 549 OFFCURVE",
"340 510 CURVE SMOOTH"
);
}
);
width = 505;
}
);
unicode = 0042;
},
{
glyphname = C;
layers = (
{
anchors = (
{
name = bottom;
position = "{245, 0}";
},
{
name = top;
position = "{245, 650}";
}
);
hints = (
{
place = "{85, 70}";
type = Stem;
},
{
place = "{345, 70}";
type = Stem;
},
{
horizontal = 1;
place = "{-15, 60}";
type = Stem;
},
{
horizontal = 1;
place = "{605, 60}";
type = Stem;
}
);
layerId = UUID0;
paths = (
{
closed = 1;
nodes = (
"345 125 LINE SMOOTH",
"345 75 OFFCURVE",
"315 45 OFFCURVE",
"251 45 CURVE SMOOTH",
"186 45 OFFCURVE",
"155 75 OFFCURVE",
"155 125 CURVE SMOOTH",
"155 525 LINE SMOOTH",
"155 575 OFFCURVE",
"185 605 OFFCURVE",
"249 605 CURVE SMOOTH",
"314 605 OFFCURVE",
"345 575 OFFCURVE",
"345 525 CURVE SMOOTH",
"345 430 LINE",
"415 430 LINE",
"415 525 LINE SMOOTH",
"415 612 OFFCURVE",
"361 665 OFFCURVE",
"249 665 CURVE SMOOTH",
"137 665 OFFCURVE",
"85 612 OFFCURVE",
"85 525 CURVE SMOOTH",
"85 125 LINE SMOOTH",
"85 38 OFFCURVE",
"139 -15 OFFCURVE",
"251 -15 CURVE SMOOTH",
"363 -15 OFFCURVE",
"415 38 OFFCURVE",
"415 125 CURVE SMOOTH",
"415 180 LINE",
"345 180 LINE"
);
}
);
width = 490;
}
);
leftMetricsKey = O;
unicode = 0043;
},
{
glyphname = D;
layers = (
{
anchors = (
{
name = bottom;
position = "{243, 0}";
},
{
name = center;
position = "{170, 325}";
},
{
name = top;
position = "{243, 650}";
}
);
hints = (
{
place = "{100, 70}";
type = Stem;
},
{
place = "{350, 70}";
type = Stem;
},
{
horizontal = 1;
place = "{0, 60}";
type = Stem;
},
{
horizontal = 1;
place = "{590, 60}";
type = Stem;
}
);
layerId = UUID0;
paths = (
{
closed = 1;
nodes = (
"261 0 LINE SMOOTH",
"369 0 OFFCURVE",
"420 53 OFFCURVE",
"420 140 CURVE SMOOTH",
"420 510 LINE SMOOTH",
"420 596 OFFCURVE",
"367 650 OFFCURVE",
"261 650 CURVE SMOOTH",
"100 650 LINE",
"100 0 LINE"
);
},
{
closed = 1;
nodes = (
"350 140 LINE SMOOTH",
"350 100 OFFCURVE",
"321 60 OFFCURVE",
"261 60 CURVE SMOOTH",
"170 60 LINE",
"170 590 LINE",
"261 590 LINE SMOOTH",
"320 590 OFFCURVE",
"350 549 OFFCURVE",
"350 510 CURVE SMOOTH"
);
}
);
width = 505;
}
);
leftKerningGroup = H;
leftMetricsKey = H;
rightKerningGroup = O;
rightMetricsKey = O;
unicode = 0044;
},
{
glyphname = E;
layers = (
{
anchors = (
{
name = bottom;
position = "{248, 0}";
},
{
name = ogonek;
position = "{395, 0}";
},
{
name = top;
position = "{248, 650}";
},
{
name = topleft;
position = "{20, 650}";
}
);
hints = (
{
place = "{100, 70}";
type = Stem;
},
{
horizontal = 1;
place = "{0, 60}";
type = Stem;
},
{
horizontal = 1;
place = "{300, 60}";
type = Stem;
},
{
horizontal = 1;
place = "{590, 60}";
type = Stem;
}
);
layerId = UUID0;
paths = (
{
closed = 1;
nodes = (
"395 0 LINE",
"395 60 LINE",
"170 60 LINE",
"170 300 LINE",
"345 300 LINE",
"345 360 LINE",
"170 360 LINE",
"170 590 LINE",
"385 590 LINE",
"385 650 LINE",
"100 650 LINE",
"100 0 LINE"
);
}
);
width = 445;
}
);
leftKerningGroup = H;
unicode = 0045;
},
{
glyphname = F;
layers = (
{
anchors = (
{
name = bottom;
position = "{208, 0}";
},
{
name = top;
position = "{208, 650}";
}
);
hints = (
{
place = "{100, 70}";
type = Stem;
},
{
horizontal = 1;
place = "{300, 60}";
type = Stem;
},
{
horizontal = 1;
place = "{590, 60}";
type = Stem;
},
{
horizontal = 1;
place = "{0, 21}";
target = up;
type = BottomGhost;
}
);
layerId = UUID0;
paths = (
{
closed = 1;
nodes = (
"170 0 LINE",
"170 300 LINE",
"335 300 LINE",
"335 360 LINE",
"170 360 LINE",
"170 590 LINE",
"375 590 LINE",
"375 650 LINE",
"100 650 LINE",
"100 0 LINE"
);
}
);
width = 415;
}
);
leftKerningGroup = H;
leftMetricsKey = H;
rightKerningGroup = F;
unicode = 0046;
},
{
glyphname = G;
layers = (
{
anchors = (
{
name = bottom;
position = "{250, 0}";
},
{
name = top;
position = "{250, 650}";
}
);
hints = (
{
place = "{85, 70}";
type = Stem;
},
{
place = "{345, 70}";
type = Stem;
},
{
horizontal = 1;
place = "{-15, 60}";
type = Stem;
},
{
horizontal = 1;
place = "{270, 60}";
type = Stem;
},
{
horizontal = 1;
place = "{605, 60}";
type = Stem;
},
{
horizontal = 1;
place = "{0, 21}";
target = up;
type = BottomGhost;
}
);
layerId = UUID0;
paths = (
{
closed = 1;
nodes = (
"233 270 LINE",
"345 270 LINE",
"345 145 LINE SMOOTH",
"345 105 OFFCURVE",
"290 45 OFFCURVE",
"229 45 CURVE SMOOTH",
"169 45 OFFCURVE",
"155 80 OFFCURVE",
"155 125 CURVE SMOOTH",
"155 525 LINE SMOOTH",
"155 575 OFFCURVE",
"185 605 OFFCURVE",
"249 605 CURVE SMOOTH",
"314 605 OFFCURVE",
"345 575 OFFCURVE",
"345 525 CURVE SMOOTH",
"345 470 LINE",
"415 470 LINE",
"415 525 LINE SMOOTH",
"415 612 OFFCURVE",
"361 665 OFFCURVE",
"249 665 CURVE SMOOTH",
"137 665 OFFCURVE",
"85 612 OFFCURVE",
"85 525 CURVE SMOOTH",
"85 125 LINE SMOOTH",
"85 46 OFFCURVE",
"122 -15 OFFCURVE",
"230 -15 CURVE SMOOTH",
"285 -15 OFFCURVE",
"332 18 OFFCURVE",
"359 64 CURVE",
"385 0 LINE",
"415 0 LINE",
"415 330 LINE",
"233 330 LINE"
);
}
);
width = 500;
}
);
leftMetricsKey = O;
rightMetricsKey = O;
unicode = 0047;
},
{
glyphname = H;
layers = (
{
anchors = (
{
name = bottom;
position = "{269, 0}";
},
{
name = center;
position = "{269, 503}";
},
{
name = top;
position = "{269, 650}";
},
{
name = topleft;
position = "{20, 650}";
}
);
hints = (
{
place = "{100, 70}";
type = Stem;
},
{
place = "{367, 70}";
type = Stem;
},
{
horizontal = 1;
place = "{300, 60}";
type = Stem;
},
{
horizontal = 1;
place = "{0, 21}";
target = up;
type = BottomGhost;
},
{
horizontal = 1;
place = "{650, -20}";
target = down;
type = TopGhost;
}
);
layerId = UUID0;
paths = (
{
closed = 1;
nodes = (
"170 0 LINE",
"170 300 LINE",
"367 300 LINE",
"367 0 LINE",
"437 0 LINE",
"437 650 LINE",
"367 650 LINE",
"367 360 LINE",
"170 360 LINE",
"170 650 LINE",
"100 650 LINE",
"100 0 LINE"
);
}
);
width = 537;
}
);
unicode = 0048;
},
{
glyphname = I;
layers = (
{
anchors = (
{
name = bottom;
position = "{155, 0}";
},
{
name = ogonek;
position = "{240, 0}";
},
{
name = top;
position = "{155, 650}";
},
{
name = topleft;
position = "{20, 650}";
}
);
hints = (
{
place = "{120, 70}";
type = Stem;
},
{
horizontal = 1;
place = "{0, 60}";
type = Stem;
},
{
horizontal = 1;
place = "{590, 60}";
type = Stem;
}
);
layerId = UUID0;
paths = (
{
closed = 1;
nodes = (
"240 60 LINE",
"190 60 LINE",
"190 590 LINE",
"240 590 LINE",
"240 650 LINE",
"70 650 LINE",
"70 590 LINE",
"120 590 LINE",
"120 60 LINE",
"70 60 LINE",
"70 0 LINE",
"240 0 LINE"
);
}
);
width = 310;
}
);
unicode = 0049;
},
{
glyphname = J;
layers = (
{
anchors = (
{
name = bottom;
position = "{190, 0}";
},
{
name = top;
position = "{195, 650}";
}
);
hints = (
{
place = "{20, 70}";
type = Stem;
},
{
place = "{220, 70}";
type = Stem;
},
{
horizontal = 1;
place = "{-15, 60}";
type = Stem;
},
{
horizontal = 1;
place = "{590, 60}";
type = Stem;
}
);
layerId = UUID0;
paths = (
{
closed = 1;
nodes = (
"90 650 LINE",
"90 590 LINE",
"220 590 LINE",
"220 111 LINE SMOOTH",
"220 65 OFFCURVE",
"195 45 OFFCURVE",
"154 45 CURVE SMOOTH",
"114 45 OFFCURVE",
"90 65 OFFCURVE",
"90 111 CURVE SMOOTH",
"90 180 LINE",
"20 180 LINE",
"20 115 LINE SMOOTH",
"20 28 OFFCURVE",
"71 -15 OFFCURVE",
"154 -15 CURVE SMOOTH",
"237 -15 OFFCURVE",
"290 28 OFFCURVE",
"290 115 CURVE SMOOTH",
"290 650 LINE"
);
}
);
width = 380;
}
);
leftKerningGroup = J;
unicode = 004A;
},
{
glyphname = K;
layers = (
{
anchors = (
{
name = bottom;
position = "{248, 0}";
},
{
name = top;
position = "{248, 650}";
}
);
hints = (
{
place = "{101, 70}";
type = Stem;
},
{
horizontal = 1;
place = "{0, 21}";
target = up;
type = BottomGhost;
},
{
horizontal = 1;
place = "{650, -20}";
target = down;
type = TopGhost;
}
);
layerId = UUID0;
paths = (
{
closed = 1;
nodes = (
"171 0 LINE",
"171 250 LINE",
"204 303 LINE",
"358 0 LINE",
"435 0 LINE",
"246 370 LINE",
"423 650 LINE",
"345 650 LINE",
"171 374 LINE",
"171 650 LINE",
"101 650 LINE",
"101 0 LINE"
);
}
);
width = 455;
}
);
unicode = 004B;
},
{
glyphname = L;
layers = (
{
anchors = (
{
name = bottom;
position = "{234, 0}";
},
{
name = center;
position = "{170, 325}";
},
{
name = top;
position = "{135, 650}";
},
{
name = topright;
position = "{283, 530}";
}
);
guideLines = (
{
angle = 270;
position = "{353, 30}";
}
);
hints = (
{
place = "{100, 70}";
type = Stem;
},
{
horizontal = 1;
place = "{0, 60}";
type = Stem;
},
{
horizontal = 1;
place = "{650, -20}";
target = down;
type = TopGhost;
}
);
layerId = UUID0;
paths = (
{
closed = 1;
nodes = (
"100 0 LINE",
"353 0 LINE",
"353 60 LINE",
"170 60 LINE",
"170 650 LINE",
"100 650 LINE"
);
}
);
width = 373;
}
);
leftKerningGroup = L;
leftMetricsKey = H;
rightKerningGroup = L;
unicode = 004C;
},
{
glyphname = M;
layers = (
{
anchors = (
{
name = bottom;
position = "{320, 0}";
},
{
name = top;
position = "{320, 650}";
}
);
guideLines = (
{
position = "{15, 490}";
showMeasurement = 1;
}
);
hints = (
{
horizontal = 1;
origin = "{0, 15}";
target = up;
type = BottomGhost;
},
{
horizontal = 1;
origin = "{0, 14}";
target = down;
type = TopGhost;
},
{
origin = "{0, 15}";
target = "{0, 0}";
type = Stem;
},
{
origin = "{0, 7}";
target = "{0, 8}";
type = Stem;
}
);
layerId = UUID0;
paths = (
{
closed = 1;
nodes = (
"170 0 LINE",
"170 560 LINE",
"164 559 LINE",
"287 120 LINE",
"352 120 LINE",
"475 559 LINE",
"469 560 LINE",
"469 0 LINE",
"539 0 LINE",
"539 650 LINE",
"441 650 LINE",
"305 159 LINE",
"334 159 LINE",
"198 650 LINE",
"100 650 LINE",
"100 0 LINE"
);
}
);
width = 639;
}
);
leftMetricsKey = H;
rightMetricsKey = H;
unicode = 004D;
},
{
glyphname = N;
layers = (
{
anchors = (
{
name = bottom;
position = "{279, 0}";
},
{
name = top;
position = "{279, 650}";
}
);
hints = (
{
place = "{100, 70}";
type = Stem;
},
{
place = "{387, 70}";
type = Stem;
},
{
horizontal = 1;
place = "{0, 21}";
target = up;
type = BottomGhost;
},
{
horizontal = 1;
place = "{650, -20}";
target = down;
type = TopGhost;
}
);
layerId = UUID0;
paths = (
{
closed = 1;
nodes = (
"170 0 LINE",
"170 522 LINE",
"161 520 LINE",
"390 0 LINE",
"457 0 LINE",
"457 650 LINE",
"387 650 LINE",
"387 128 LINE",
"396 130 LINE",
"167 650 LINE",
"100 650 LINE",
"100 0 LINE"
);
}
);
width = 557;
}
);
leftMetricsKey = H;
rightMetricsKey = H;
unicode = 004E;
},
{
glyphname = Eng;
layers = (
{
hints = (
{
horizontal = 1;
origin = "{0, 16}";
target = "{0, 7}";
type = Stem;
},
{
horizontal = 1;
origin = "{0, 26}";
target = up;
type = BottomGhost;
},
{
horizontal = 1;
origin = "{0, 25}";
target = down;
type = TopGhost;
},
{
origin = "{0, 26}";
target = "{0, 0}";
type = Stem;
},
{
origin = "{0, 4}";
target = "{0, 19}";
type = Stem;
},
{
origin = "{0, 13}";
target = "{0, 10}";
type = Stem;
}
);
layerId = UUID0;
paths = (
{
closed = 1;
nodes = (
"170 0 LINE",
"170 522 LINE",
"161 520 LINE",
"387 0 LINE",
"387 -139 LINE SMOOTH",
"387 -185 OFFCURVE",
"362 -205 OFFCURVE",
"321 -205 CURVE SMOOTH",
"281 -205 OFFCURVE",
"257 -185 OFFCURVE",
"257 -139 CURVE SMOOTH",
"257 -110 LINE",
"187 -110 LINE",
"187 -135 LINE SMOOTH",
"187 -222 OFFCURVE",
"238 -265 OFFCURVE",
"321 -265 CURVE SMOOTH",
"404 -265 OFFCURVE",
"457 -222 OFFCURVE",
"457 -135 CURVE SMOOTH",
"457 650 LINE",
"387 650 LINE",
"387 128 LINE",
"394 130 LINE",
"168 650 LINE",
"100 650 LINE",
"100 0 LINE"
);
}
);
width = 557;
}
);
leftMetricsKey = N;
rightMetricsKey = N;
unicode = 014A;
},
{
glyphname = O;
layers = (
{
anchors = (
{
name = bottom;
position = "{255, 0}";
},
{
name = center;
position = "{255, 325}";
},
{
name = ogonek;
position = "{332, 0}";
},
{
name = top;
position = "{255, 650}";
},
{
name = topleft;
position = "{20, 650}";
},
{
name = topright;
position = "{344, 650}";
}
);
hints = (
{
place = "{85, 70}";
type = Stem;
},
{
place = "{355, 70}";
type = Stem;
},
{
horizontal = 1;
place = "{-15, 60}";
type = Stem;
},
{
horizontal = 1;
place = "{605, 60}";
type = Stem;
}
);
layerId = UUID0;
paths = (
{
closed = 1;
nodes = (
"425 525 LINE SMOOTH",
"425 612 OFFCURVE",
"369 665 OFFCURVE",
"254 665 CURVE SMOOTH",
"139 665 OFFCURVE",
"85 612 OFFCURVE",
"85 525 CURVE SMOOTH",
"85 125 LINE SMOOTH",
"85 38 OFFCURVE",
"141 -15 OFFCURVE",
"256 -15 CURVE SMOOTH",
"371 -15 OFFCURVE",
"425 38 OFFCURVE",
"425 125 CURVE SMOOTH"
);
},
{
closed = 1;
nodes = (
"355 125 LINE SMOOTH",
"355 74 OFFCURVE",
"323 45 OFFCURVE",
"256 45 CURVE SMOOTH",
"188 45 OFFCURVE",
"155 75 OFFCURVE",
"155 125 CURVE SMOOTH",
"155 525 LINE SMOOTH",
"155 575 OFFCURVE",
"187 605 OFFCURVE",
"254 605 CURVE SMOOTH",
"322 605 OFFCURVE",
"355 575 OFFCURVE",
"355 525 CURVE SMOOTH"
);
}
);
width = 510;
}
);
unicode = 004F;
},
{
glyphname = OE;
layers = (
{
anchors = (
{
name = bottom;
position = "{350, 0}";
},
{
name = top;
position = "{350, 650}";
}
);
hints = (
{
place = "{85, 70}";
type = Stem;
},
{
place = "{355, 70}";
type = Stem;
},
{
horizontal = 1;
place = "{-15, 60}";
type = Stem;
},
{
horizontal = 1;
place = "{0, 45}";
type = Stem;
},
{
horizontal = 1;
place = "{300, 60}";
type = Stem;
},
{
horizontal = 1;
place = "{590, 60}";
type = Stem;
},
{
horizontal = 1;
place = "{605, 45}";
type = Stem;
},
{
horizontal = 1;
place = "{605, 60}";
type = Stem;
},
{
horizontal = 1;
place = "{0, 60}";
type = Stem;
}
);
layerId = UUID0;
paths = (
{
closed = 1;
nodes = (
"425 525 LINE SMOOTH",
"425 549 OFFCURVE",
"420 571 OFFCURVE",
"411 590 CURVE",
"640 590 LINE",
"640 650 LINE",
"345 650 LINE",
"320 660 OFFCURVE",
"290 665 OFFCURVE",
"254 665 CURVE SMOOTH",
"139 665 OFFCURVE",
"85 612 OFFCURVE",
"85 525 CURVE SMOOTH",
"85 125 LINE SMOOTH",
"85 38 OFFCURVE",
"141 -15 OFFCURVE",
"256 -15 CURVE SMOOTH",
"292 -15 OFFCURVE",
"322 -10 OFFCURVE",
"346 0 CURVE",
"650 0 LINE",
"650 60 LINE",
"411 60 LINE",
"420 78 OFFCURVE",
"425 100 OFFCURVE",
"425 125 CURVE SMOOTH",
"425 300 LINE",
"600 300 LINE",
"600 360 LINE",
"425 360 LINE"
);
},
{
closed = 1;
nodes = (
"355 125 LINE SMOOTH",
"355 74 OFFCURVE",
"323 45 OFFCURVE",
"256 45 CURVE SMOOTH",
"188 45 OFFCURVE",
"155 75 OFFCURVE",
"155 125 CURVE SMOOTH",
"155 525 LINE SMOOTH",
"155 575 OFFCURVE",
"187 605 OFFCURVE",
"254 605 CURVE SMOOTH",
"322 605 OFFCURVE",
"355 575 OFFCURVE",
"355 525 CURVE SMOOTH"
);
}
);
width = 700;
}
);
leftMetricsKey = O;
rightMetricsKey = E;
unicode = 0152;
},
{
glyphname = P;
layers = (
{
anchors = (
{
name = bottom;
position = "{240, 0}";
},
{
name = top;
position = "{240, 650}";
}
);
hints = (
{
horizontal = 1;
origin = "{0, 11}";
target = up;
type = BottomGhost;
},
{
horizontal = 1;
origin = "{0, 1}";
target = "{1, 4}";
type = Stem;
},
{
horizontal = 1;
origin = "{0, 10}";
target = "{1, 5}";
type = Stem;
},
{
origin = "{0, 11}";
target = "{0, 0}";
type = Stem;
},
{
origin = "{1, 0}";
target = "{0, 5}";
type = Stem;
}
);
layerId = UUID0;
paths = (
{
closed = 1;
nodes = (
"170 0 LINE",
"170 200 LINE",
"251 200 LINE SMOOTH",
"359 200 OFFCURVE",
"410 253 OFFCURVE",
"410 340 CURVE SMOOTH",
"410 510 LINE SMOOTH",
"410 596 OFFCURVE",
"357 650 OFFCURVE",
"251 650 CURVE SMOOTH",
"100 650 LINE",
"100 0 LINE"
);
},
{
closed = 1;
nodes = (
"340 340 LINE SMOOTH",
"340 290 OFFCURVE",
"311 260 OFFCURVE",
"251 260 CURVE SMOOTH",
"170 260 LINE",
"170 590 LINE",
"251 590 LINE SMOOTH",
"310 590 OFFCURVE",
"340 559 OFFCURVE",
"340 510 CURVE SMOOTH"
);
}
);
width = 470;
}
);
leftKerningGroup = H;
leftMetricsKey = H;
rightKerningGroup = P;
unicode = 0050;
},
{
glyphname = Thorn;
layers = (
{
hints = (
{
place = "{90, 70}";
type = Stem;
},
{
place = "{330, 70}";
type = Stem;
},
{
horizontal = 1;
place = "{100, 60}";
type = Stem;
},
{
horizontal = 1;
place = "{490, 60}";
type = Stem;
},
{
horizontal = 1;
place = "{0, 21}";
target = up;
type = BottomGhost;
},
{
horizontal = 1;
place = "{650, -20}";
target = down;
type = TopGhost;
}
);
layerId = UUID0;
paths = (
{
closed = 1;
nodes = (
"340 240 LINE SMOOTH",
"340 190 OFFCURVE",
"311 160 OFFCURVE",
"251 160 CURVE SMOOTH",
"170 160 LINE",
"170 100 LINE",
"251 100 LINE SMOOTH",
"359 100 OFFCURVE",
"410 153 OFFCURVE",
"410 240 CURVE SMOOTH",
"410 410 LINE SMOOTH",
"410 496 OFFCURVE",
"357 550 OFFCURVE",
"251 550 CURVE SMOOTH",
"170 550 LINE",
"170 490 LINE",
"251 490 LINE SMOOTH",
"310 490 OFFCURVE",
"340 459 OFFCURVE",
"340 410 CURVE SMOOTH"
);
},
{
closed = 1;
nodes = (
"170 0 LINE",
"170 650 LINE",
"100 650 LINE",
"100 0 LINE"
);
}
);
width = 470;
}
);
leftMetricsKey = H;
unicode = 00DE;
},
{
glyphname = Q;
layers = (
{
anchors = (
{
name = bottom;
position = "{255, 0}";
},
{
name = top;
position = "{255, 650}";
}
);
hints = (
{
horizontal = 1;
origin = "{0, 13}";
target = "{1, 3}";
type = Stem;
},
{
horizontal = 1;
origin = "{0, 3}";
target = "{1, 10}";
type = Stem;
},
{
origin = "{0, 7}";
target = "{1, 6}";
type = Stem;
},
{
origin = "{1, 0}";
target = "{0, 16}";
type = Stem;
}
);
layerId = UUID0;
paths = (
{
closed = 1;
nodes = (
"425 525 LINE SMOOTH",
"425 612 OFFCURVE",
"369 665 OFFCURVE",
"254 665 CURVE SMOOTH",
"139 665 OFFCURVE",
"85 612 OFFCURVE",
"85 525 CURVE SMOOTH",
"85 125 LINE SMOOTH",
"85 44 OFFCURVE",
"132 -6 OFFCURVE",
"230 -14 CURVE",
"260 -142 LINE",
"320 -142 LINE",
"290 -13 LINE",
"381 -3 OFFCURVE",
"425 47 OFFCURVE",
"425 125 CURVE SMOOTH"
);
},
{
closed = 1;
nodes = (
"355 125 LINE SMOOTH",
"355 74 OFFCURVE",
"323 45 OFFCURVE",
"256 45 CURVE SMOOTH",
"188 45 OFFCURVE",
"155 75 OFFCURVE",
"155 125 CURVE SMOOTH",
"155 525 LINE SMOOTH",
"155 575 OFFCURVE",
"187 605 OFFCURVE",
"254 605 CURVE SMOOTH",
"322 605 OFFCURVE",
"355 575 OFFCURVE",
"355 525 CURVE SMOOTH"
);
}
);
width = 510;
}
);
leftMetricsKey = O;
rightMetricsKey = O;
unicode = 0051;
},
{
glyphname = R;
layers = (
{
anchors = (
{
name = bottom;
position = "{263, 0}";
},
{
name = top;
position = "{243, 650}";
}
);
hints = (
{
place = "{100, 70}";
type = Stem;
},
{
place = "{340, 70}";
type = Stem;
},
{
horizontal = 1;
place = "{230, 60}";
type = Stem;
},
{
horizontal = 1;
place = "{590, 60}";
type = Stem;
},
{
horizontal = 1;
place = "{0, 21}";
target = up;
type = BottomGhost;
}
);
layerId = UUID0;
paths = (
{
closed = 1;
nodes = (
"170 0 LINE",
"170 230 LINE",
"251 230 LINE",
"368 0 LINE",
"445 0 LINE",
"322 240 LINE",
"381 259 OFFCURVE",
"410 305 OFFCURVE",
"410 370 CURVE SMOOTH",
"410 510 LINE SMOOTH",
"410 596 OFFCURVE",
"357 650 OFFCURVE",
"251 650 CURVE SMOOTH",
"100 650 LINE",
"100 0 LINE"
);
},
{
closed = 1;
nodes = (
"340 370 LINE SMOOTH",
"340 320 OFFCURVE",
"311 290 OFFCURVE",
"251 290 CURVE SMOOTH",
"170 290 LINE",
"170 590 LINE",
"251 590 LINE SMOOTH",
"310 590 OFFCURVE",
"340 559 OFFCURVE",
"340 510 CURVE SMOOTH"
);
}
);
width = 485;
}
);
leftKerningGroup = H;
leftMetricsKey = H;
unicode = 0052;
},
{
glyphname = S;
layers = (
{
anchors = (
{
name = bottom;
position = "{249, 0}";
},
{
name = top;
position = "{249, 650}";
}
);
hints = (
{
horizontal = 1;
origin = "{0, 37}";
target = "{0, 28}";
type = Stem;
},
{
horizontal = 1;
origin = "{0, 15}";
target = "{0, 6}";
type = Stem;
},
{
origin = "{0, 34}";
target = "{0, 31}";
type = Stem;
},
{
origin = "{0, 25}";
target = "{0, 40}";
type = Stem;
},
{
origin = "{0, 10}";
target = "{0, 11}";
type = Stem;
}
);
layerId = UUID0;
paths = (
{
closed = 1;
nodes = (
"188 433 LINE SMOOTH",
"154 464 OFFCURVE",
"150 487 OFFCURVE",
"150 529 CURVE SMOOTH",
"150 575 OFFCURVE",
"180 605 OFFCURVE",
"244 605 CURVE SMOOTH",
"308 605 OFFCURVE",
"338 575 OFFCURVE",
"338 529 CURVE SMOOTH",
"338 440 LINE",
"408 440 LINE",
"408 525 LINE SMOOTH",
"408 612 OFFCURVE",
"359 665 OFFCURVE",
"247 665 CURVE SMOOTH",
"133 665 OFFCURVE",
"80 612 OFFCURVE",
"80 525 CURVE SMOOTH",
"80 467 OFFCURVE",
"92 432 OFFCURVE",
"134 390 CURVE SMOOTH",
"310 218 LINE SMOOTH",
"343 186 OFFCURVE",
"348 162 OFFCURVE",
"348 121 CURVE SMOOTH",
"348 75 OFFCURVE",
"316 45 OFFCURVE",
"249 45 CURVE SMOOTH",
"182 45 OFFCURVE",
"150 75 OFFCURVE",
"150 121 CURVE SMOOTH",
"150 210 LINE",
"80 210 LINE",
"80 125 LINE SMOOTH",
"80 38 OFFCURVE",
"131 -15 OFFCURVE",
"249 -15 CURVE SMOOTH",
"367 -15 OFFCURVE",
"418 38 OFFCURVE",
"418 125 CURVE SMOOTH",
"418 184 OFFCURVE",
"407 218 OFFCURVE",
"367 261 CURVE SMOOTH"
);
}
);
width = 498;
}
);
unicode = 0053;
},
{
glyphname = Germandbls;
layers = (
{
hints = (
{
place = "{100, 70}";
type = Stem;
},
{
place = "{368, 70}";
type = Stem;
},
{
horizontal = 1;
place = "{0, 60}";
type = Stem;
},
{
horizontal = 1;
place = "{300, 50}";
type = Stem;
},
{
horizontal = 1;
place = "{605, 60}";
type = Stem;
}
);
layerId = UUID0;
paths = (
{
closed = 1;
nodes = (
"220 0 LINE",
"269 0 LINE SMOOTH",
"387 0 OFFCURVE",
"438 53 OFFCURVE",
"438 140 CURVE SMOOTH",
"438 215 LINE SMOOTH",
"438 301 OFFCURVE",
"385 335 OFFCURVE",
"279 335 CURVE SMOOTH",
"248 335 LINE",
"248 300 LINE",
"279 300 LINE SMOOTH",
"338 300 OFFCURVE",
"368 254 OFFCURVE",
"368 215 CURVE SMOOTH",
"368 136 LINE SMOOTH",
"368 90 OFFCURVE",
"336 60 OFFCURVE",
"269 60 CURVE SMOOTH",
"220 60 LINE"
);
},
{
closed = 1;
nodes = (
"428 525 LINE SMOOTH",
"428 612 OFFCURVE",
"375 665 OFFCURVE",
"261 665 CURVE SMOOTH",
"149 665 OFFCURVE",
"100 612 OFFCURVE",
"100 525 CURVE SMOOTH",
"100 0 LINE",
"170 0 LINE",
"170 529 LINE SMOOTH",
"170 575 OFFCURVE",
"200 605 OFFCURVE",
"264 605 CURVE SMOOTH",
"328 605 OFFCURVE",
"358 575 OFFCURVE",
"358 529 CURVE SMOOTH",
"358 435 LINE SMOOTH",
"358 395 OFFCURVE",
"329 350 OFFCURVE",
"269 350 CURVE SMOOTH",
"248 350 LINE",
"248 315 LINE",
"269 315 LINE SMOOTH",
"377 315 OFFCURVE",
"428 348 OFFCURVE",
"428 435 CURVE SMOOTH"
);
}
);
width = 523;
}
);
unicode = 1E9E;
},
{
glyphname = T;
layers = (
{
anchors = (
{
name = bottom;
position = "{195, 0}";
},
{
name = center;
position = "{195, 325}";
},
{
name = top;
position = "{195, 650}";
}
);
hints = (
{
place = "{160, 70}";
type = Stem;
},
{
horizontal = 1;
place = "{590, 60}";
type = Stem;
},
{
horizontal = 1;
place = "{0, 21}";
target = up;
type = BottomGhost;
}
);
layerId = UUID0;
paths = (
{
closed = 1;
nodes = (
"360 650 LINE",
"30 650 LINE",
"30 590 LINE",
"160 590 LINE",
"160 0 LINE",
"230 0 LINE",
"230 590 LINE",
"360 590 LINE"
);
}
);
width = 390;
}
);
leftKerningGroup = T;
rightKerningGroup = T;
unicode = 0054;
},
{
glyphname = U;
layers = (
{
anchors = (
{
name = bottom;
position = "{260, 0}";
},
{
name = ogonek;
position = "{332, 0}";
},
{
name = top;
position = "{260, 650}";
},
{
name = topright;
position = "{395, 650}";
}
);
hints = (
{
place = "{90, 70}";
type = Stem;
},
{
place = "{360, 70}";
type = Stem;
},
{
horizontal = 1;
place = "{-15, 60}";
type = Stem;
},
{
horizontal = 1;
place = "{650, -20}";
target = down;
type = TopGhost;
}
);
layerId = UUID0;
paths = (
{
closed = 1;
nodes = (
"360 125 LINE SMOOTH",
"360 75 OFFCURVE",
"328 45 OFFCURVE",
"261 45 CURVE SMOOTH",
"193 45 OFFCURVE",
"160 75 OFFCURVE",
"160 125 CURVE SMOOTH",
"160 650 LINE",
"90 650 LINE",
"90 125 LINE SMOOTH",
"90 38 OFFCURVE",
"146 -15 OFFCURVE",
"261 -15 CURVE SMOOTH",
"376 -15 OFFCURVE",
"430 38 OFFCURVE",
"430 125 CURVE SMOOTH",
"430 650 LINE",
"360 650 LINE"
);
}
);
width = 520;
}
);
unicode = 0055;
},
{
glyphname = V;
layers = (
{
anchors = (
{
name = bottom;
position = "{240, 0}";
},
{
name = top;
position = "{240, 650}";
}
);
hints = (
{
horizontal = 1;
place = "{0, 21}";
target = up;
type = BottomGhost;
},
{
horizontal = 1;
place = "{650, -20}";
target = down;
type = TopGhost;
}
);
layerId = UUID0;
paths = (
{
closed = 1;
nodes = (
"292 0 LINE",
"439 650 LINE",
"369 650 LINE",
"239 77 LINE",
"110 650 LINE",
"40 650 LINE",
"187 0 LINE"
);
}
);
width = 479;
}
);
leftKerningGroup = V;
rightKerningGroup = V;
unicode = 0056;
},
{
glyphname = W;
layers = (
{
anchors = (
{
name = bottom;
position = "{342, 0}";
},
{
name = top;
position = "{342, 650}";
}
);
hints = (
{
horizontal = 1;
place = "{0, 21}";
target = up;
type = BottomGhost;
},
{
horizontal = 1;
place = "{650, -20}";
target = down;
type = TopGhost;
}
);
layerId = UUID0;
paths = (
{
closed = 1;
nodes = (
"236 0 LINE",
"345 540 LINE",
"337 540 LINE",
"447 0 LINE",
"541 0 LINE",
"638 650 LINE",
"568 650 LINE",
"483 80 LINE",
"490 80 LINE",
"374 650 LINE",
"308 650 LINE",
"193 80 LINE",
"200 80 LINE",
"115 650 LINE",
"45 650 LINE",
"142 0 LINE"
);
}
);
width = 683;
}
);
leftKerningGroup = V;
rightKerningGroup = V;
unicode = 0057;
},
{
glyphname = X;
layers = (
{
anchors = (
{
name = bottom;
position = "{226, 0}";
},
{
name = top;
position = "{226, 650}";
}
);
hints = (
{
horizontal = 1;
place = "{0, 21}";
target = up;
type = BottomGhost;
},
{
horizontal = 1;
place = "{650, -20}";
target = down;
type = TopGhost;
}
);
layerId = UUID0;
paths = (
{
closed = 1;
nodes = (
"412 0 LINE",
"267 326 LINE",
"412 650 LINE",
"339 650 LINE",
"230 408 LINE",
"123 650 LINE",
"50 650 LINE",
"190 335 LINE",
"40 0 LINE",
"113 0 LINE",
"226 253 LINE",
"339 0 LINE"
);
}
);
width = 452;
}
);
unicode = 0058;
},
{
glyphname = Y;
layers = (
{
anchors = (
{
name = bottom;
position = "{225, 0}";
},
{
name = top;
position = "{225, 650}";
},
{
name = topleft;
position = "{20, 650}";
}
);
hints = (
{
place = "{190, 70}";
type = Stem;
},
{
horizontal = 1;
place = "{0, 21}";
target = up;
type = BottomGhost;
},
{
horizontal = 1;
place = "{650, -20}";
target = down;
type = TopGhost;
}
);
layerId = UUID0;
paths = (
{
closed = 1;
nodes = (
"260 0 LINE",
"260 232 LINE",
"425 650 LINE",
"351 650 LINE",
"225 315 LINE",
"99 650 LINE",
"25 650 LINE",
"190 233 LINE",
"190 0 LINE"
);
}
);
width = 450;
}
);
leftKerningGroup = Y;
rightKerningGroup = Y;
unicode = 0059;
},
{
glyphname = Z;
layers = (
{
anchors = (
{
name = bottom;
position = "{209, 0}";
},
{
name = top;
position = "{209, 650}";
}
);
hints = (
{
horizontal = 1;
place = "{0, 60}";
type = Stem;
},
{
horizontal = 1;
place = "{590, 60}";
type = Stem;
}
);
layerId = UUID0;
paths = (
{
closed = 1;
nodes = (
"50 590 LINE",
"304 590 LINE",
"35 60 LINE",
"35 0 LINE",
"372 0 LINE",
"372 60 LINE",
"108 60 LINE",
"377 590 LINE",
"377 650 LINE",
"50 650 LINE"
);
}
);
width = 417;
}
);
unicode = 005A;
},
{
glyphname = a;
layers = (
{
anchors = (
{
name = bottom;
position = "{250, 0}";
},
{
name = ogonek;
position = "{410, 0}";
},
{
name = top;
position = "{250, 650}";
}
);
hints = (
{
horizontal = 1;
origin = "{0, 29}";
target = up;
type = BottomGhost;
},
{
horizontal = 1;
origin = "{1, 10}";
target = "{0, 18}";
type = Stem;
},
{
horizontal = 1;
origin = "{0, 4}";
target = "{0, 13}";
type = Stem;
},
{
horizontal = 1;
origin = "{0, 25}";
target = "{1, 3}";
type = Stem;
},
{
origin = "{0, 8}";
target = "{0, 9}";
type = Stem;
},
{
origin = "{1, 0}";
target = "{0, 0}";
type = Stem;
},
{
origin = "{0, 22}";
target = "{1, 6}";
type = Stem;
}
);
layerId = UUID0;
paths = (
{
closed = 1;
nodes = (
"410 0 LINE",
"410 525 LINE SMOOTH",
"410 613 OFFCURVE",
"357 665 OFFCURVE",
"249 665 CURVE SMOOTH",
"141 665 OFFCURVE",
"90 613 OFFCURVE",
"90 525 CURVE SMOOTH",
"90 470 LINE",
"160 470 LINE",
"160 529 LINE SMOOTH",
"160 576 OFFCURVE",
"189 605 OFFCURVE",
"249 605 CURVE SMOOTH",
"310 605 OFFCURVE",
"340 576 OFFCURVE",
"340 529 CURVE SMOOTH",
"340 365 LINE",
"224 365 LINE SMOOTH",
"117 365 OFFCURVE",
"80 304 OFFCURVE",
"80 225 CURVE SMOOTH",
"80 125 LINE SMOOTH",
"80 46 OFFCURVE",
"117 -15 OFFCURVE",
"224 -15 CURVE SMOOTH",
"280 -15 OFFCURVE",
"327 17 OFFCURVE",
"354 64 CURVE",
"380 0 LINE"
);
},
{
closed = 1;
nodes = (
"340 142 LINE",
"337 102 OFFCURVE",
"283 45 OFFCURVE",
"224 45 CURVE SMOOTH",
"164 45 OFFCURVE",
"150 80 OFFCURVE",
"150 125 CURVE SMOOTH",
"150 225 LINE SMOOTH",
"150 270 OFFCURVE",
"164 305 OFFCURVE",
"224 305 CURVE SMOOTH",
"340 305 LINE"
);
}
);
width = 500;
}
);
unicode = 0061;
},
{
glyphname = ae;
layers = (
{
anchors = (
{
name = bottom;
position = "{378, 0}";
},
{
name = top;
position = "{378, 650}";
}
);
hints = (
{
place = "{90, 70}";
type = Stem;
},
{
place = "{340, 70}";
type = Stem;
},
{
place = "{600, 70}";
type = Stem;
},
{
horizontal = 1;
place = "{-15, 60}";
type = Stem;
},
{
horizontal = 1;
place = "{305, 60}";
type = Stem;
},
{
horizontal = 1;
place = "{605, 60}";
type = Stem;
},
{
horizontal = 1;
origin = "{0, 22}";
type = Delta;
},
{
horizontal = 1;
origin = "{0, 23}";
type = Delta;
}
);
layerId = UUID0;
paths = (
{
closed = 1;
nodes = (
"600 125 LINE SMOOTH",
"600 75 OFFCURVE",
"570 45 OFFCURVE",
"506 45 CURVE SMOOTH",
"441 45 OFFCURVE",
"410 75 OFFCURVE",
"410 125 CURVE SMOOTH",
"410 305 LINE",
"670 305 LINE",
"670 525 LINE SMOOTH",
"670 612 OFFCURVE",
"616 665 OFFCURVE",
"504 665 CURVE SMOOTH",
"444 665 OFFCURVE",
"402 650 OFFCURVE",
"375 623 CURVE",
"348 650 OFFCURVE",
"306 665 OFFCURVE",
"249 665 CURVE SMOOTH",
"141 665 OFFCURVE",
"90 612 OFFCURVE",
"90 525 CURVE SMOOTH",
"90 470 LINE",
"160 470 LINE",
"160 529 LINE SMOOTH",
"160 575 OFFCURVE",
"189 605 OFFCURVE",
"249 605 CURVE SMOOTH",
"309 605 OFFCURVE",
"340 576 OFFCURVE",
"340 531 CURVE SMOOTH",
"340 365 LINE",
"224 365 LINE SMOOTH",
"117 365 OFFCURVE",
"80 304 OFFCURVE",
"80 225 CURVE SMOOTH",
"80 125 LINE SMOOTH",
"80 46 OFFCURVE",
"117 -15 OFFCURVE",
"224 -15 CURVE SMOOTH",
"278 -15 OFFCURVE",
"324 16 OFFCURVE",
"352 61 CURVE",
"374 13 OFFCURVE",
"425 -15 OFFCURVE",
"506 -15 CURVE SMOOTH",
"618 -15 OFFCURVE",
"670 38 OFFCURVE",
"670 125 CURVE SMOOTH",
"670 180 LINE",
"600 180 LINE"
);
},
{
closed = 1;
nodes = (
"340 145 LINE SMOOTH",
"340 105 OFFCURVE",
"285 45 OFFCURVE",
"224 45 CURVE SMOOTH",
"164 45 OFFCURVE",
"150 80 OFFCURVE",
"150 125 CURVE SMOOTH",
"150 225 LINE SMOOTH",
"150 270 OFFCURVE",
"164 305 OFFCURVE",
"224 305 CURVE SMOOTH",
"340 305 LINE"
);
},
{
closed = 1;
nodes = (
"410 531 LINE SMOOTH",
"410 577 OFFCURVE",
"443 605 OFFCURVE",
"504 605 CURVE SMOOTH",
"569 605 OFFCURVE",
"600 575 OFFCURVE",
"600 525 CURVE SMOOTH",
"600 365 LINE",
"410 365 LINE"
);
}
);
width = 755;
}
);
unicode = 00E6;
},
{
glyphname = b;
layers = (
{
anchors = (
{
name = bottom;
position = "{253, 0}";
},
{
name = top;
position = "{253, 650}";
}
);
hints = (
{
place = "{100, 70}";
type = Stem;
},
{
place = "{350, 70}";
type = Stem;
},
{
horizontal = 1;
place = "{0, 60}";
type = Stem;
},
{
horizontal = 1;
place = "{315, 50}";
type = Stem;
},
{
horizontal = 1;
place = "{590, 60}";
type = Stem;
}
);
layerId = UUID0;
paths = (
{
closed = 1;
nodes = (
"100 650 LINE",
"100 0 LINE",
"261 0 LINE SMOOTH",
"369 0 OFFCURVE",
"420 53 OFFCURVE",
"420 140 CURVE SMOOTH",
"420 230 LINE SMOOTH",
"420 291 OFFCURVE",
"393 326 OFFCURVE",
"339 341 CURVE",
"387 357 OFFCURVE",
"410 391 OFFCURVE",
"410 450 CURVE SMOOTH",
"410 510 LINE SMOOTH",
"410 596 OFFCURVE",
"357 650 OFFCURVE",
"251 650 CURVE SMOOTH"
);
},
{
closed = 1;
nodes = (
"350 140 LINE SMOOTH",
"350 90 OFFCURVE",
"321 60 OFFCURVE",
"261 60 CURVE SMOOTH",
"170 60 LINE",
"170 315 LINE",
"261 315 LINE SMOOTH",
"320 315 OFFCURVE",
"350 279 OFFCURVE",
"350 230 CURVE SMOOTH"
);
},
{
closed = 1;
nodes = (
"340 450 LINE SMOOTH",
"340 400 OFFCURVE",
"311 365 OFFCURVE",
"251 365 CURVE SMOOTH",
"170 365 LINE",
"170 590 LINE",
"251 590 LINE SMOOTH",
"310 590 OFFCURVE",
"340 559 OFFCURVE",
"340 510 CURVE SMOOTH"
);
}
);
width = 505;
}
);
unicode = 0062;
},
{
glyphname = c;
layers = (
{
anchors = (
{
name = bottom;
position = "{245, 0}";
},
{
name = top;
position = "{245, 650}";
}
);
hints = (
{
place = "{85, 70}";
type = Stem;
},
{
place = "{345, 70}";
type = Stem;
},
{
horizontal = 1;
place = "{-15, 60}";
type = Stem;
},
{
horizontal = 1;
place = "{605, 60}";
type = Stem;
}
);
layerId = UUID0;
paths = (
{
closed = 1;
nodes = (
"345 125 LINE SMOOTH",
"345 75 OFFCURVE",
"315 45 OFFCURVE",
"251 45 CURVE SMOOTH",
"186 45 OFFCURVE",
"155 75 OFFCURVE",
"155 125 CURVE SMOOTH",
"155 525 LINE SMOOTH",
"155 575 OFFCURVE",
"185 605 OFFCURVE",
"249 605 CURVE SMOOTH",
"314 605 OFFCURVE",
"345 575 OFFCURVE",
"345 525 CURVE SMOOTH",
"345 430 LINE",
"415 430 LINE",
"415 525 LINE SMOOTH",
"415 612 OFFCURVE",
"361 665 OFFCURVE",
"249 665 CURVE SMOOTH",
"137 665 OFFCURVE",
"85 612 OFFCURVE",
"85 525 CURVE SMOOTH",
"85 125 LINE SMOOTH",
"85 38 OFFCURVE",
"139 -15 OFFCURVE",
"251 -15 CURVE SMOOTH",
"363 -15 OFFCURVE",
"415 38 OFFCURVE",
"415 125 CURVE SMOOTH",
"415 180 LINE",
"345 180 LINE"
);
}
);
width = 490;
}
);
unicode = 0063;
},
{
glyphname = d;
layers = (
{
anchors = (
{
name = bottom;
position = "{253, 0}";
},
{
name = center;
position = "{170, 325}";
},
{
name = top;
position = "{253, 650}";
},
{
name = topright;
position = "{485, 650}";
}
);
hints = (
{
place = "{100, 70}";
type = Stem;
},
{
place = "{350, 70}";
type = Stem;
},
{
horizontal = 1;
place = "{0, 60}";
type = Stem;
},
{
horizontal = 1;
place = "{590, 60}";
type = Stem;
}
);
layerId = UUID0;
paths = (
{
closed = 1;
nodes = (
"261 0 LINE SMOOTH",
"369 0 OFFCURVE",
"420 53 OFFCURVE",
"420 140 CURVE SMOOTH",
"420 510 LINE SMOOTH",
"420 596 OFFCURVE",
"367 650 OFFCURVE",
"261 650 CURVE SMOOTH",
"100 650 LINE",
"100 0 LINE"
);
},
{
closed = 1;
nodes = (
"350 140 LINE SMOOTH",
"350 90 OFFCURVE",
"321 60 OFFCURVE",
"261 60 CURVE SMOOTH",
"170 60 LINE",
"170 590 LINE",
"261 590 LINE SMOOTH",
"320 590 OFFCURVE",
"350 559 OFFCURVE",
"350 510 CURVE SMOOTH"
);
}
);
width = 505;
}
);
unicode = 0064;
},
{
glyphname = e;
layers = (
{
anchors = (
{
name = bottom;
position = "{250, 0}";
},
{
name = ogonek;
position = "{321, 0}";
},
{
name = top;
position = "{250, 650}";
}
);
hints = (
{
place = "{85, 70}";
type = Stem;
},
{
place = "{345, 70}";
type = Stem;
},
{
horizontal = 1;
place = "{-15, 60}";
type = Stem;
},
{
horizontal = 1;
place = "{305, 60}";
type = Stem;
},
{
horizontal = 1;
place = "{605, 60}";
type = Stem;
}
);
layerId = UUID0;
paths = (
{
closed = 1;
nodes = (
"345 125 LINE SMOOTH",
"345 75 OFFCURVE",
"315 45 OFFCURVE",
"251 45 CURVE SMOOTH",
"186 45 OFFCURVE",
"155 75 OFFCURVE",
"155 125 CURVE SMOOTH",
"155 305 LINE",
"415 305 LINE",
"415 525 LINE SMOOTH",
"415 612 OFFCURVE",
"361 665 OFFCURVE",
"249 665 CURVE SMOOTH",
"137 665 OFFCURVE",
"85 612 OFFCURVE",
"85 525 CURVE SMOOTH",
"85 125 LINE SMOOTH",
"85 38 OFFCURVE",
"139 -15 OFFCURVE",
"251 -15 CURVE SMOOTH",
"363 -15 OFFCURVE",
"415 38 OFFCURVE",
"415 125 CURVE SMOOTH",
"415 180 LINE",
"345 180 LINE"
);
},
{
closed = 1;
nodes = (
"155 525 LINE SMOOTH",
"155 575 OFFCURVE",
"185 605 OFFCURVE",
"249 605 CURVE SMOOTH",
"314 605 OFFCURVE",
"345 575 OFFCURVE",
"345 525 CURVE SMOOTH",
"345 365 LINE",
"155 365 LINE"
);
}
);
width = 500;
}
);
unicode = 0065;
},
{
glyphname = f;
layers = (
{
anchors = (
{
name = bottom;
position = "{208, 0}";
},
{
name = top;
position = "{208, 650}";
}
);
hints = (
{
place = "{100, 70}";
type = Stem;
},
{
horizontal = 1;
place = "{300, 60}";
type = Stem;
},
{
horizontal = 1;
place = "{590, 60}";
type = Stem;
},
{
horizontal = 1;
place = "{0, 21}";
target = up;
type = BottomGhost;
}
);
layerId = UUID0;
paths = (
{
closed = 1;
nodes = (
"170 0 LINE",
"170 300 LINE",
"335 300 LINE",
"335 360 LINE",
"170 360 LINE",
"170 590 LINE",
"375 590 LINE",
"375 650 LINE",
"100 650 LINE",
"100 0 LINE"
);
}
);
width = 415;
}
);
rightKerningGroup = F;
unicode = 0066;
},
{
glyphname = g;
layers = (
{
anchors = (
{
name = bottom;
position = "{250, -250}";
},
{
name = top;
position = "{250, 650}";
}
);
hints = (
{
place = "{85, 70}";
type = Stem;
},
{
place = "{345, 70}";
type = Stem;
},
{
horizontal = 1;
place = "{-15, 60}";
type = Stem;
},
{
horizontal = 1;
place = "{270, 60}";
type = Stem;
},
{
horizontal = 1;
place = "{605, 60}";
type = Stem;
}
);
layerId = UUID0;
paths = (
{
closed = 1;
nodes = (
"233 270 LINE",
"345 270 LINE",
"345 125 LINE SMOOTH",
"345 75 OFFCURVE",
"315 45 OFFCURVE",
"251 45 CURVE SMOOTH",
"186 45 OFFCURVE",
"155 75 OFFCURVE",
"155 125 CURVE SMOOTH",
"155 525 LINE SMOOTH",
"155 575 OFFCURVE",
"185 605 OFFCURVE",
"249 605 CURVE SMOOTH",
"314 605 OFFCURVE",
"345 575 OFFCURVE",
"345 525 CURVE SMOOTH",
"345 470 LINE",
"415 470 LINE",
"415 525 LINE SMOOTH",
"415 612 OFFCURVE",
"361 665 OFFCURVE",
"249 665 CURVE SMOOTH",
"137 665 OFFCURVE",
"85 612 OFFCURVE",
"85 525 CURVE SMOOTH",
"85 125 LINE SMOOTH",
"85 38 OFFCURVE",
"139 -15 OFFCURVE",
"251 -15 CURVE SMOOTH",
"363 -15 OFFCURVE",
"415 38 OFFCURVE",
"415 125 CURVE SMOOTH",
"415 330 LINE",
"233 330 LINE"
);
}
);
width = 500;
}
);
unicode = 0067;
},
{
glyphname = h;
layers = (
{
anchors = (
{
name = bottom;
position = "{269, 0}";
},
{
name = center;
position = "{269, 503}";
},
{
name = top;
position = "{269, 650}";
}
);
hints = (
{
place = "{100, 70}";
type = Stem;
},
{
place = "{367, 70}";
type = Stem;
},
{
horizontal = 1;
place = "{300, 60}";
type = Stem;
},
{
horizontal = 1;
place = "{0, 21}";
target = up;
type = BottomGhost;
},
{
horizontal = 1;
place = "{650, -20}";
target = down;
type = TopGhost;
}
);
layerId = UUID0;
paths = (
{
closed = 1;
nodes = (
"170 0 LINE",
"170 300 LINE",
"367 300 LINE",
"367 0 LINE",
"437 0 LINE",
"437 650 LINE",
"367 650 LINE",
"367 360 LINE",
"170 360 LINE",
"170 650 LINE",
"100 650 LINE",
"100 0 LINE"
);
}
);
width = 537;
}
);
unicode = 0068;
},
{
glyphname = idotless;
layers = (
{
anchors = (
{
name = bottom;
position = "{135, 0}";
},
{
name = ogonek;
position = "{170, 0}";
},
{
name = top;
position = "{135, 650}";
}
);
hints = (
{
place = "{100, 70}";
type = Stem;
},
{
horizontal = 1;
place = "{0, 21}";
target = up;
type = BottomGhost;
},
{
horizontal = 1;
place = "{650, -20}";
target = down;
type = TopGhost;
}
);
layerId = UUID0;
paths = (
{
closed = 1;
nodes = (
"170 0 LINE",
"170 650 LINE",
"100 650 LINE",
"100 0 LINE"
);
}
);
width = 270;
}
);
unicode = 0131;
},
{
glyphname = jdotless;
layers = (
{
anchors = (
{
name = bottom;
position = "{190, -250}";
},
{
name = top;
position = "{255, 650}";
}
);
hints = (
{
place = "{20, 70}";
type = Stem;
},
{
place = "{220, 70}";
type = Stem;
},
{
horizontal = 1;
place = "{-15, 60}";
type = Stem;
},
{
horizontal = 1;
place = "{650, -20}";
target = down;
type = TopGhost;
}
);
layerId = UUID0;
paths = (
{
closed = 1;
nodes = (
"220 650 LINE",
"220 111 LINE SMOOTH",
"220 65 OFFCURVE",
"195 45 OFFCURVE",
"154 45 CURVE SMOOTH",
"114 45 OFFCURVE",
"90 65 OFFCURVE",
"90 111 CURVE SMOOTH",
"90 180 LINE",
"20 180 LINE",
"20 115 LINE SMOOTH",
"20 28 OFFCURVE",
"71 -15 OFFCURVE",
"154 -15 CURVE SMOOTH",
"237 -15 OFFCURVE",
"290 28 OFFCURVE",
"290 115 CURVE SMOOTH",
"290 650 LINE"
);
}
);
width = 380;
}
);
leftKerningGroup = j;
unicode = 0237;
},
{
glyphname = k;
layers = (
{
anchors = (
{
name = bottom;
position = "{248, 0}";
},
{
name = top;
position = "{228, 650}";
}
);
hints = (
{
place = "{101, 70}";
type = Stem;
},
{
horizontal = 1;
place = "{0, 21}";
target = up;
type = BottomGhost;
},
{
horizontal = 1;
place = "{650, -20}";
target = down;
type = TopGhost;
}
);
layerId = UUID0;
paths = (
{
closed = 1;
nodes = (
"171 0 LINE",
"171 250 LINE",
"204 303 LINE",
"358 0 LINE",
"435 0 LINE",
"246 370 LINE",
"423 650 LINE",
"345 650 LINE",
"171 374 LINE",
"171 650 LINE",
"101 650 LINE",
"101 0 LINE"
);
}
);
width = 455;
}
);
unicode = 006B;
},
{
glyphname = kgreenlandic;
layers = (
{
hints = (
{
place = "{101, 70}";
type = Stem;
},
{
horizontal = 1;
place = "{0, 21}";
target = up;
type = BottomGhost;
},
{
horizontal = 1;
place = "{650, -20}";
target = down;
type = TopGhost;
}
);
layerId = UUID0;
paths = (
{
closed = 1;
nodes = (
"171 0 LINE",
"171 250 LINE",
"204 303 LINE",
"358 0 LINE",
"435 0 LINE",
"246 370 LINE",
"423 650 LINE",
"345 650 LINE",
"171 374 LINE",
"171 650 LINE",
"101 650 LINE",
"101 0 LINE"
);
}
);
width = 455;
}
);
unicode = 0138;
},
{
glyphname = l;
layers = (
{
anchors = (
{
name = bottom;
position = "{234, 0}";
},
{
name = center;
position = "{170, 325}";
},
{
name = top;
position = "{135, 650}";
},
{
name = topright;
position = "{283, 530}";
}
);
hints = (
{
place = "{100, 70}";
type = Stem;
},
{
horizontal = 1;
place = "{0, 60}";
type = Stem;
},
{
horizontal = 1;
place = "{650, -20}";
target = down;
type = TopGhost;
}
);
layerId = UUID0;
paths = (
{
closed = 1;
nodes = (
"100 0 LINE",
"353 0 LINE",
"353 60 LINE",
"170 60 LINE",
"170 650 LINE",
"100 650 LINE"
);
}
);
width = 373;
}
);
leftKerningGroup = L;
leftMetricsKey = H;
rightKerningGroup = L;
unicode = 006C;
},
{
glyphname = m;
layers = (
{
anchors = (
{
name = bottom;
position = "{385, 0}";
},
{
name = top;
position = "{385, 650}";
}
);
hints = (
{
place = "{100, 70}";
type = Stem;
},
{
place = "{355, 70}";
type = Stem;
},
{
place = "{610, 70}";
type = Stem;
},
{
horizontal = 1;
place = "{605, 60}";
type = Stem;
},
{
horizontal = 1;
place = "{0, 21}";
target = up;
type = BottomGhost;
},
{
horizontal = 1;
place = "{650, -20}";
target = down;
type = TopGhost;
}
);
layerId = UUID0;
paths = (
{
closed = 1;
nodes = (
"170 0 LINE",
"170 508 LINE SMOOTH",
"170 548 OFFCURVE",
"225 605 OFFCURVE",
"283 605 CURVE SMOOTH",
"341 605 OFFCURVE",
"355 570 OFFCURVE",
"355 525 CURVE SMOOTH",
"355 0 LINE",
"425 0 LINE",
"425 505 LINE SMOOTH",
"425 545 OFFCURVE",
"479 605 OFFCURVE",
"538 605 CURVE SMOOTH",
"596 605 OFFCURVE",
"610 570 OFFCURVE",
"610 525 CURVE SMOOTH",
"610 0 LINE",
"680 0 LINE",
"680 525 LINE SMOOTH",
"680 604 OFFCURVE",
"644 665 OFFCURVE",
"539 665 CURVE SMOOTH",
"486 665 OFFCURVE",
"441 635 OFFCURVE",
"413 592 CURVE",
"396 636 OFFCURVE",
"356 665 OFFCURVE",
"284 665 CURVE SMOOTH",
"229 665 OFFCURVE",
"182 632 OFFCURVE",
"155 586 CURVE",
"130 650 LINE",
"100 650 LINE",
"100 0 LINE"
);
}
);
width = 770;
}
);
unicode = 006D;
},
{
glyphname = n;
layers = (
{
anchors = (
{
name = bottom;
position = "{263, 0}";
},
{
name = top;
position = "{263, 650}";
}
);
hints = (
{
place = "{100, 70}";
type = Stem;
},
{
place = "{365, 70}";
type = Stem;
},
{
horizontal = 1;
place = "{605, 60}";
type = Stem;
},
{
horizontal = 1;
place = "{0, 21}";
target = up;
type = BottomGhost;
},
{
horizontal = 1;
place = "{650, -20}";
target = down;
type = TopGhost;
}
);
layerId = UUID0;
paths = (
{
closed = 1;
nodes = (
"170 0 LINE",
"170 505 LINE SMOOTH",
"170 545 OFFCURVE",
"226 605 OFFCURVE",
"289 605 CURVE SMOOTH",
"351 605 OFFCURVE",
"365 570 OFFCURVE",
"365 525 CURVE SMOOTH",
"365 0 LINE",
"435 0 LINE",
"435 525 LINE SMOOTH",
"435 604 OFFCURVE",
"397 665 OFFCURVE",
"288 665 CURVE SMOOTH",
"231 665 OFFCURVE",
"183 632 OFFCURVE",
"155 585 CURVE",
"130 650 LINE",
"100 650 LINE",
"100 0 LINE"
);
}
);
width = 525;
}
);
unicode = 006E;
},
{
glyphname = eng;
layers = (
{
layerId = UUID0;
paths = (
{
closed = 1;
nodes = (
"170 0 LINE",
"170 505 LINE SMOOTH",
"170 545 OFFCURVE",
"226 605 OFFCURVE",
"289 605 CURVE SMOOTH",
"351 605 OFFCURVE",
"365 570 OFFCURVE",
"365 525 CURVE SMOOTH",
"365 -139 LINE SMOOTH",
"365 -185 OFFCURVE",
"340 -205 OFFCURVE",
"299 -205 CURVE SMOOTH",
"259 -205 OFFCURVE",
"235 -185 OFFCURVE",
"235 -139 CURVE SMOOTH",
"235 -110 LINE",
"165 -110 LINE",
"165 -135 LINE SMOOTH",
"165 -222 OFFCURVE",
"216 -265 OFFCURVE",
"299 -265 CURVE SMOOTH",
"382 -265 OFFCURVE",
"435 -222 OFFCURVE",
"435 -135 CURVE SMOOTH",
"435 525 LINE SMOOTH",
"435 604 OFFCURVE",
"397 665 OFFCURVE",
"288 665 CURVE SMOOTH",
"231 665 OFFCURVE",
"183 632 OFFCURVE",
"155 585 CURVE",
"130 650 LINE",
"100 650 LINE",
"100 0 LINE"
);
}
);
width = 525;
}
);
unicode = 014B;
},
{
glyphname = o;
layers = (
{
anchors = (
{
name = bottom;
position = "{255, 0}";
},
{
name = center;
position = "{255, 325}";
},
{
name = ogonek;
position = "{332, 0}";
},
{
name = top;
position = "{255, 650}";
},
{
name = topright;
position = "{344, 650}";
}
);
hints = (
{
place = "{85, 70}";
type = Stem;
},
{
place = "{355, 70}";
type = Stem;
},
{
horizontal = 1;
place = "{-15, 60}";
type = Stem;
},
{
horizontal = 1;
place = "{605, 60}";
type = Stem;
}
);
layerId = UUID0;
paths = (
{
closed = 1;
nodes = (
"425 525 LINE SMOOTH",
"425 612 OFFCURVE",
"369 665 OFFCURVE",
"254 665 CURVE SMOOTH",
"139 665 OFFCURVE",
"85 612 OFFCURVE",
"85 525 CURVE SMOOTH",
"85 125 LINE SMOOTH",
"85 38 OFFCURVE",
"141 -15 OFFCURVE",
"256 -15 CURVE SMOOTH",
"371 -15 OFFCURVE",
"425 38 OFFCURVE",
"425 125 CURVE SMOOTH"
);
},
{
closed = 1;
nodes = (
"355 125 LINE SMOOTH",
"355 75 OFFCURVE",
"323 45 OFFCURVE",
"256 45 CURVE SMOOTH",
"188 45 OFFCURVE",
"155 75 OFFCURVE",
"155 125 CURVE SMOOTH",
"155 525 LINE SMOOTH",
"155 575 OFFCURVE",
"187 605 OFFCURVE",
"254 605 CURVE SMOOTH",
"322 605 OFFCURVE",
"355 575 OFFCURVE",
"355 525 CURVE SMOOTH"
);
}
);
width = 510;
}
);
unicode = 006F;
},
{
glyphname = oe;
layers = (
{
hints = (
{
place = "{85, 70}";
type = Stem;
},
{
place = "{355, 70}";
type = Stem;
},
{
place = "{615, 70}";
type = Stem;
},
{
horizontal = 1;
place = "{-15, 60}";
type = Stem;
},
{
horizontal = 1;
place = "{305, 60}";
type = Stem;
},
{
horizontal = 1;
place = "{605, 60}";
type = Stem;
}
);
layerId = UUID0;
paths = (
{
closed = 1;
nodes = (
"615 125 LINE SMOOTH",
"615 75 OFFCURVE",
"585 45 OFFCURVE",
"521 45 CURVE SMOOTH",
"456 45 OFFCURVE",
"425 75 OFFCURVE",
"425 125 CURVE SMOOTH",
"425 305 LINE",
"685 305 LINE",
"685 525 LINE SMOOTH",
"685 612 OFFCURVE",
"631 665 OFFCURVE",
"519 665 CURVE SMOOTH",
"452 665 OFFCURVE",
"412 646 OFFCURVE",
"389 612 CURVE",
"365 646 OFFCURVE",
"323 665 OFFCURVE",
"254 665 CURVE SMOOTH",
"139 665 OFFCURVE",
"85 612 OFFCURVE",
"85 525 CURVE SMOOTH",
"85 125 LINE SMOOTH",
"85 38 OFFCURVE",
"141 -15 OFFCURVE",
"256 -15 CURVE SMOOTH",
"324 -15 OFFCURVE",
"366 4 OFFCURVE",
"390 37 CURVE",
"414 4 OFFCURVE",
"454 -15 OFFCURVE",
"521 -15 CURVE SMOOTH",
"633 -15 OFFCURVE",
"685 38 OFFCURVE",
"685 125 CURVE SMOOTH",
"685 180 LINE",
"615 180 LINE"
);
},
{
closed = 1;
nodes = (
"355 125 LINE SMOOTH",
"355 75 OFFCURVE",
"323 45 OFFCURVE",
"256 45 CURVE SMOOTH",
"188 45 OFFCURVE",
"155 75 OFFCURVE",
"155 125 CURVE SMOOTH",
"155 525 LINE SMOOTH",
"155 575 OFFCURVE",
"187 605 OFFCURVE",
"254 605 CURVE SMOOTH",
"322 605 OFFCURVE",
"355 575 OFFCURVE",
"355 525 CURVE SMOOTH"
);
},
{
closed = 1;
nodes = (
"425 525 LINE SMOOTH",
"425 575 OFFCURVE",
"455 605 OFFCURVE",
"519 605 CURVE SMOOTH",
"584 605 OFFCURVE",
"615 575 OFFCURVE",
"615 525 CURVE SMOOTH",
"615 365 LINE",
"425 365 LINE"
);
}
);
width = 770;
}
);
unicode = 0153;
},
{
glyphname = p;
layers = (
{
anchors = (
{
name = bottom;
position = "{240, 0}";
},
{
name = top;
position = "{240, 650}";
}
);
hints = (
{
horizontal = 1;
origin = "{0, 11}";
target = up;
type = BottomGhost;
},
{
horizontal = 1;
origin = "{0, 1}";
target = "{1, 4}";
type = Stem;
},
{
horizontal = 1;
origin = "{0, 10}";
target = "{1, 5}";
type = Stem;
},
{
origin = "{0, 11}";
target = "{0, 0}";
type = Stem;
},
{
origin = "{1, 0}";
target = "{0, 5}";
type = Stem;
}
);
layerId = UUID0;
paths = (
{
closed = 1;
nodes = (
"170 0 LINE",
"170 200 LINE",
"251 200 LINE SMOOTH",
"359 200 OFFCURVE",
"410 253 OFFCURVE",
"410 340 CURVE SMOOTH",
"410 510 LINE SMOOTH",
"410 596 OFFCURVE",
"357 650 OFFCURVE",
"251 650 CURVE SMOOTH",
"100 650 LINE",
"100 0 LINE"
);
},
{
closed = 1;
nodes = (
"340 340 LINE SMOOTH",
"340 290 OFFCURVE",
"311 260 OFFCURVE",
"251 260 CURVE SMOOTH",
"170 260 LINE",
"170 590 LINE",
"251 590 LINE SMOOTH",
"310 590 OFFCURVE",
"340 559 OFFCURVE",
"340 510 CURVE SMOOTH"
);
}
);
width = 470;
}
);
leftMetricsKey = H;
rightKerningGroup = P;
unicode = 0070;
},
{
glyphname = thorn;
layers = (
{
hints = (
{
horizontal = 1;
origin = "{1, 3}";
target = "{0, 4}";
type = Stem;
},
{
horizontal = 1;
origin = "{0, 15}";
target = "{0, 14}";
type = Stem;
},
{
horizontal = 1;
origin = "{1, 2}";
target = "{0, 15}";
type = Stem;
},
{
horizontal = 1;
origin = "{0, 4}";
target = "{0, 5}";
type = Stem;
},
{
origin = "{1, 3}";
target = "{1, 0}";
type = Stem;
},
{
origin = "{0, 0}";
target = "{0, 9}";
type = Stem;
}
);
layerId = UUID0;
paths = (
{
closed = 1;
nodes = (
"340 240 LINE SMOOTH",
"340 190 OFFCURVE",
"311 160 OFFCURVE",
"251 160 CURVE SMOOTH",
"170 160 LINE",
"170 100 LINE",
"251 100 LINE SMOOTH",
"359 100 OFFCURVE",
"410 153 OFFCURVE",
"410 240 CURVE SMOOTH",
"410 410 LINE SMOOTH",
"410 496 OFFCURVE",
"357 550 OFFCURVE",
"251 550 CURVE SMOOTH",
"170 550 LINE",
"170 490 LINE",
"251 490 LINE SMOOTH",
"310 490 OFFCURVE",
"340 459 OFFCURVE",
"340 410 CURVE SMOOTH"
);
},
{
closed = 1;
nodes = (
"170 0 LINE",
"170 650 LINE",
"100 650 LINE",
"100 0 LINE"
);
}
);
width = 470;
}
);
leftMetricsKey = H;
unicode = 00FE;
},
{
glyphname = q;
layers = (
{
anchors = (
{
name = bottom;
position = "{255, 0}";
},
{
name = top;
position = "{255, 650}";
}
);
hints = (
{
place = "{85, 70}";
type = Stem;
},
{
place = "{355, 70}";
type = Stem;
},
{
horizontal = 1;
place = "{-15, 60}";
type = Stem;
},
{
horizontal = 1;
place = "{605, 60}";
type = Stem;
},
{
horizontal = 1;
place = "{-63, 21}";
target = up;
type = BottomGhost;
}
);
layerId = UUID0;
paths = (
{
closed = 1;
nodes = (
"425 525 LINE SMOOTH",
"425 612 OFFCURVE",
"369 665 OFFCURVE",
"254 665 CURVE SMOOTH",
"139 665 OFFCURVE",
"85 612 OFFCURVE",
"85 525 CURVE SMOOTH",
"85 125 LINE SMOOTH",
"85 38 OFFCURVE",
"141 -15 OFFCURVE",
"256 -15 CURVE",
"499 -63 LINE",
"510 -10 LINE",
"365 18 LINE",
"405 40 OFFCURVE",
"425 77 OFFCURVE",
"425 125 CURVE SMOOTH"
);
},
{
closed = 1;
nodes = (
"355 125 LINE SMOOTH",
"355 75 OFFCURVE",
"323 45 OFFCURVE",
"256 45 CURVE SMOOTH",
"188 45 OFFCURVE",
"155 75 OFFCURVE",
"155 125 CURVE SMOOTH",
"155 525 LINE SMOOTH",
"155 575 OFFCURVE",
"187 605 OFFCURVE",
"254 605 CURVE SMOOTH",
"322 605 OFFCURVE",
"355 575 OFFCURVE",
"355 525 CURVE SMOOTH"
);
}
);
width = 510;
}
);
leftMetricsKey = O;
unicode = 0071;
},
{
glyphname = r;
layers = (
{
anchors = (
{
name = bottom;
position = "{135, 0}";
},
{
name = top;
position = "{240, 650}";
}
);
hints = (
{
place = "{100, 70}";
type = Stem;
},
{
place = "{313, 67}";
type = Stem;
},
{
horizontal = 1;
place = "{605, 60}";
type = Stem;
},
{
horizontal = 1;
place = "{0, 21}";
target = up;
type = BottomGhost;
},
{
horizontal = 1;
place = "{650, -20}";
target = down;
type = TopGhost;
}
);
layerId = UUID0;
paths = (
{
closed = 1;
nodes = (
"170 0 LINE",
"170 457 LINE SMOOTH",
"170 562 OFFCURVE",
"220 605 OFFCURVE",
"258 605 CURVE SMOOTH",
"296 605 OFFCURVE",
"313 578 OFFCURVE",
"313 539 CURVE SMOOTH",
"313 470 LINE",
"380 470 LINE",
"380 535 LINE SMOOTH",
"380 622 OFFCURVE",
"338 665 OFFCURVE",
"261 665 CURVE SMOOTH",
"208 665 OFFCURVE",
"177 626 OFFCURVE",
"159 576 CURVE",
"130 650 LINE",
"100 650 LINE",
"100 0 LINE"
);
}
);
width = 400;
}
);
rightKerningGroup = r;
unicode = 0072;
},
{
glyphname = s;
layers = (
{
anchors = (
{
name = bottom;
position = "{249, 0}";
},
{
name = top;
position = "{249, 650}";
}
);
hints = (
{
horizontal = 1;
origin = "{0, 37}";
target = "{0, 28}";
type = Stem;
},
{
horizontal = 1;
origin = "{0, 15}";
target = "{0, 6}";
type = Stem;
},
{
origin = "{0, 34}";
target = "{0, 31}";
type = Stem;
},
{
origin = "{0, 25}";
target = "{0, 40}";
type = Stem;
},
{
origin = "{0, 10}";
target = "{0, 11}";
type = Stem;
}
);
layerId = UUID0;
paths = (
{
closed = 1;
nodes = (
"188 433 LINE SMOOTH",
"154 464 OFFCURVE",
"150 487 OFFCURVE",
"150 529 CURVE SMOOTH",
"150 575 OFFCURVE",
"180 605 OFFCURVE",
"244 605 CURVE SMOOTH",
"308 605 OFFCURVE",
"338 575 OFFCURVE",
"338 529 CURVE SMOOTH",
"338 440 LINE",
"408 440 LINE",
"408 525 LINE SMOOTH",
"408 612 OFFCURVE",
"359 665 OFFCURVE",
"247 665 CURVE SMOOTH",
"133 665 OFFCURVE",
"80 612 OFFCURVE",
"80 525 CURVE SMOOTH",
"80 467 OFFCURVE",
"92 432 OFFCURVE",
"134 390 CURVE SMOOTH",
"310 218 LINE SMOOTH",
"343 186 OFFCURVE",
"348 162 OFFCURVE",
"348 121 CURVE SMOOTH",
"348 75 OFFCURVE",
"316 45 OFFCURVE",
"249 45 CURVE SMOOTH",
"182 45 OFFCURVE",
"150 75 OFFCURVE",
"150 121 CURVE SMOOTH",
"150 210 LINE",
"80 210 LINE",
"80 125 LINE SMOOTH",
"80 38 OFFCURVE",
"131 -15 OFFCURVE",
"249 -15 CURVE SMOOTH",
"367 -15 OFFCURVE",
"418 38 OFFCURVE",
"418 125 CURVE SMOOTH",
"418 184 OFFCURVE",
"407 218 OFFCURVE",
"367 261 CURVE SMOOTH"
);
}
);
width = 498;
}
);
unicode = 0073;
},
{
glyphname = germandbls;
layers = (
{
hints = (
{
place = "{100, 70}";
type = Stem;
},
{
place = "{368, 70}";
type = Stem;
},
{
horizontal = 1;
place = "{0, 60}";
type = Stem;
},
{
horizontal = 1;
place = "{300, 50}";
type = Stem;
},
{
horizontal = 1;
place = "{605, 60}";
type = Stem;
}
);
layerId = UUID0;
paths = (
{
closed = 1;
nodes = (
"220 0 LINE",
"269 0 LINE SMOOTH",
"387 0 OFFCURVE",
"438 53 OFFCURVE",
"438 140 CURVE SMOOTH",
"438 215 LINE SMOOTH",
"438 301 OFFCURVE",
"385 335 OFFCURVE",
"279 335 CURVE SMOOTH",
"248 335 LINE",
"248 300 LINE",
"279 300 LINE SMOOTH",
"338 300 OFFCURVE",
"368 254 OFFCURVE",
"368 215 CURVE SMOOTH",
"368 136 LINE SMOOTH",
"368 90 OFFCURVE",
"336 60 OFFCURVE",
"269 60 CURVE SMOOTH",
"220 60 LINE"
);
},
{
closed = 1;
nodes = (
"428 525 LINE SMOOTH",
"428 612 OFFCURVE",
"375 665 OFFCURVE",
"261 665 CURVE SMOOTH",
"149 665 OFFCURVE",
"100 612 OFFCURVE",
"100 525 CURVE SMOOTH",
"100 0 LINE",
"170 0 LINE",
"170 529 LINE SMOOTH",
"170 575 OFFCURVE",
"200 605 OFFCURVE",
"264 605 CURVE SMOOTH",
"328 605 OFFCURVE",
"358 575 OFFCURVE",
"358 529 CURVE SMOOTH",
"358 435 LINE SMOOTH",
"358 395 OFFCURVE",
"329 350 OFFCURVE",
"269 350 CURVE SMOOTH",
"248 350 LINE",
"248 315 LINE",
"269 315 LINE SMOOTH",
"377 315 OFFCURVE",
"428 348 OFFCURVE",
"428 435 CURVE SMOOTH"
);
}
);
width = 523;
}
);
unicode = 00DF;
},
{
glyphname = t;
layers = (
{
anchors = (
{
name = bottom;
position = "{223, 0}";
},
{
name = center;
position = "{125, 375}";
},
{
name = top;
position = "{193, 650}";
},
{
name = topright;
position = "{379, 540}";
}
);
hints = (
{
place = "{85, 70}";
type = Stem;
},
{
place = "{265, 70}";
type = Stem;
},
{
horizontal = 1;
place = "{-15, 60}";
type = Stem;
},
{
horizontal = 1;
place = "{590, 60}";
type = Stem;
}
);
layerId = UUID0;
paths = (
{
closed = 1;
nodes = (
"90 650 LINE",
"90 115 LINE SMOOTH",
"90 28 OFFCURVE",
"143 -15 OFFCURVE",
"216 -15 CURVE SMOOTH",
"289 -15 OFFCURVE",
"340 28 OFFCURVE",
"340 115 CURVE SMOOTH",
"340 230 LINE",
"270 230 LINE",
"270 111 LINE SMOOTH",
"270 75 OFFCURVE",
"252 45 OFFCURVE",
"216 45 CURVE SMOOTH",
"179 45 OFFCURVE",
"160 75 OFFCURVE",
"160 111 CURVE SMOOTH",
"160 590 LINE",
"310 590 LINE",
"310 650 LINE"
);
}
);
width = 380;
}
);
unicode = 0074;
},
{
glyphname = u;
layers = (
{
anchors = (
{
name = bottom;
position = "{263, 0}";
},
{
name = ogonek;
position = "{425, 0}";
},
{
name = top;
position = "{263, 650}";
},
{
name = topright;
position = "{390, 650}";
}
);
hints = (
{
place = "{90, 70}";
type = Stem;
},
{
place = "{355, 70}";
type = Stem;
},
{
horizontal = 1;
place = "{-15, 60}";
type = Stem;
},
{
horizontal = 1;
place = "{0, 21}";
target = up;
type = BottomGhost;
},
{
horizontal = 1;
place = "{650, -20}";
target = down;
type = TopGhost;
}
);
layerId = UUID0;
paths = (
{
closed = 1;
nodes = (
"90 125 LINE SMOOTH",
"90 46 OFFCURVE",
"128 -15 OFFCURVE",
"237 -15 CURVE SMOOTH",
"293 -15 OFFCURVE",
"341 18 OFFCURVE",
"369 64 CURVE",
"395 0 LINE",
"425 0 LINE",
"425 650 LINE",
"355 650 LINE",
"355 145 LINE SMOOTH",
"355 105 OFFCURVE",
"299 45 OFFCURVE",
"236 45 CURVE SMOOTH",
"174 45 OFFCURVE",
"160 80 OFFCURVE",
"160 125 CURVE SMOOTH",
"160 650 LINE",
"90 650 LINE"
);
}
);
width = 525;
}
);
unicode = 0075;
},
{
glyphname = v;
layers = (
{
anchors = (
{
name = bottom;
position = "{240, 0}";
},
{
name = top;
position = "{240, 650}";
}
);
hints = (
{
horizontal = 1;
place = "{0, 21}";
target = up;
type = BottomGhost;
},
{
horizontal = 1;
place = "{650, -20}";
target = down;
type = TopGhost;
}
);
layerId = UUID0;
paths = (
{
closed = 1;
nodes = (
"292 0 LINE",
"439 650 LINE",
"369 650 LINE",
"239 77 LINE",
"110 650 LINE",
"40 650 LINE",
"187 0 LINE"
);
}
);
width = 479;
}
);
leftKerningGroup = V;
rightKerningGroup = V;
unicode = 0076;
},
{
glyphname = w;
layers = (
{
anchors = (
{
name = bottom;
position = "{380, 0}";
},
{
name = top;
position = "{380, 650}";
}
);
hints = (
{
place = "{90, 70}";
type = Stem;
},
{
place = "{345, 70}";
type = Stem;
},
{
place = "{600, 70}";
type = Stem;
},
{
horizontal = 1;
place = "{-15, 60}";
type = Stem;
},
{
horizontal = 1;
place = "{650, -20}";
target = down;
type = TopGhost;
}
);
layerId = UUID0;
paths = (
{
closed = 1;
nodes = (
"345 125 LINE SMOOTH",
"345 75 OFFCURVE",
"315 45 OFFCURVE",
"253 45 CURVE SMOOTH",
"191 45 OFFCURVE",
"160 75 OFFCURVE",
"160 125 CURVE SMOOTH",
"160 650 LINE",
"90 650 LINE",
"90 125 LINE SMOOTH",
"90 38 OFFCURVE",
"146 -15 OFFCURVE",
"253 -15 CURVE SMOOTH",
"313 -15 OFFCURVE",
"356 7 OFFCURVE",
"380 43 CURVE",
"405 8 OFFCURVE",
"446 -15 OFFCURVE",
"507 -15 CURVE SMOOTH",
"614 -15 OFFCURVE",
"670 38 OFFCURVE",
"670 125 CURVE SMOOTH",
"670 650 LINE",
"600 650 LINE",
"600 125 LINE SMOOTH",
"600 75 OFFCURVE",
"569 45 OFFCURVE",
"507 45 CURVE SMOOTH",
"445 45 OFFCURVE",
"415 75 OFFCURVE",
"415 125 CURVE SMOOTH",
"415 650 LINE",
"345 650 LINE"
);
}
);
width = 760;
}
);
unicode = 0077;
},
{
glyphname = x;
layers = (
{
anchors = (
{
name = bottom;
position = "{226, 0}";
},
{
name = top;
position = "{226, 650}";
}
);
hints = (
{
horizontal = 1;
place = "{0, 21}";
target = up;
type = BottomGhost;
},
{
horizontal = 1;
place = "{650, -20}";
target = down;
type = TopGhost;
}
);
layerId = UUID0;
paths = (
{
closed = 1;
nodes = (
"412 0 LINE",
"267 326 LINE",
"412 650 LINE",
"339 650 LINE",
"230 408 LINE",
"123 650 LINE",
"50 650 LINE",
"190 335 LINE",
"40 0 LINE",
"113 0 LINE",
"226 253 LINE",
"339 0 LINE"
);
}
);
width = 452;
}
);
unicode = 0078;
},
{
glyphname = y;
layers = (
{
anchors = (
{
name = bottom;
position = "{236, 0}";
},
{
name = top;
position = "{236, 650}";
}
);
hints = (
{
place = "{65, 70}";
type = Stem;
},
{
place = "{201, 70}";
type = Stem;
},
{
place = "{335, 70}";
type = Stem;
},
{
horizontal = 1;
place = "{0, 21}";
target = up;
type = BottomGhost;
},
{
horizontal = 1;
place = "{650, -20}";
target = down;
type = TopGhost;
}
);
layerId = UUID0;
paths = (
{
closed = 1;
nodes = (
"271 0 LINE",
"271 184 LINE",
"362 194 OFFCURVE",
"405 244 OFFCURVE",
"405 322 CURVE SMOOTH",
"405 650 LINE",
"335 650 LINE",
"335 322 LINE SMOOTH",
"335 272 OFFCURVE",
"303 242 OFFCURVE",
"236 242 CURVE SMOOTH",
"168 242 OFFCURVE",
"135 272 OFFCURVE",
"135 322 CURVE SMOOTH",
"135 650 LINE",
"65 650 LINE",
"65 322 LINE SMOOTH",
"65 244 OFFCURVE",
"109 194 OFFCURVE",
"201 184 CURVE",
"201 0 LINE"
);
}
);
width = 470;
}
);
leftKerningGroup = y;
rightKerningGroup = y;
unicode = 0079;
},
{
glyphname = z;
layers = (
{
anchors = (
{
name = bottom;
position = "{209, 0}";
},
{
name = top;
position = "{209, 650}";
}
);
hints = (
{
horizontal = 1;
place = "{0, 60}";
type = Stem;
},
{
horizontal = 1;
place = "{590, 60}";
type = Stem;
}
);
layerId = UUID0;
paths = (
{
closed = 1;
nodes = (
"50 590 LINE",
"304 590 LINE",
"35 60 LINE",
"35 0 LINE",
"372 0 LINE",
"372 60 LINE",
"108 60 LINE",
"377 590 LINE",
"377 650 LINE",
"50 650 LINE"
);
}
);
width = 417;
}
);
unicode = 007A;
},
{
glyphname = ordfeminine;
layers = (
{
hints = (
{
place = "{85, 47}";
type = Stem;
},
{
place = "{207, 47}";
type = Stem;
},
{
horizontal = 1;
place = "{390, 43}";
type = Stem;
},
{
horizontal = 1;
place = "{517, 41}";
type = Stem;
},
{
horizontal = 1;
place = "{653, 42}";
type = Stem;
}
);
layerId = UUID0;
paths = (
{
closed = 1;
nodes = (
"254 398 LINE",
"254 620 LINE SMOOTH",
"254 667 OFFCURVE",
"226 695 OFFCURVE",
"169 695 CURVE SMOOTH",
"111 695 OFFCURVE",
"85 667 OFFCURVE",
"85 620 CURVE SMOOTH",
"85 597 LINE",
"132 597 LINE",
"132 622 LINE SMOOTH",
"132 641 OFFCURVE",
"144 653 OFFCURVE",
"169 653 CURVE SMOOTH",
"194 653 OFFCURVE",
"207 641 OFFCURVE",
"207 622 CURVE SMOOTH",
"207 558 LINE",
"157 558 LINE SMOOTH",
"99 558 OFFCURVE",
"80 526 OFFCURVE",
"80 483 CURVE SMOOTH",
"80 465 LINE SMOOTH",
"80 423 OFFCURVE",
"99 390 OFFCURVE",
"157 390 CURVE SMOOTH",
"182 390 OFFCURVE",
"204 406 OFFCURVE",
"219 430 CURVE",
"238 398 LINE"
);
},
{
closed = 1;
nodes = (
"133 433 OFFCURVE",
"128 448 OFFCURVE",
"128 465 CURVE SMOOTH",
"128 485 LINE SMOOTH",
"128 504 OFFCURVE",
"133 517 OFFCURVE",
"157 517 CURVE SMOOTH",
"207 517 LINE",
"207 473 LINE SMOOTH",
"207 456 OFFCURVE",
"182 433 OFFCURVE",
"157 433 CURVE SMOOTH"
);
}
);
width = 344;
}
);
unicode = 00AA;
},
{
glyphname = ordmasculine;
layers = (
{
hints = (
{
place = "{85, 48}";
type = Stem;
},
{
place = "{216, 48}";
type = Stem;
},
{
horizontal = 1;
place = "{391, 43}";
type = Stem;
},
{
horizontal = 1;
place = "{654, 42}";
type = Stem;
}
);
layerId = UUID0;
paths = (
{
closed = 1;
nodes = (
"264 621 LINE SMOOTH",
"264 668 OFFCURVE",
"235 696 OFFCURVE",
"175 696 CURVE SMOOTH",
"113 696 OFFCURVE",
"85 668 OFFCURVE",
"85 621 CURVE SMOOTH",
"85 466 LINE SMOOTH",
"85 420 OFFCURVE",
"114 391 OFFCURVE",
"176 391 CURVE SMOOTH",
"236 391 OFFCURVE",
"264 420 OFFCURVE",
"264 466 CURVE SMOOTH"
);
},
{
closed = 1;
nodes = (
"216 466 LINE SMOOTH",
"216 446 OFFCURVE",
"203 434 OFFCURVE",
"176 434 CURVE SMOOTH",
"147 434 OFFCURVE",
"133 446 OFFCURVE",
"133 466 CURVE SMOOTH",
"133 621 LINE SMOOTH",
"133 642 OFFCURVE",
"146 654 OFFCURVE",
"175 654 CURVE SMOOTH",
"203 654 OFFCURVE",
"216 642 OFFCURVE",
"216 621 CURVE SMOOTH"
);
}
);
width = 349;
}
);
unicode = 00BA;
},
{
glyphname = pi;
layers = (
{
hints = (
{
place = "{130, 70}";
type = Stem;
},
{
place = "{397, 70}";
type = Stem;
},
{
horizontal = 1;
place = "{490, 60}";
type = Stem;
},
{
horizontal = 1;
place = "{0, 21}";
target = up;
type = BottomGhost;
}
);
layerId = UUID0;
paths = (
{
closed = 1;
nodes = (
"200 0 LINE",
"200 590 LINE",
"397 590 LINE",
"397 0 LINE",
"467 0 LINE",
"467 590 LINE",
"527 590 LINE",
"527 650 LINE",
"70 650 LINE",
"70 590 LINE",
"130 590 LINE",
"130 0 LINE"
);
}
);
width = 597;
}
);
unicode = 03C0;
},
{
glyphname = zero;
layers = (
{
hints = (
{
place = "{85, 70}";
type = Stem;
},
{
place = "{355, 70}";
type = Stem;
},
{
horizontal = 1;
place = "{-15, 60}";
type = Stem;
},
{
horizontal = 1;
place = "{605, 60}";
type = Stem;
}
);
layerId = UUID0;
paths = (
{
closed = 1;
nodes = (
"425 525 LINE SMOOTH",
"425 612 OFFCURVE",
"369 665 OFFCURVE",
"254 665 CURVE SMOOTH",
"139 665 OFFCURVE",
"85 612 OFFCURVE",
"85 525 CURVE SMOOTH",
"85 125 LINE SMOOTH",
"85 38 OFFCURVE",
"141 -15 OFFCURVE",
"256 -15 CURVE SMOOTH",
"371 -15 OFFCURVE",
"425 38 OFFCURVE",
"425 125 CURVE SMOOTH"
);
},
{
closed = 1;
nodes = (
"355 125 LINE SMOOTH",
"355 75 OFFCURVE",
"323 45 OFFCURVE",
"256 45 CURVE SMOOTH",
"188 45 OFFCURVE",
"155 75 OFFCURVE",
"155 125 CURVE SMOOTH",
"155 525 LINE SMOOTH",
"155 575 OFFCURVE",
"187 605 OFFCURVE",
"254 605 CURVE SMOOTH",
"322 605 OFFCURVE",
"355 575 OFFCURVE",
"355 525 CURVE SMOOTH"
);
}
);
width = 510;
}
);
unicode = 0030;
},
{
glyphname = one;
layers = (
{
hints = (
{
place = "{236, 70}";
type = Stem;
},
{
horizontal = 1;
place = "{0, 60}";
type = Stem;
},
{
horizontal = 1;
place = "{650, -20}";
target = down;
type = TopGhost;
}
);
layerId = UUID0;
paths = (
{
closed = 1;
nodes = (
"306 0 LINE",
"306 650 LINE",
"236 650 LINE",
"236 0 LINE"
);
},
{
closed = 1;
nodes = (
"236 650 LINE",
"72 555 LINE",
"102 504 LINE",
"266 599 LINE"
);
},
{
closed = 1;
nodes = (
"416 60 LINE",
"126 60 LINE",
"126 0 LINE",
"416 0 LINE"
);
}
);
width = 510;
}
);
unicode = 0031;
},
{
glyphname = two;
layers = (
{
hints = (
{
place = "{100, 70}";
type = Stem;
},
{
place = "{358, 70}";
type = Stem;
},
{
horizontal = 1;
place = "{0, 60}";
type = Stem;
},
{
horizontal = 1;
place = "{605, 60}";
type = Stem;
}
);
layerId = UUID0;
paths = (
{
closed = 1;
nodes = (
"90 0 LINE",
"427 0 LINE",
"427 60 LINE",
"90 60 LINE"
);
},
{
closed = 1;
nodes = (
"90 60 LINE",
"175 60 LINE",
"334 287 LINE SMOOTH",
"396 375 OFFCURVE",
"428 427 OFFCURVE",
"428 475 CURVE SMOOTH",
"428 525 LINE SMOOTH",
"428 612 OFFCURVE",
"375 665 OFFCURVE",
"261 665 CURVE SMOOTH",
"149 665 OFFCURVE",
"100 612 OFFCURVE",
"100 525 CURVE SMOOTH",
"100 440 LINE",
"170 440 LINE",
"170 529 LINE SMOOTH",
"170 575 OFFCURVE",
"200 605 OFFCURVE",
"264 605 CURVE SMOOTH",
"328 605 OFFCURVE",
"358 575 OFFCURVE",
"358 529 CURVE SMOOTH",
"358 475 LINE SMOOTH",
"358 435 OFFCURVE",
"314 378 OFFCURVE",
"280 329 CURVE SMOOTH"
);
}
);
width = 510;
}
);
unicode = 0032;
},
{
glyphname = three;
layers = (
{
hints = (
{
place = "{87, 70}";
type = Stem;
},
{
place = "{355, 70}";
type = Stem;
},
{
horizontal = 1;
place = "{-15, 60}";
type = Stem;
},
{
horizontal = 1;
place = "{300, 50}";
type = Stem;
},
{
horizontal = 1;
place = "{605, 60}";
type = Stem;
}
);
layerId = UUID0;
paths = (
{
closed = 1;
nodes = (
"425 215 LINE SMOOTH",
"425 301 OFFCURVE",
"372 335 OFFCURVE",
"266 335 CURVE SMOOTH",
"165 335 LINE",
"165 300 LINE",
"266 300 LINE SMOOTH",
"325 300 OFFCURVE",
"355 254 OFFCURVE",
"355 215 CURVE SMOOTH",
"355 121 LINE SMOOTH",
"355 75 OFFCURVE",
"323 45 OFFCURVE",
"256 45 CURVE SMOOTH",
"189 45 OFFCURVE",
"157 75 OFFCURVE",
"157 121 CURVE SMOOTH",
"157 210 LINE",
"87 210 LINE",
"87 125 LINE SMOOTH",
"87 38 OFFCURVE",
"138 -15 OFFCURVE",
"256 -15 CURVE SMOOTH",
"374 -15 OFFCURVE",
"425 38 OFFCURVE",
"425 125 CURVE SMOOTH"
);
},
{
closed = 1;
nodes = (
"415 525 LINE SMOOTH",
"415 612 OFFCURVE",
"362 665 OFFCURVE",
"248 665 CURVE SMOOTH",
"136 665 OFFCURVE",
"87 612 OFFCURVE",
"87 525 CURVE SMOOTH",
"87 440 LINE",
"157 440 LINE",
"157 529 LINE SMOOTH",
"157 575 OFFCURVE",
"187 605 OFFCURVE",
"251 605 CURVE SMOOTH",
"315 605 OFFCURVE",
"345 575 OFFCURVE",
"345 529 CURVE SMOOTH",
"345 435 LINE SMOOTH",
"345 395 OFFCURVE",
"316 350 OFFCURVE",
"256 350 CURVE SMOOTH",
"165 350 LINE",
"165 315 LINE",
"256 315 LINE SMOOTH",
"364 315 OFFCURVE",
"415 348 OFFCURVE",
"415 435 CURVE SMOOTH"
);
}
);
width = 510;
}
);
unicode = 0033;
},
{
glyphname = four;
layers = (
{
hints = (
{
place = "{296, 70}";
type = Stem;
},
{
horizontal = 1;
place = "{150, 60}";
type = Stem;
},
{
horizontal = 1;
place = "{650, -20}";
target = down;
type = TopGhost;
},
{
horizontal = 1;
place = "{0, 21}";
target = up;
type = BottomGhost;
}
);
layerId = UUID0;
paths = (
{
closed = 1;
nodes = (
"416 210 LINE",
"31 210 LINE",
"31 150 LINE",
"416 150 LINE"
);
},
{
closed = 1;
nodes = (
"296 650 LINE",
"31 210 LINE",
"101 210 LINE",
"366 650 LINE"
);
},
{
closed = 1;
nodes = (
"366 0 LINE",
"366 650 LINE",
"296 650 LINE",
"296 0 LINE"
);
}
);
width = 510;
}
);
unicode = 0034;
},
{
glyphname = five;
layers = (
{
hints = (
{
place = "{97, 70}";
type = Stem;
},
{
place = "{355, 70}";
type = Stem;
},
{
horizontal = 1;
place = "{-15, 60}";
type = Stem;
},
{
horizontal = 1;
place = "{330, 60}";
type = Stem;
},
{
horizontal = 1;
place = "{590, 60}";
type = Stem;
}
);
layerId = UUID0;
paths = (
{
closed = 1;
nodes = (
"425 245 LINE SMOOTH",
"425 331 OFFCURVE",
"372 390 OFFCURVE",
"266 390 CURVE SMOOTH",
"167 390 LINE",
"167 330 LINE",
"266 330 LINE SMOOTH",
"325 330 OFFCURVE",
"355 284 OFFCURVE",
"355 245 CURVE SMOOTH",
"355 121 LINE SMOOTH",
"355 75 OFFCURVE",
"323 45 OFFCURVE",
"256 45 CURVE SMOOTH",
"189 45 OFFCURVE",
"157 75 OFFCURVE",
"157 121 CURVE SMOOTH",
"157 210 LINE",
"87 210 LINE",
"87 125 LINE SMOOTH",
"87 38 OFFCURVE",
"138 -15 OFFCURVE",
"256 -15 CURVE SMOOTH",
"374 -15 OFFCURVE",
"425 38 OFFCURVE",
"425 125 CURVE SMOOTH"
);
},
{
closed = 1;
nodes = (
"97 650 LINE",
"97 330 LINE",
"167 330 LINE",
"167 650 LINE"
);
},
{
closed = 1;
nodes = (
"167 590 LINE",
"415 590 LINE",
"415 650 LINE",
"167 650 LINE"
);
}
);
width = 510;
}
);
unicode = 0035;
},
{
glyphname = six;
layers = (
{
hints = (
{
place = "{85, 70}";
type = Stem;
},
{
place = "{115, 40}";
type = Stem;
},
{
place = "{355, 70}";
type = Stem;
},
{
horizontal = 1;
place = "{-15, 60}";
type = Stem;
},
{
horizontal = 1;
place = "{325, 60}";
type = Stem;
},
{
horizontal = 1;
place = "{605, 60}";
type = Stem;
}
);
layerId = UUID0;
paths = (
{
closed = 1;
nodes = (
"85 125 LINE SMOOTH",
"85 38 OFFCURVE",
"141 -15 OFFCURVE",
"256 -15 CURVE SMOOTH",
"371 -15 OFFCURVE",
"425 38 OFFCURVE",
"425 125 CURVE SMOOTH",
"425 245 LINE SMOOTH",
"425 332 OFFCURVE",
"369 385 OFFCURVE",
"254 385 CURVE SMOOTH",
"139 385 OFFCURVE",
"115 302 OFFCURVE",
"115 215 CURVE SMOOTH",
"115 159 LINE"
);
},
{
closed = 1;
nodes = (
"155 245 LINE SMOOTH",
"155 295 OFFCURVE",
"187 325 OFFCURVE",
"254 325 CURVE SMOOTH",
"322 325 OFFCURVE",
"355 295 OFFCURVE",
"355 245 CURVE SMOOTH",
"355 125 LINE SMOOTH",
"355 75 OFFCURVE",
"323 45 OFFCURVE",
"256 45 CURVE SMOOTH",
"188 45 OFFCURVE",
"155 75 OFFCURVE",
"155 125 CURVE SMOOTH"
);
},
{
closed = 1;
nodes = (
"85 126 LINE",
"155 126 LINE",
"155 529 LINE SMOOTH",
"155 579 OFFCURVE",
"187 605 OFFCURVE",
"254 605 CURVE SMOOTH",
"321 605 OFFCURVE",
"353 579 OFFCURVE",
"353 529 CURVE SMOOTH",
"353 460 LINE",
"423 460 LINE",
"423 525 LINE SMOOTH",
"423 612 OFFCURVE",
"372 665 OFFCURVE",
"254 665 CURVE SMOOTH",
"136 665 OFFCURVE",
"85 612 OFFCURVE",
"85 525 CURVE SMOOTH"
);
}
);
width = 510;
}
);
unicode = 0036;
},
{
glyphname = seven;
layers = (
{
hints = (
{
horizontal = 1;
place = "{590, 60}";
type = Stem;
},
{
horizontal = 1;
place = "{0, 21}";
target = up;
type = BottomGhost;
}
);
layerId = UUID0;
paths = (
{
closed = 1;
nodes = (
"81 590 LINE",
"367 590 LINE",
"345 620 LINE",
"153 0 LINE",
"225 0 LINE",
"408 590 LINE",
"408 650 LINE",
"81 650 LINE"
);
}
);
width = 510;
}
);
unicode = 0037;
},
{
glyphname = eight;
layers = (
{
hints = (
{
horizontal = 1;
origin = "{0, 3}";
target = "{0, 20}";
type = Stem;
},
{
horizontal = 1;
origin = "{0, 27}";
target = "{1, 30}";
type = Stem;
},
{
horizontal = 1;
origin = "{1, 20}";
target = "{1, 3}";
type = Stem;
},
{
origin = "{0, 0}";
target = "{0, 23}";
type = Stem;
},
{
origin = "{0, 17}";
target = "{0, 6}";
type = Stem;
},
{
origin = "{1, 7}";
target = "{1, 16}";
type = Stem;
}
);
layerId = UUID0;
paths = (
{
closed = 1;
nodes = (
"86 125 LINE SMOOTH",
"86 38 OFFCURVE",
"137 -15 OFFCURVE",
"255 -15 CURVE SMOOTH",
"373 -15 OFFCURVE",
"424 38 OFFCURVE",
"424 125 CURVE SMOOTH",
"424 220 LINE SMOOTH",
"424 306 OFFCURVE",
"371 335 OFFCURVE",
"265 335 CURVE SMOOTH",
"255 335 LINE",
"255 300 LINE",
"265 300 LINE SMOOTH",
"324 300 OFFCURVE",
"354 259 OFFCURVE",
"354 220 CURVE SMOOTH",
"354 121 LINE SMOOTH",
"354 75 OFFCURVE",
"322 45 OFFCURVE",
"255 45 CURVE SMOOTH",
"188 45 OFFCURVE",
"156 75 OFFCURVE",
"156 121 CURVE SMOOTH",
"156 220 LINE SMOOTH",
"156 259 OFFCURVE",
"186 300 OFFCURVE",
"245 300 CURVE SMOOTH",
"255 300 LINE",
"255 335 LINE",
"245 335 LINE SMOOTH",
"139 335 OFFCURVE",
"86 306 OFFCURVE",
"86 220 CURVE SMOOTH"
);
},
{
closed = 1;
nodes = (
"156 529 LINE SMOOTH",
"156 575 OFFCURVE",
"186 605 OFFCURVE",
"250 605 CURVE SMOOTH",
"314 605 OFFCURVE",
"344 575 OFFCURVE",
"344 529 CURVE SMOOTH",
"344 430 LINE SMOOTH",
"344 390 OFFCURVE",
"315 350 OFFCURVE",
"255 350 CURVE SMOOTH",
"250 350 LINE",
"250 315 LINE",
"255 315 LINE SMOOTH",
"363 315 OFFCURVE",
"414 343 OFFCURVE",
"414 430 CURVE SMOOTH",
"414 525 LINE SMOOTH",
"414 612 OFFCURVE",
"361 665 OFFCURVE",
"247 665 CURVE SMOOTH",
"135 665 OFFCURVE",
"86 612 OFFCURVE",
"86 525 CURVE SMOOTH",
"86 430 LINE SMOOTH",
"86 343 OFFCURVE",
"137 315 OFFCURVE",
"245 315 CURVE SMOOTH",
"250 315 LINE",
"250 350 LINE",
"245 350 LINE SMOOTH",
"185 350 OFFCURVE",
"156 390 OFFCURVE",
"156 430 CURVE SMOOTH"
);
}
);
width = 510;
}
);
unicode = 0038;
},
{
glyphname = nine;
layers = (
{
hints = (
{
place = "{85, 70}";
type = Stem;
},
{
place = "{355, 40}";
type = Stem;
},
{
place = "{355, 70}";
type = Stem;
},
{
horizontal = 1;
place = "{-15, 60}";
type = Stem;
},
{
horizontal = 1;
place = "{265, 60}";
type = Stem;
},
{
horizontal = 1;
place = "{605, 60}";
type = Stem;
}
);
layerId = UUID0;
paths = (
{
closed = 1;
nodes = (
"425 525 LINE SMOOTH",
"425 612 OFFCURVE",
"369 665 OFFCURVE",
"254 665 CURVE SMOOTH",
"139 665 OFFCURVE",
"85 612 OFFCURVE",
"85 525 CURVE SMOOTH",
"85 405 LINE SMOOTH",
"85 318 OFFCURVE",
"141 265 OFFCURVE",
"256 265 CURVE SMOOTH",
"371 265 OFFCURVE",
"395 348 OFFCURVE",
"395 435 CURVE SMOOTH",
"395 491 LINE"
);
},
{
closed = 1;
nodes = (
"355 405 LINE SMOOTH",
"355 355 OFFCURVE",
"323 325 OFFCURVE",
"256 325 CURVE SMOOTH",
"188 325 OFFCURVE",
"155 355 OFFCURVE",
"155 405 CURVE SMOOTH",
"155 525 LINE SMOOTH",
"155 575 OFFCURVE",
"187 605 OFFCURVE",
"254 605 CURVE SMOOTH",
"322 605 OFFCURVE",
"355 575 OFFCURVE",
"355 525 CURVE SMOOTH"
);
},
{
closed = 1;
nodes = (
"425 524 LINE",
"355 524 LINE",
"355 121 LINE SMOOTH",
"355 71 OFFCURVE",
"323 45 OFFCURVE",
"256 45 CURVE SMOOTH",
"189 45 OFFCURVE",
"157 71 OFFCURVE",
"157 121 CURVE SMOOTH",
"157 190 LINE",
"87 190 LINE",
"87 125 LINE SMOOTH",
"87 38 OFFCURVE",
"138 -15 OFFCURVE",
"256 -15 CURVE SMOOTH",
"374 -15 OFFCURVE",
"425 38 OFFCURVE",
"425 125 CURVE SMOOTH"
);
}
);
width = 510;
}
);
unicode = 0039;
},
{
glyphname = zero.lf;
layers = (
{
components = (
{
name = fraction;
transform = "{1.331, 0, 0, 1.331, 258, -120}";
}
);
hints = (
{
place = "{85, 70}";
type = Stem;
},
{
place = "{355, 70}";
type = Stem;
},
{
horizontal = 1;
place = "{-15, 60}";
type = Stem;
},
{
horizontal = 1;
place = "{605, 60}";
type = Stem;
}
);
layerId = UUID0;
paths = (
{
closed = 1;
nodes = (
"425 525 LINE SMOOTH",
"425 612 OFFCURVE",
"369 665 OFFCURVE",
"254 665 CURVE SMOOTH",
"139 665 OFFCURVE",
"85 612 OFFCURVE",
"85 525 CURVE SMOOTH",
"85 125 LINE SMOOTH",
"85 38 OFFCURVE",
"141 -15 OFFCURVE",
"256 -15 CURVE SMOOTH",
"371 -15 OFFCURVE",
"425 38 OFFCURVE",
"425 125 CURVE SMOOTH"
);
},
{
closed = 1;
nodes = (
"355 125 LINE SMOOTH",
"355 75 OFFCURVE",
"323 45 OFFCURVE",
"256 45 CURVE SMOOTH",
"188 45 OFFCURVE",
"155 75 OFFCURVE",
"155 125 CURVE SMOOTH",
"155 525 LINE SMOOTH",
"155 575 OFFCURVE",
"187 605 OFFCURVE",
"254 605 CURVE SMOOTH",
"322 605 OFFCURVE",
"355 575 OFFCURVE",
"355 525 CURVE SMOOTH"
);
}
);
width = 510;
}
);
},
{
glyphname = one.lf;
layers = (
{
hints = (
{
place = "{236, 70}";
type = Stem;
},
{
horizontal = 1;
place = "{0, 60}";
type = Stem;
},
{
horizontal = 1;
place = "{650, -20}";
target = down;
type = TopGhost;
}
);
layerId = UUID0;
paths = (
{
closed = 1;
nodes = (
"306 0 LINE",
"306 650 LINE",
"236 650 LINE",
"236 0 LINE"
);
},
{
closed = 1;
nodes = (
"236 650 LINE",
"72 555 LINE",
"102 504 LINE",
"266 599 LINE"
);
},
{
closed = 1;
nodes = (
"446 60 LINE",
"96 60 LINE",
"96 0 LINE",
"446 0 LINE"
);
}
);
width = 510;
}
);
},
{
glyphname = two.lf;
layers = (
{
guideLines = (
{
angle = 151.7503;
position = "{80, 562}";
}
);
hints = (
{
place = "{100, 70}";
type = Stem;
},
{
place = "{358, 70}";
type = Stem;
},
{
horizontal = 1;
place = "{0, 60}";
type = Stem;
},
{
horizontal = 1;
place = "{605, 60}";
type = Stem;
}
);
layerId = UUID0;
paths = (
{
closed = 1;
nodes = (
"90 0 LINE",
"427 0 LINE",
"427 60 LINE",
"90 60 LINE"
);
},
{
closed = 1;
nodes = (
"428 609 OFFCURVE",
"370 664 OFFCURVE",
"259 664 CURVE SMOOTH",
"177 664 OFFCURVE",
"116 629 OFFCURVE",
"80 562 CURVE",
"135 531 LINE",
"166 581 OFFCURVE",
"205 604 OFFCURVE",
"259 604 CURVE SMOOTH",
"322 604 OFFCURVE",
"358 569 OFFCURVE",
"358 508 CURVE SMOOTH",
"358 447 OFFCURVE",
"351 432 OFFCURVE",
"279 329 CURVE SMOOTH",
"90 60 LINE",
"175 60 LINE",
"334 287 LINE SMOOTH",
"409 394 OFFCURVE",
"428 438 OFFCURVE",
"428 504 CURVE SMOOTH"
);
}
);
width = 510;
}
);
},
{
glyphname = three.lf;
layers = (
{
hints = (
{
horizontal = 1;
origin = "{1, 9}";
target = "{1, 2}";
type = Stem;
},
{
horizontal = 1;
origin = "{1, 18}";
target = "{1, 17}";
type = Stem;
},
{
horizontal = 1;
origin = "{0, 3}";
target = "{0, 4}";
type = Stem;
},
{
origin = "{1, 6}";
target = "{1, 18}";
type = Stem;
},
{
origin = "{1, 23}";
target = "{0, 0}";
type = Stem;
}
);
layerId = UUID0;
paths = (
{
closed = 1;
nodes = (
"217 333 LINE",
"413 590 LINE",
"413 650 LINE",
"97 650 LINE",
"97 590 LINE",
"371 590 LINE",
"349 615 LINE",
"165 375 LINE"
);
},
{
closed = 1;
nodes = (
"355 80 OFFCURVE",
"319 45 OFFCURVE",
"256 45 CURVE SMOOTH",
"201 45 OFFCURVE",
"163 68 OFFCURVE",
"132 118 CURVE",
"77 87 LINE",
"113 20 OFFCURVE",
"174 -15 OFFCURVE",
"256 -15 CURVE SMOOTH",
"367 -15 OFFCURVE",
"425 40 OFFCURVE",
"425 145 CURVE SMOOTH",
"425 225 LINE SMOOTH",
"425 320 OFFCURVE",
"387 353 OFFCURVE",
"266 365 CURVE SMOOTH",
"165 375 LINE",
"165 315 LINE",
"266 305 LINE SMOOTH",
"322 299 OFFCURVE",
"355 270 OFFCURVE",
"355 225 CURVE SMOOTH",
"355 141 LINE SMOOTH"
);
}
);
width = 510;
}
);
},
{
glyphname = four.lf;
layers = (
{
hints = (
{
horizontal = 1;
origin = "{2, 3}";
target = up;
type = BottomGhost;
},
{
horizontal = 1;
origin = "{0, 2}";
target = "{1, 1}";
type = Stem;
},
{
horizontal = 1;
origin = "{1, 0}";
target = down;
type = TopGhost;
},
{
origin = "{2, 3}";
target = "{2, 0}";
type = Stem;
}
);
layerId = UUID0;
paths = (
{
closed = 1;
nodes = (
"446 210 LINE",
"51 210 LINE",
"51 150 LINE",
"446 150 LINE"
);
},
{
closed = 1;
nodes = (
"226 650 LINE",
"50 210 LINE",
"120 210 LINE",
"296 650 LINE"
);
},
{
closed = 1;
nodes = (
"396 0 LINE",
"396 450 LINE",
"326 450 LINE",
"326 0 LINE"
);
}
);
width = 510;
}
);
},
{
glyphname = five.lf;
layers = (
{
hints = (
{
horizontal = 1;
origin = "{2, 6}";
target = "{2, 23}";
type = Stem;
},
{
horizontal = 1;
origin = "{0, 1}";
target = "{2, 14}";
type = Stem;
},
{
horizontal = 1;
origin = "{0, 0}";
target = "{1, 0}";
type = Stem;
},
{
origin = "{0, 1}";
target = "{0, 2}";
type = Stem;
},
{
origin = "{2, 20}";
target = "{2, 9}";
type = Stem;
}
);
layerId = UUID0;
paths = (
{
closed = 1;
nodes = (
"97 650 LINE",
"97 320 LINE",
"167 320 LINE",
"167 650 LINE"
);
},
{
closed = 1;
nodes = (
"167 590 LINE",
"415 590 LINE",
"415 650 LINE",
"167 650 LINE"
);
},
{
closed = 1;
nodes = (
"203 45 OFFCURVE",
"164 66 OFFCURVE",
"132 118 CURVE",
"77 87 LINE",
"111 23 OFFCURVE",
"170 -15 OFFCURVE",
"256 -15 CURVE SMOOTH",
"374 -15 OFFCURVE",
"425 46 OFFCURVE",
"425 145 CURVE SMOOTH",
"425 235 LINE SMOOTH",
"425 321 OFFCURVE",
"372 380 OFFCURVE",
"266 380 CURVE SMOOTH",
"167 380 LINE",
"167 320 LINE",
"266 320 LINE SMOOTH",
"325 320 OFFCURVE",
"355 274 OFFCURVE",
"355 235 CURVE SMOOTH",
"355 141 LINE SMOOTH",
"355 83 OFFCURVE",
"323 45 OFFCURVE",
"256 45 CURVE SMOOTH"
);
}
);
width = 510;
}
);
},
{
glyphname = six.lf;
layers = (
{
hints = (
{
place = "{85, 70}";
type = Stem;
},
{
place = "{115, 40}";
type = Stem;
},
{
place = "{355, 70}";
type = Stem;
},
{
horizontal = 1;
place = "{-15, 60}";
type = Stem;
},
{
horizontal = 1;
place = "{325, 60}";
type = Stem;
},
{
horizontal = 1;
place = "{605, 60}";
type = Stem;
}
);
layerId = UUID0;
paths = (
{
closed = 1;
nodes = (
"155 126 LINE",
"155 489 LINE SMOOTH",
"155 565 OFFCURVE",
"187 605 OFFCURVE",
"254 605 CURVE SMOOTH",
"303 605 OFFCURVE",
"339 584 OFFCURVE",
"368 532 CURVE",
"423 563 LINE",
"391 627 OFFCURVE",
"335 665 OFFCURVE",
"254 665 CURVE SMOOTH",
"136 665 OFFCURVE",
"85 597 OFFCURVE",
"85 485 CURVE SMOOTH",
"85 126 LINE"
);
},
{
closed = 1;
nodes = (
"371 -15 OFFCURVE",
"425 38 OFFCURVE",
"425 125 CURVE SMOOTH",
"425 245 LINE SMOOTH",
"425 332 OFFCURVE",
"369 385 OFFCURVE",
"254 385 CURVE SMOOTH",
"139 385 OFFCURVE",
"115 302 OFFCURVE",
"115 215 CURVE SMOOTH",
"115 159 LINE",
"85 125 LINE SMOOTH",
"85 38 OFFCURVE",
"141 -15 OFFCURVE",
"256 -15 CURVE SMOOTH"
);
},
{
closed = 1;
nodes = (
"188 45 OFFCURVE",
"155 75 OFFCURVE",
"155 125 CURVE SMOOTH",
"155 245 LINE SMOOTH",
"155 295 OFFCURVE",
"187 325 OFFCURVE",
"254 325 CURVE SMOOTH",
"322 325 OFFCURVE",
"355 295 OFFCURVE",
"355 245 CURVE SMOOTH",
"355 125 LINE SMOOTH",
"355 75 OFFCURVE",
"323 45 OFFCURVE",
"256 45 CURVE SMOOTH"
);
}
);
width = 510;
}
);
},
{
glyphname = seven.lf;
layers = (
{
components = (
{
name = strokeshortcomb;
transform = "{0.98481, -0.17365, 0.17365, 0.98481, -26, 32}";
}
);
hints = (
{
horizontal = 1;
place = "{590, 60}";
type = Stem;
},
{
horizontal = 1;
place = "{0, 21}";
target = up;
type = BottomGhost;
}
);
layerId = UUID0;
paths = (
{
closed = 1;
nodes = (
"81 590 LINE",
"367 590 LINE",
"345 620 LINE",
"153 0 LINE",
"225 0 LINE",
"408 590 LINE",
"408 650 LINE",
"81 650 LINE"
);
}
);
width = 510;
}
);
},
{
glyphname = eight.lf;
layers = (
{
guideLines = (
{
angle = 211.866;
position = "{316, 325}";
},
{
angle = 211.866;
position = "{157, 301}";
}
);
hints = (
{
horizontal = 1;
origin = "{0, 27}";
target = "{1, 13}";
type = Stem;
},
{
horizontal = 1;
origin = "{0, 13}";
target = "{2, 6}";
type = Stem;
},
{
origin = "{0, 24}";
target = "{1, 2}";
type = Stem;
},
{
origin = "{1, 10}";
target = "{0, 2}";
type = Stem;
},
{
origin = "{0, 17}";
target = "{2, 2}";
type = Stem;
},
{
origin = "{2, 10}";
target = "{0, 9}";
type = Stem;
}
);
layerId = UUID0;
paths = (
{
closed = 1;
nodes = (
"369 -15 OFFCURVE",
"427 35 OFFCURVE",
"427 135 CURVE SMOOTH",
"427 175 LINE SMOOTH",
"427 245 OFFCURVE",
"405 275 OFFCURVE",
"316 325 CURVE",
"398 377 OFFCURVE",
"422 413 OFFCURVE",
"422 487 CURVE SMOOTH",
"422 515 LINE SMOOTH",
"422 613 OFFCURVE",
"364 665 OFFCURVE",
"255 665 CURVE SMOOTH",
"144 665 OFFCURVE",
"88 615 OFFCURVE",
"88 515 CURVE SMOOTH",
"88 475 LINE SMOOTH",
"88 405 OFFCURVE",
"109 375 OFFCURVE",
"194 324 CURVE",
"108 271 OFFCURVE",
"83 234 OFFCURVE",
"83 163 CURVE SMOOTH",
"83 135 LINE SMOOTH",
"83 37 OFFCURVE",
"143 -15 OFFCURVE",
"255 -15 CURVE SMOOTH"
);
},
{
closed = 1;
nodes = (
"189 45 OFFCURVE",
"153 73 OFFCURVE",
"153 126 CURVE SMOOTH",
"153 163 LINE SMOOTH",
"153 212 OFFCURVE",
"173 236 OFFCURVE",
"255 287 CURVE",
"327 252 OFFCURVE",
"357 219 OFFCURVE",
"357 175 CURVE SMOOTH",
"357 126 LINE SMOOTH",
"357 73 OFFCURVE",
"322 45 OFFCURVE",
"255 45 CURVE SMOOTH"
);
},
{
closed = 1;
nodes = (
"186 398 OFFCURVE",
"158 430 OFFCURVE",
"158 475 CURVE SMOOTH",
"158 524 LINE SMOOTH",
"158 577 OFFCURVE",
"192 605 OFFCURVE",
"255 605 CURVE SMOOTH",
"318 605 OFFCURVE",
"352 577 OFFCURVE",
"352 524 CURVE SMOOTH",
"352 487 LINE SMOOTH",
"352 435 OFFCURVE",
"333 410 OFFCURVE",
"255 362 CURVE"
);
}
);
width = 510;
}
);
},
{
glyphname = nine.lf;
layers = (
{
guideLines = (
{
angle = 29.1481;
position = "{142, 118}";
}
);
hints = (
{
horizontal = 1;
origin = "{2, 12}";
target = "{2, 5}";
type = Stem;
},
{
horizontal = 1;
origin = "{0, 10}";
target = "{1, 3}";
type = Stem;
},
{
horizontal = 1;
origin = "{0, 3}";
target = "{1, 10}";
type = Stem;
},
{
origin = "{0, 7}";
target = "{1, 6}";
type = Stem;
},
{
origin = "{2, 2}";
target = "{2, 15}";
type = Stem;
}
);
layerId = UUID0;
paths = (
{
closed = 1;
nodes = (
"425 525 LINE SMOOTH",
"425 612 OFFCURVE",
"369 665 OFFCURVE",
"254 665 CURVE SMOOTH",
"139 665 OFFCURVE",
"85 612 OFFCURVE",
"85 525 CURVE SMOOTH",
"85 385 LINE SMOOTH",
"85 298 OFFCURVE",
"141 245 OFFCURVE",
"256 245 CURVE SMOOTH",
"371 245 OFFCURVE",
"395 328 OFFCURVE",
"395 415 CURVE SMOOTH",
"395 491 LINE"
);
},
{
closed = 1;
nodes = (
"355 385 LINE SMOOTH",
"355 335 OFFCURVE",
"323 305 OFFCURVE",
"256 305 CURVE SMOOTH",
"188 305 OFFCURVE",
"155 335 OFFCURVE",
"155 385 CURVE SMOOTH",
"155 525 LINE SMOOTH",
"155 575 OFFCURVE",
"187 605 OFFCURVE",
"254 605 CURVE SMOOTH",
"322 605 OFFCURVE",
"355 575 OFFCURVE",
"355 525 CURVE SMOOTH"
);
},
{
closed = 1;
nodes = (
"425 524 LINE",
"355 524 LINE",
"355 161 LINE SMOOTH",
"355 85 OFFCURVE",
"323 45 OFFCURVE",
"256 45 CURVE SMOOTH",
"203 45 OFFCURVE",
"164 66 OFFCURVE",
"132 118 CURVE",
"77 87 LINE",
"111 23 OFFCURVE",
"170 -15 OFFCURVE",
"256 -15 CURVE SMOOTH",
"374 -15 OFFCURVE",
"425 53 OFFCURVE",
"425 165 CURVE SMOOTH"
);
}
);
width = 510;
}
);
},
{
glyphname = zero.dnom;
layers = (
{
hints = (
{
horizontal = 1;
origin = "{0, 10}";
target = "{1, 3}";
type = Stem;
},
{
horizontal = 1;
origin = "{1, 10}";
target = "{0, 3}";
type = Stem;
},
{
origin = "{0, 7}";
target = "{1, 6}";
type = Stem;
},
{
origin = "{1, 0}";
target = "{0, 13}";
type = Stem;
}
);
layerId = UUID0;
paths = (
{
closed = 1;
nodes = (
"205 219 LINE SMOOTH",
"205 266 OFFCURVE",
"175 295 OFFCURVE",
"115 295 CURVE SMOOTH",
"53 295 OFFCURVE",
"25 266 OFFCURVE",
"25 219 CURVE SMOOTH",
"25 66 LINE SMOOTH",
"25 20 OFFCURVE",
"54 -10 OFFCURVE",
"116 -10 CURVE SMOOTH",
"176 -10 OFFCURVE",
"205 20 OFFCURVE",
"205 66 CURVE SMOOTH"
);
},
{
closed = 1;
nodes = (
"157 66 LINE SMOOTH",
"157 45 OFFCURVE",
"143 33 OFFCURVE",
"116 33 CURVE SMOOTH",
"87 33 OFFCURVE",
"73 45 OFFCURVE",
"73 66 CURVE SMOOTH",
"73 219 LINE SMOOTH",
"73 240 OFFCURVE",
"86 252 OFFCURVE",
"115 252 CURVE SMOOTH",
"143 252 OFFCURVE",
"157 240 OFFCURVE",
"157 219 CURVE SMOOTH"
);
}
);
width = 230;
}
);
},
{
glyphname = one.dnom;
layers = (
{
hints = (
{
horizontal = 1;
origin = "{0, 4}";
target = up;
type = BottomGhost;
},
{
origin = "{0, 4}";
target = "{0, 5}";
type = Stem;
}
);
layerId = UUID0;
paths = (
{
closed = 1;
nodes = (
"106 285 LINE",
"18 233 LINE",
"39 198 LINE",
"101 233 LINE",
"101 0 LINE",
"149 0 LINE",
"149 285 LINE"
);
}
);
width = 230;
}
);
},
{
glyphname = two.dnom;
layers = (
{
hints = (
{
horizontal = 1;
origin = "{0, 0}";
target = "{0, 3}";
type = Stem;
},
{
horizontal = 1;
origin = "{0, 20}";
target = "{0, 11}";
type = Stem;
},
{
origin = "{0, 15}";
target = "{0, 16}";
type = Stem;
},
{
origin = "{0, 24}";
target = "{0, 7}";
type = Stem;
}
);
layerId = UUID0;
paths = (
{
closed = 1;
nodes = (
"26 0 LINE",
"204 0 LINE",
"204 43 LINE",
"87 43 LINE",
"158 128 LINE SMOOTH",
"190 167 OFFCURVE",
"205 189 OFFCURVE",
"205 215 CURVE SMOOTH",
"205 219 LINE SMOOTH",
"205 266 OFFCURVE",
"176 295 OFFCURVE",
"116 295 CURVE SMOOTH",
"56 295 OFFCURVE",
"31 266 OFFCURVE",
"31 219 CURVE SMOOTH",
"31 201 LINE",
"79 201 LINE",
"79 221 LINE SMOOTH",
"79 240 OFFCURVE",
"91 252 OFFCURVE",
"118 252 CURVE SMOOTH",
"144 252 OFFCURVE",
"157 240 OFFCURVE",
"157 221 CURVE SMOOTH",
"157 215 LINE SMOOTH",
"157 201 OFFCURVE",
"143 183 OFFCURVE",
"127 163 CURVE SMOOTH",
"26 39 LINE"
);
}
);
width = 230;
}
);
},
{
glyphname = three.dnom;
layers = (
{
hints = (
{
horizontal = 1;
origin = "{0, 38}";
target = "{0, 29}";
type = Stem;
},
{
horizontal = 1;
origin = "{0, 21}";
target = "{0, 20}";
type = Stem;
},
{
horizontal = 1;
origin = "{0, 12}";
target = "{0, 3}";
type = Stem;
},
{
origin = "{0, 35}";
target = "{0, 32}";
type = Stem;
},
{
origin = "{0, 16}";
target = "{0, 48}";
type = Stem;
},
{
origin = "{0, 26}";
target = "{0, 41}";
type = Stem;
}
);
layerId = UUID0;
paths = (
{
closed = 1;
nodes = (
"200 219 LINE SMOOTH",
"200 266 OFFCURVE",
"173 295 OFFCURVE",
"112 295 CURVE SMOOTH",
"52 295 OFFCURVE",
"26 266 OFFCURVE",
"26 219 CURVE SMOOTH",
"26 201 LINE",
"74 201 LINE",
"74 221 LINE SMOOTH",
"74 240 OFFCURVE",
"86 252 OFFCURVE",
"113 252 CURVE SMOOTH",
"139 252 OFFCURVE",
"152 240 OFFCURVE",
"152 221 CURVE SMOOTH",
"152 192 LINE SMOOTH",
"152 176 OFFCURVE",
"140 158 OFFCURVE",
"116 158 CURVE SMOOTH",
"74 158 LINE",
"74 120 LINE",
"121 120 LINE SMOOTH",
"144 120 OFFCURVE",
"157 101 OFFCURVE",
"157 85 CURVE SMOOTH",
"157 64 LINE SMOOTH",
"157 45 OFFCURVE",
"143 33 OFFCURVE",
"116 33 CURVE SMOOTH",
"87 33 OFFCURVE",
"74 45 OFFCURVE",
"74 64 CURVE SMOOTH",
"74 79 LINE",
"26 79 LINE",
"26 66 LINE SMOOTH",
"26 20 OFFCURVE",
"53 -10 OFFCURVE",
"116 -10 CURVE SMOOTH",
"178 -10 OFFCURVE",
"205 20 OFFCURVE",
"205 66 CURVE SMOOTH",
"205 85 LINE SMOOTH",
"205 111 OFFCURVE",
"194 129 OFFCURVE",
"166 139 CURVE",
"190 150 OFFCURVE",
"200 169 OFFCURVE",
"200 192 CURVE SMOOTH"
);
}
);
width = 230;
}
);
},
{
glyphname = four.dnom;
layers = (
{
hints = (
{
horizontal = 1;
origin = "{1, 0}";
target = "{0, 2}";
type = Stem;
},
{
origin = "{0, 4}";
target = "{0, 5}";
type = Stem;
}
);
layerId = UUID0;
paths = (
{
closed = 1;
nodes = (
"137 285 LINE",
"4 92 LINE",
"4 53 LINE",
"134 53 LINE",
"134 0 LINE",
"182 0 LINE",
"182 53 LINE",
"207 53 LINE",
"207 96 LINE",
"182 96 LINE",
"182 285 LINE"
);
},
{
closed = 1;
nodes = (
"57 96 LINE",
"134 202 LINE",
"134 96 LINE"
);
}
);
width = 230;
}
);
},
{
glyphname = five.dnom;
layers = (
{
hints = (
{
horizontal = 1;
origin = "{0, 18}";
target = "{0, 9}";
type = Stem;
},
{
horizontal = 1;
origin = "{0, 1}";
target = "{0, 26}";
type = Stem;
},
{
horizontal = 1;
origin = "{0, 27}";
target = "{0, 0}";
type = Stem;
},
{
origin = "{0, 1}";
target = "{0, 26}";
type = Stem;
},
{
origin = "{0, 6}";
target = "{0, 21}";
type = Stem;
},
{
origin = "{0, 15}";
target = "{0, 12}";
type = Stem;
}
);
layerId = UUID0;
paths = (
{
closed = 1;
nodes = (
"31 285 LINE",
"31 135 LINE",
"121 135 LINE SMOOTH",
"144 135 OFFCURVE",
"157 116 OFFCURVE",
"157 99 CURVE SMOOTH",
"157 64 LINE SMOOTH",
"157 45 OFFCURVE",
"143 33 OFFCURVE",
"116 33 CURVE SMOOTH",
"87 33 OFFCURVE",
"74 45 OFFCURVE",
"74 64 CURVE SMOOTH",
"74 84 LINE",
"26 84 LINE",
"26 66 LINE SMOOTH",
"26 20 OFFCURVE",
"53 -10 OFFCURVE",
"116 -10 CURVE SMOOTH",
"178 -10 OFFCURVE",
"205 20 OFFCURVE",
"205 66 CURVE SMOOTH",
"205 99 LINE SMOOTH",
"205 145 OFFCURVE",
"177 178 OFFCURVE",
"121 178 CURVE SMOOTH",
"79 178 LINE",
"79 242 LINE",
"200 242 LINE",
"200 285 LINE"
);
}
);
width = 230;
}
);
},
{
glyphname = six.dnom;
layers = (
{
hints = (
{
horizontal = 1;
origin = "{0, 3}";
target = "{1, 10}";
type = Stem;
},
{
horizontal = 1;
origin = "{1, 3}";
target = "{0, 10}";
type = Stem;
},
{
horizontal = 1;
origin = "{0, 17}";
target = "{0, 26}";
type = Stem;
},
{
origin = "{0, 0}";
target = "{1, 13}";
type = Stem;
},
{
origin = "{1, 7}";
target = "{0, 6}";
type = Stem;
}
);
layerId = UUID0;
paths = (
{
closed = 1;
nodes = (
"25 67 LINE SMOOTH",
"25 20 OFFCURVE",
"54 -10 OFFCURVE",
"116 -10 CURVE SMOOTH",
"176 -10 OFFCURVE",
"205 20 OFFCURVE",
"205 66 CURVE SMOOTH",
"205 99 LINE SMOOTH",
"205 146 OFFCURVE",
"175 175 OFFCURVE",
"115 175 CURVE SMOOTH",
"97 175 OFFCURVE",
"83 171 OFFCURVE",
"73 165 CURVE",
"73 221 LINE SMOOTH",
"73 241 OFFCURVE",
"86 252 OFFCURVE",
"115 252 CURVE SMOOTH",
"142 252 OFFCURVE",
"156 241 OFFCURVE",
"156 221 CURVE SMOOTH",
"156 201 LINE",
"204 201 LINE",
"204 219 LINE SMOOTH",
"204 266 OFFCURVE",
"177 295 OFFCURVE",
"115 295 CURVE SMOOTH",
"52 295 OFFCURVE",
"25 266 OFFCURVE",
"25 219 CURVE SMOOTH"
);
},
{
closed = 1;
nodes = (
"73 103 LINE",
"75 121 OFFCURVE",
"88 132 OFFCURVE",
"115 132 CURVE SMOOTH",
"143 132 OFFCURVE",
"157 120 OFFCURVE",
"157 99 CURVE SMOOTH",
"157 66 LINE SMOOTH",
"157 45 OFFCURVE",
"143 33 OFFCURVE",
"116 33 CURVE SMOOTH",
"87 33 OFFCURVE",
"73 45 OFFCURVE",
"73 66 CURVE SMOOTH"
);
}
);
width = 230;
}
);
},
{
glyphname = seven.dnom;
layers = (
{
hints = (
{
horizontal = 1;
origin = "{0, 2}";
target = up;
type = BottomGhost;
},
{
horizontal = 1;
origin = "{0, 0}";
target = "{0, 6}";
type = Stem;
}
);
layerId = UUID0;
paths = (
{
closed = 1;
nodes = (
"28 242 LINE",
"150 242 LINE",
"60 0 LINE",
"110 0 LINE",
"202 247 LINE",
"202 285 LINE",
"28 285 LINE"
);
}
);
width = 230;
}
);
},
{
glyphname = eight.dnom;
layers = (
{
hints = (
{
horizontal = 1;
origin = "{0, 3}";
target = "{1, 7}";
type = Stem;
},
{
horizontal = 1;
origin = "{1, 14}";
target = "{2, 11}";
type = Stem;
},
{
horizontal = 1;
origin = "{2, 3}";
target = "{0, 17}";
type = Stem;
},
{
origin = "{0, 0}";
target = "{1, 10}";
type = Stem;
},
{
origin = "{2, 7}";
target = "{0, 13}";
type = Stem;
},
{
origin = "{1, 4}";
target = "{0, 6}";
type = Stem;
}
);
layerId = UUID0;
paths = (
{
closed = 1;
nodes = (
"26 66 LINE SMOOTH",
"26 20 OFFCURVE",
"52 -10 OFFCURVE",
"115 -10 CURVE SMOOTH",
"177 -10 OFFCURVE",
"205 20 OFFCURVE",
"205 66 CURVE SMOOTH",
"205 88 LINE SMOOTH",
"205 112 OFFCURVE",
"194 130 OFFCURVE",
"177 139 CURVE",
"193 149 OFFCURVE",
"200 166 OFFCURVE",
"200 190 CURVE SMOOTH",
"200 219 LINE SMOOTH",
"200 266 OFFCURVE",
"172 295 OFFCURVE",
"111 295 CURVE SMOOTH",
"51 295 OFFCURVE",
"26 266 OFFCURVE",
"26 219 CURVE SMOOTH",
"26 190 LINE SMOOTH",
"26 164 OFFCURVE",
"33 148 OFFCURVE",
"50 138 CURVE",
"35 129 OFFCURVE",
"26 111 OFFCURVE",
"26 88 CURVE SMOOTH"
);
},
{
closed = 1;
nodes = (
"120 120 LINE SMOOTH",
"144 120 OFFCURVE",
"157 103 OFFCURVE",
"157 88 CURVE SMOOTH",
"157 64 LINE SMOOTH",
"157 45 OFFCURVE",
"143 33 OFFCURVE",
"115 33 CURVE SMOOTH",
"87 33 OFFCURVE",
"74 45 OFFCURVE",
"74 64 CURVE SMOOTH",
"74 88 LINE SMOOTH",
"74 103 OFFCURVE",
"86 120 OFFCURVE",
"110 120 CURVE SMOOTH"
);
},
{
closed = 1;
nodes = (
"74 221 LINE SMOOTH",
"74 240 OFFCURVE",
"86 252 OFFCURVE",
"113 252 CURVE SMOOTH",
"139 252 OFFCURVE",
"152 240 OFFCURVE",
"152 221 CURVE SMOOTH",
"152 190 LINE SMOOTH",
"152 174 OFFCURVE",
"139 158 OFFCURVE",
"115 158 CURVE SMOOTH",
"110 158 LINE SMOOTH",
"85 158 OFFCURVE",
"74 174 OFFCURVE",
"74 190 CURVE SMOOTH"
);
}
);
width = 230;
}
);
},
{
glyphname = nine.dnom;
layers = (
{
hints = (
{
horizontal = 1;
origin = "{0, 26}";
target = "{0, 17}";
type = Stem;
},
{
horizontal = 1;
origin = "{0, 10}";
target = "{1, 3}";
type = Stem;
},
{
horizontal = 1;
origin = "{1, 10}";
target = "{0, 3}";
type = Stem;
},
{
origin = "{0, 7}";
target = "{1, 6}";
type = Stem;
},
{
origin = "{0, 14}";
target = "{0, 29}";
type = Stem;
}
);
layerId = UUID0;
paths = (
{
closed = 1;
nodes = (
"205 219 LINE SMOOTH",
"205 266 OFFCURVE",
"175 295 OFFCURVE",
"115 295 CURVE SMOOTH",
"53 295 OFFCURVE",
"25 266 OFFCURVE",
"25 219 CURVE SMOOTH",
"25 178 LINE SMOOTH",
"25 132 OFFCURVE",
"54 102 OFFCURVE",
"116 102 CURVE SMOOTH",
"133 102 OFFCURVE",
"146 105 OFFCURVE",
"157 112 CURVE",
"157 64 LINE SMOOTH",
"157 44 OFFCURVE",
"143 33 OFFCURVE",
"116 33 CURVE SMOOTH",
"87 33 OFFCURVE",
"74 44 OFFCURVE",
"74 64 CURVE SMOOTH",
"74 75 LINE",
"26 75 LINE",
"26 66 LINE SMOOTH",
"26 20 OFFCURVE",
"53 -10 OFFCURVE",
"116 -10 CURVE SMOOTH",
"178 -10 OFFCURVE",
"205 20 OFFCURVE",
"205 66 CURVE SMOOTH"
);
},
{
closed = 1;
nodes = (
"157 178 LINE SMOOTH",
"157 157 OFFCURVE",
"143 145 OFFCURVE",
"116 145 CURVE SMOOTH",
"87 145 OFFCURVE",
"73 157 OFFCURVE",
"73 178 CURVE SMOOTH",
"73 219 LINE SMOOTH",
"73 240 OFFCURVE",
"86 252 OFFCURVE",
"115 252 CURVE SMOOTH",
"143 252 OFFCURVE",
"157 240 OFFCURVE",
"157 219 CURVE SMOOTH"
);
}
);
width = 230;
}
);
},
{
glyphname = fraction;
layers = (
{
hints = (
{
horizontal = 1;
place = "{316, 21}";
target = up;
type = BottomGhost;
},
{
horizontal = 1;
place = "{345, -20}";
target = down;
type = TopGhost;
}
);
layerId = UUID0;
paths = (
{
closed = 1;
nodes = (
"-82 117 LINE",
"107 538 LINE",
"78 551 LINE",
"-111 130 LINE"
);
}
);
width = 0;
}
);
unicode = 2044;
},
{
glyphname = period;
layers = (
{
hints = (
{
horizontal = 1;
origin = "{0, 3}";
target = "{0, 2}";
type = Stem;
},
{
origin = "{0, 3}";
target = "{0, 0}";
type = Stem;
}
);
layerId = UUID0;
paths = (
{
closed = 1;
nodes = (
"175 0 LINE",
"175 110 LINE",
"85 110 LINE",
"85 0 LINE"
);
}
);
width = 260;
}
);
unicode = 002E;
},
{
glyphname = comma;
layers = (
{
hints = (
{
horizontal = 1;
place = "{110, -20}";
target = down;
type = TopGhost;
},
{
horizontal = 1;
place = "{-111, 21}";
target = up;
type = BottomGhost;
}
);
layerId = UUID0;
paths = (
{
closed = 1;
nodes = (
"175 15 LINE",
"175 110 LINE",
"85 110 LINE",
"85 9 LINE",
"109 0 LINE",
"94 -105 LINE",
"126 -111 LINE"
);
}
);
width = 260;
}
);
leftMetricsKey = period;
rightMetricsKey = period;
unicode = 002C;
},
{
glyphname = exclam;
layers = (
{
hints = (
{
place = "{112, 65}";
type = Stem;
},
{
horizontal = 1;
place = "{0, 21}";
target = up;
type = BottomGhost;
},
{
horizontal = 1;
place = "{650, -20}";
target = down;
type = TopGhost;
}
);
layerId = UUID0;
paths = (
{
closed = 1;
nodes = (
"180 0 LINE",
"180 110 LINE",
"110 110 LINE",
"110 0 LINE"
);
},
{
closed = 1;
nodes = (
"105 405 LINE",
"120 210 LINE",
"170 210 LINE",
"185 405 LINE",
"185 650 LINE",
"105 650 LINE"
);
}
);
width = 290;
}
);
unicode = 0021;
},
{
glyphname = question;
layers = (
{
hints = (
{
place = "{50, 70}";
type = Stem;
},
{
place = "{176, 70}";
type = Stem;
},
{
place = "{308, 70}";
type = Stem;
},
{
horizontal = 1;
place = "{605, 60}";
type = Stem;
},
{
horizontal = 1;
place = "{0, 21}";
target = up;
type = BottomGhost;
}
);
layerId = UUID0;
paths = (
{
closed = 1;
nodes = (
"246 0 LINE",
"246 110 LINE",
"176 110 LINE",
"176 0 LINE"
);
},
{
closed = 1;
nodes = (
"189 210 LINE",
"229 210 LINE",
"284 287 LINE SMOOTH",
"347 375 OFFCURVE",
"378 427 OFFCURVE",
"378 475 CURVE SMOOTH",
"378 525 LINE SMOOTH",
"378 612 OFFCURVE",
"325 665 OFFCURVE",
"211 665 CURVE SMOOTH",
"99 665 OFFCURVE",
"50 612 OFFCURVE",
"50 525 CURVE SMOOTH",
"50 440 LINE",
"120 440 LINE",
"120 529 LINE SMOOTH",
"120 575 OFFCURVE",
"150 605 OFFCURVE",
"214 605 CURVE SMOOTH",
"278 605 OFFCURVE",
"308 575 OFFCURVE",
"308 529 CURVE SMOOTH",
"308 475 LINE SMOOTH",
"308 435 OFFCURVE",
"264 378 OFFCURVE",
"230 329 CURVE SMOOTH",
"189 270 LINE"
);
}
);
width = 438;
}
);
unicode = 003F;
},
{
glyphname = asterisk;
layers = (
{
hints = (
{
place = "{166, 50}";
type = Stem;
},
{
horizontal = 1;
place = "{680, -20}";
target = down;
type = TopGhost;
},
{
horizontal = 1;
place = "{424, 21}";
target = up;
type = BottomGhost;
}
);
layerId = UUID0;
paths = (
{
closed = 1;
nodes = (
"166 580 LINE",
"216 580 LINE",
"216 680 LINE",
"166 680 LINE"
);
},
{
closed = 1;
nodes = (
"154 534 LINE",
"166 580 LINE",
"67 606 LINE",
"55 560 LINE"
);
},
{
closed = 1;
nodes = (
"191 504 LINE",
"154 534 LINE",
"91 454 LINE",
"128 424 LINE"
);
},
{
closed = 1;
nodes = (
"327 560 LINE",
"315 606 LINE",
"216 580 LINE",
"228 534 LINE"
);
},
{
closed = 1;
nodes = (
"254 424 LINE",
"291 454 LINE",
"228 534 LINE",
"191 504 LINE"
);
}
);
width = 382;
}
);
unicode = 002A;
},
{
glyphname = numbersign;
layers = (
{
hints = (
{
horizontal = 1;
place = "{195, 60}";
type = Stem;
},
{
horizontal = 1;
place = "{395, 60}";
type = Stem;
},
{
horizontal = 1;
place = "{0, 21}";
target = up;
type = BottomGhost;
},
{
horizontal = 1;
place = "{650, -20}";
target = down;
type = TopGhost;
}
);
layerId = UUID0;
paths = (
{
closed = 1;
nodes = (
"170 0 LINE",
"270 650 LINE",
"210 650 LINE",
"110 0 LINE"
);
},
{
closed = 1;
nodes = (
"420 0 LINE",
"520 650 LINE",
"460 650 LINE",
"360 0 LINE"
);
},
{
closed = 1;
nodes = (
"590 455 LINE",
"71 455 LINE",
"71 395 LINE",
"590 395 LINE"
);
},
{
closed = 1;
nodes = (
"559 255 LINE",
"40 255 LINE",
"40 195 LINE",
"559 195 LINE"
);
}
);
width = 630;
}
);
unicode = 0023;
},
{
glyphname = slash;
layers = (
{
hints = (
{
horizontal = 1;
place = "{-100, 21}";
target = up;
type = BottomGhost;
},
{
horizontal = 1;
place = "{750, -20}";
target = down;
type = TopGhost;
}
);
layerId = UUID0;
paths = (
{
closed = 1;
nodes = (
"120 -100 LINE",
"320 750 LINE",
"260 750 LINE",
"60 -100 LINE"
);
}
);
width = 380;
}
);
unicode = 002F;
},
{
glyphname = parenleft;
layers = (
{
hints = (
{
place = "{85, 70}";
type = Stem;
},
{
horizontal = 1;
place = "{-65, 60}";
type = Stem;
},
{
horizontal = 1;
place = "{655, 60}";
type = Stem;
}
);
layerId = UUID0;
paths = (
{
closed = 1;
nodes = (
"85 75 LINE SMOOTH",
"85 -12 OFFCURVE",
"141 -65 OFFCURVE",
"256 -65 CURVE",
"256 -5 LINE",
"188 -5 OFFCURVE",
"155 25 OFFCURVE",
"155 75 CURVE SMOOTH",
"155 575 LINE SMOOTH",
"155 625 OFFCURVE",
"187 655 OFFCURVE",
"257 655 CURVE",
"257 715 LINE",
"139 715 OFFCURVE",
"85 662 OFFCURVE",
"85 575 CURVE SMOOTH"
);
}
);
width = 322;
}
);
unicode = 0028;
},
{
glyphname = braceleft;
layers = (
{
hints = (
{
place = "{85, 70}";
type = Stem;
},
{
horizontal = 1;
place = "{-65, 60}";
type = Stem;
},
{
horizontal = 1;
place = "{300, 50}";
type = Stem;
},
{
horizontal = 1;
place = "{655, 60}";
type = Stem;
}
);
layerId = UUID0;
paths = (
{
closed = 1;
nodes = (
"85 75 LINE SMOOTH",
"85 -12 OFFCURVE",
"139 -65 OFFCURVE",
"257 -65 CURVE",
"257 -5 LINE",
"187 -5 OFFCURVE",
"155 25 OFFCURVE",
"155 75 CURVE SMOOTH",
"155 244 LINE SMOOTH",
"155 287 OFFCURVE",
"129 310 OFFCURVE",
"85 320 CURVE",
"85 328 LINE",
"129 338 OFFCURVE",
"155 362 OFFCURVE",
"155 406 CURVE SMOOTH",
"155 575 LINE SMOOTH",
"155 625 OFFCURVE",
"187 655 OFFCURVE",
"257 655 CURVE",
"257 715 LINE",
"139 715 OFFCURVE",
"85 662 OFFCURVE",
"85 575 CURVE SMOOTH",
"85 406 LINE SMOOTH",
"85 380 OFFCURVE",
"66 350 OFFCURVE",
"26 350 CURVE",
"26 300 LINE",
"66 300 OFFCURVE",
"85 270 OFFCURVE",
"85 244 CURVE SMOOTH"
);
}
);
width = 322;
}
);
unicode = 007B;
},
{
glyphname = bracketleft;
layers = (
{
hints = (
{
place = "{85, 70}";
type = Stem;
},
{
horizontal = 1;
place = "{-60, 60}";
type = Stem;
},
{
horizontal = 1;
place = "{650, 60}";
type = Stem;
}
);
layerId = UUID0;
paths = (
{
closed = 1;
nodes = (
"85 -60 LINE",
"256 -60 LINE",
"256 0 LINE",
"155 0 LINE",
"155 650 LINE",
"257 650 LINE",
"257 710 LINE",
"85 710 LINE"
);
}
);
width = 322;
}
);
unicode = 005B;
},
{
glyphname = hyphen;
layers = (
{
hints = (
{
horizontal = 1;
place = "{300, 60}";
type = Stem;
}
);
layerId = UUID0;
paths = (
{
closed = 1;
nodes = (
"95 300 LINE",
"395 300 LINE",
"395 360 LINE",
"95 360 LINE"
);
}
);
width = 490;
}
);
unicode = 002D;
},
{
glyphname = endash;
layers = (
{
hints = (
{
horizontal = 1;
place = "{295, 60}";
type = Stem;
}
);
layerId = UUID0;
paths = (
{
closed = 1;
nodes = (
"538 355 LINE",
"19 355 LINE",
"19 295 LINE",
"538 295 LINE"
);
}
);
width = 557;
}
);
unicode = 2013;
},
{
glyphname = emdash;
layers = (
{
hints = (
{
horizontal = 1;
place = "{295, 60}";
type = Stem;
}
);
layerId = UUID0;
paths = (
{
closed = 1;
nodes = (
"620 355 LINE",
"19 355 LINE",
"19 295 LINE",
"620 295 LINE"
);
}
);
width = 639;
}
);
unicode = 2014;
},
{
glyphname = underscore;
layers = (
{
hints = (
{
horizontal = 1;
place = "{-60, 60}";
type = Stem;
}
);
layerId = UUID0;
paths = (
{
closed = 1;
nodes = (
"401 0 LINE",
"19 0 LINE",
"19 -60 LINE",
"401 -60 LINE"
);
}
);
width = 420;
}
);
unicode = 005F;
},
{
glyphname = quoteleft;
layers = (
{
hints = (
{
horizontal = 1;
place = "{450, 21}";
target = up;
type = BottomGhost;
},
{
horizontal = 1;
place = "{671, -20}";
target = down;
type = TopGhost;
}
);
layerId = UUID0;
paths = (
{
closed = 1;
nodes = (
"50 539 LINE",
"50 440 LINE",
"140 440 LINE",
"140 546 LINE",
"116 555 LINE",
"131 665 LINE",
"99 671 LINE"
);
}
);
width = 190;
}
);
leftKerningGroup = quotedbl;
rightKerningGroup = quotedbl;
unicode = 2018;
},
{
glyphname = guilsinglleft;
layers = (
{
hints = (
{
horizontal = 1;
place = "{517, -20}";
target = down;
type = TopGhost;
},
{
horizontal = 1;
place = "{133, 21}";
target = up;
type = BottomGhost;
}
);
layerId = UUID0;
paths = (
{
closed = 1;
nodes = (
"125 325 LINE",
"242 474 LINE",
"193 517 LINE",
"60 347 LINE",
"60 303 LINE",
"193 133 LINE",
"242 176 LINE"
);
}
);
width = 282;
}
);
leftKerningGroup = guilsinglleft;
rightKerningGroup = guilsinglleft;
unicode = 2039;
},
{
glyphname = quotedbl;
layers = (
{
hints = (
{
horizontal = 1;
place = "{440, 21}";
target = up;
type = BottomGhost;
},
{
horizontal = 1;
place = "{665, -20}";
target = down;
type = TopGhost;
}
);
layerId = UUID0;
paths = (
{
closed = 1;
nodes = (
"85 605 LINE",
"115 440 LINE",
"145 440 LINE",
"175 605 LINE",
"175 665 LINE",
"85 665 LINE"
);
},
{
closed = 1;
nodes = (
"235 605 LINE",
"265 440 LINE",
"295 440 LINE",
"325 605 LINE",
"325 665 LINE",
"235 665 LINE"
);
}
);
width = 410;
}
);
leftKerningGroup = quotedbl;
rightKerningGroup = quotedbl;
unicode = 0022;
},
{
glyphname = quotesingle;
layers = (
{
hints = (
{
horizontal = 1;
place = "{440, 21}";
target = up;
type = BottomGhost;
},
{
horizontal = 1;
place = "{665, -20}";
target = down;
type = TopGhost;
}
);
layerId = UUID0;
paths = (
{
closed = 1;
nodes = (
"85 605 LINE",
"115 440 LINE",
"145 440 LINE",
"175 605 LINE",
"175 665 LINE",
"85 665 LINE"
);
}
);
width = 260;
}
);
unicode = 0027;
},
{
glyphname = "leftanglebracket-math";
layers = (
{
layerId = UUID0;
paths = (
{
closed = 1;
nodes = (
"217 715 LINE",
"30 325 LINE",
"217 -65 LINE",
"290 -55 LINE",
"91 353 LINE",
"91 297 LINE",
"290 705 LINE"
);
}
);
width = 304;
}
);
unicode = 27E8;
},
{
glyphname = cent;
layers = (
{
hints = (
{
horizontal = 1;
place = "{35, 61}";
type = Stem;
},
{
horizontal = 1;
place = "{554, 61}";
type = Stem;
},
{
origin = "{0, 23}";
target = "{0, 6}";
type = Stem;
},
{
origin = "{1, 0}";
target = "{1, 1}";
type = Stem;
},
{
origin = "{0, 0}";
target = "{0, 29}";
type = Stem;
}
);
layerId = UUID0;
paths = (
{
closed = 1;
nodes = (
"355 175 LINE SMOOTH",
"355 125 OFFCURVE",
"325 95 OFFCURVE",
"261 95 CURVE SMOOTH",
"196 95 OFFCURVE",
"165 125 OFFCURVE",
"165 175 CURVE SMOOTH",
"165 475 LINE SMOOTH",
"165 525 OFFCURVE",
"195 555 OFFCURVE",
"259 555 CURVE SMOOTH",
"324 555 OFFCURVE",
"355 525 OFFCURVE",
"355 475 CURVE SMOOTH",
"355 410 LINE",
"425 410 LINE",
"425 475 LINE SMOOTH",
"425 562 OFFCURVE",
"371 615 OFFCURVE",
"259 615 CURVE SMOOTH",
"147 615 OFFCURVE",
"95 562 OFFCURVE",
"95 475 CURVE SMOOTH",
"95 175 LINE SMOOTH",
"95 88 OFFCURVE",
"149 35 OFFCURVE",
"261 35 CURVE SMOOTH",
"373 35 OFFCURVE",
"425 88 OFFCURVE",
"425 175 CURVE SMOOTH",
"425 200 LINE",
"355 200 LINE"
);
},
{
closed = 1;
nodes = (
"245 -100 LINE",
"295 -100 LINE",
"295 750 LINE",
"245 750 LINE"
);
}
);
width = 510;
}
);
unicode = 00A2;
},
{
glyphname = colonsign;
layers = (
{
anchors = (
{
name = bottom;
position = "{245, 0}";
},
{
name = top;
position = "{245, 650}";
}
);
components = (
{
name = thinbar;
transform = "{1, 0, 0, 1, 23, 0}";
},
{
name = thinbar;
transform = "{1, 0, 0, 1, 138, 0}";
}
);
hints = (
{
place = "{85, 70}";
type = Stem;
},
{
place = "{345, 70}";
type = Stem;
},
{
horizontal = 1;
place = "{-15, 60}";
type = Stem;
},
{
horizontal = 1;
place = "{605, 60}";
type = Stem;
}
);
layerId = UUID0;
paths = (
{
closed = 1;
nodes = (
"373 586 LINE",
"370 631 LINE",
"343 653 OFFCURVE",
"303 665 OFFCURVE",
"249 665 CURVE SMOOTH",
"137 665 OFFCURVE",
"85 612 OFFCURVE",
"85 525 CURVE SMOOTH",
"85 125 LINE SMOOTH",
"85 38 OFFCURVE",
"139 -15 OFFCURVE",
"251 -15 CURVE SMOOTH",
"363 -15 OFFCURVE",
"415 38 OFFCURVE",
"415 125 CURVE SMOOTH",
"415 180 LINE",
"345 180 LINE",
"345 125 LINE SMOOTH",
"345 75 OFFCURVE",
"315 45 OFFCURVE",
"251 45 CURVE SMOOTH",
"186 45 OFFCURVE",
"155 75 OFFCURVE",
"155 125 CURVE SMOOTH",
"155 525 LINE SMOOTH",
"155 575 OFFCURVE",
"185 605 OFFCURVE",
"249 605 CURVE SMOOTH",
"299 605 OFFCURVE",
"334 591 OFFCURVE",
"355 566 CURVE"
);
}
);
width = 490;
}
);
unicode = 20A1;
},
{
glyphname = currency;
layers = (
{
hints = (
{
place = "{106, 70}";
type = Stem;
},
{
place = "{336, 70}";
type = Stem;
},
{
horizontal = 1;
place = "{160, 60}";
type = Stem;
},
{
horizontal = 1;
place = "{430, 60}";
type = Stem;
},
{
horizontal = 1;
place = "{558, -20}";
target = down;
type = TopGhost;
},
{
horizontal = 1;
place = "{92, 21}";
target = up;
type = BottomGhost;
}
);
layerId = UUID0;
paths = (
{
closed = 1;
nodes = (
"406 350 LINE SMOOTH",
"406 437 OFFCURVE",
"357 490 OFFCURVE",
"255 490 CURVE SMOOTH",
"153 490 OFFCURVE",
"106 437 OFFCURVE",
"106 350 CURVE SMOOTH",
"106 300 LINE SMOOTH",
"106 213 OFFCURVE",
"155 160 OFFCURVE",
"257 160 CURVE SMOOTH",
"359 160 OFFCURVE",
"406 213 OFFCURVE",
"406 300 CURVE SMOOTH"
);
},
{
closed = 1;
nodes = (
"336 300 LINE SMOOTH",
"336 250 OFFCURVE",
"311 220 OFFCURVE",
"257 220 CURVE SMOOTH",
"202 220 OFFCURVE",
"176 250 OFFCURVE",
"176 300 CURVE SMOOTH",
"176 350 LINE SMOOTH",
"176 400 OFFCURVE",
"201 430 OFFCURVE",
"255 430 CURVE SMOOTH",
"310 430 OFFCURVE",
"336 400 OFFCURVE",
"336 350 CURVE SMOOTH"
);
},
{
closed = 1;
nodes = (
"143 402 LINE",
"178 437 LINE",
"57 558 LINE",
"22 523 LINE"
);
},
{
closed = 1;
nodes = (
"453 92 LINE",
"488 127 LINE",
"367 248 LINE",
"332 213 LINE"
);
},
{
closed = 1;
nodes = (
"178 213 LINE",
"143 248 LINE",
"22 127 LINE",
"57 92 LINE"
);
},
{
closed = 1;
nodes = (
"488 523 LINE",
"453 558 LINE",
"332 437 LINE",
"367 402 LINE"
);
}
);
width = 510;
}
);
unicode = 00A4;
},
{
glyphname = dollar;
layers = (
{
hints = (
{
place = "{86, 70}";
type = Stem;
},
{
place = "{230, 50}";
type = Stem;
},
{
horizontal = 1;
place = "{-15, 60}";
type = Stem;
},
{
horizontal = 1;
place = "{605, 60}";
type = Stem;
},
{
horizontal = 1;
place = "{-100, 21}";
target = up;
type = BottomGhost;
},
{
horizontal = 1;
place = "{750, -20}";
target = down;
type = TopGhost;
}
);
layerId = UUID0;
paths = (
{
closed = 1;
nodes = (
"194 433 LINE SMOOTH",
"160 464 OFFCURVE",
"156 487 OFFCURVE",
"156 529 CURVE SMOOTH",
"156 575 OFFCURVE",
"186 605 OFFCURVE",
"250 605 CURVE SMOOTH",
"314 605 OFFCURVE",
"344 575 OFFCURVE",
"344 529 CURVE SMOOTH",
"344 440 LINE",
"414 440 LINE",
"414 525 LINE SMOOTH",
"414 612 OFFCURVE",
"365 665 OFFCURVE",
"253 665 CURVE SMOOTH",
"139 665 OFFCURVE",
"86 612 OFFCURVE",
"86 525 CURVE SMOOTH",
"86 467 OFFCURVE",
"98 432 OFFCURVE",
"140 390 CURVE SMOOTH",
"316 218 LINE SMOOTH",
"349 186 OFFCURVE",
"354 162 OFFCURVE",
"354 121 CURVE SMOOTH",
"354 75 OFFCURVE",
"322 45 OFFCURVE",
"255 45 CURVE SMOOTH",
"188 45 OFFCURVE",
"156 75 OFFCURVE",
"156 121 CURVE SMOOTH",
"156 210 LINE",
"86 210 LINE",
"86 125 LINE SMOOTH",
"86 38 OFFCURVE",
"137 -15 OFFCURVE",
"255 -15 CURVE SMOOTH",
"373 -15 OFFCURVE",
"424 38 OFFCURVE",
"424 125 CURVE SMOOTH",
"424 184 OFFCURVE",
"413 218 OFFCURVE",
"373 261 CURVE SMOOTH"
);
},
{
closed = 1;
nodes = (
"230 -100 LINE",
"280 -100 LINE",
"280 750 LINE",
"230 750 LINE"
);
}
);
width = 510;
}
);
unicode = 0024;
},
{
glyphname = dong;
layers = (
{
components = (
{
name = strokeshortcomb;
transform = "{1, 0, 0, 1, 113, 207}";
},
{
name = strokeshortcomb;
transform = "{1.25254, 0, 0, 1, -52, -423}";
}
);
hints = (
{
horizontal = 1;
origin = "{0, 10}";
target = "{1, 2}";
type = Stem;
},
{
horizontal = 1;
origin = "{1, 9}";
target = "{0, 3}";
type = Stem;
},
{
horizontal = 1;
origin = "{2, 0}";
target = down;
type = TopGhost;
},
{
origin = "{0, 7}";
target = "{1, 5}";
type = Stem;
},
{
origin = "{1, 13}";
target = "{0, 13}";
type = Stem;
}
);
layerId = UUID0;
paths = (
{
closed = 1;
nodes = (
"395 258 LINE SMOOTH",
"395 345 OFFCURVE",
"371 428 OFFCURVE",
"256 428 CURVE SMOOTH",
"141 428 OFFCURVE",
"85 375 OFFCURVE",
"85 288 CURVE SMOOTH",
"85 125 LINE SMOOTH",
"85 38 OFFCURVE",
"139 -15 OFFCURVE",
"254 -15 CURVE SMOOTH",
"369 -15 OFFCURVE",
"425 38 OFFCURVE",
"425 125 CURVE SMOOTH",
"395 159 LINE"
);
},
{
closed = 1;
nodes = (
"355 75 OFFCURVE",
"322 45 OFFCURVE",
"254 45 CURVE SMOOTH",
"187 45 OFFCURVE",
"155 75 OFFCURVE",
"155 125 CURVE SMOOTH",
"155 288 LINE SMOOTH",
"155 338 OFFCURVE",
"188 368 OFFCURVE",
"256 368 CURVE SMOOTH",
"323 368 OFFCURVE",
"355 338 OFFCURVE",
"355 288 CURVE SMOOTH",
"355 125 LINE SMOOTH"
);
},
{
closed = 1;
nodes = (
"355 650 LINE",
"355 126 LINE",
"425 126 LINE",
"425 650 LINE"
);
}
);
width = 510;
}
);
unicode = 20AB;
},
{
glyphname = euro;
layers = (
{
components = (
{
name = strokelongcomb;
transform = "{0.72767, 0, 0, 1, 45, 59}";
},
{
name = strokelongcomb;
transform = "{0.72767, 0, 0, 1, 45, -81}";
}
);
hints = (
{
place = "{125, 70}";
type = Stem;
},
{
horizontal = 1;
place = "{-15, 60}";
type = Stem;
},
{
horizontal = 1;
place = "{225, 50}";
type = Stem;
},
{
horizontal = 1;
place = "{375, 50}";
type = Stem;
},
{
horizontal = 1;
place = "{605, 60}";
type = Stem;
}
);
layerId = UUID0;
paths = (
{
closed = 1;
nodes = (
"391 -15 OFFCURVE",
"445 28 OFFCURVE",
"455 99 CURVE",
"395 118 LINE",
"387 66 OFFCURVE",
"354 45 OFFCURVE",
"291 45 CURVE SMOOTH",
"226 45 OFFCURVE",
"195 75 OFFCURVE",
"195 125 CURVE SMOOTH",
"195 525 LINE SMOOTH",
"195 575 OFFCURVE",
"225 605 OFFCURVE",
"289 605 CURVE SMOOTH",
"352 605 OFFCURVE",
"385 584 OFFCURVE",
"393 532 CURVE",
"453 551 LINE",
"443 622 OFFCURVE",
"389 665 OFFCURVE",
"289 665 CURVE SMOOTH",
"177 665 OFFCURVE",
"125 612 OFFCURVE",
"125 525 CURVE SMOOTH",
"125 125 LINE SMOOTH",
"125 38 OFFCURVE",
"179 -15 OFFCURVE",
"291 -15 CURVE SMOOTH"
);
}
);
width = 510;
}
);
unicode = 20AC;
},
{
glyphname = florin;
layers = (
{
hints = (
{
place = "{190, 70}";
type = Stem;
},
{
place = "{398, 70}";
type = Stem;
},
{
horizontal = 1;
place = "{294, 50}";
type = Stem;
},
{
horizontal = 1;
place = "{609, 60}";
type = Stem;
},
{
horizontal = 1;
place = "{-107, 21}";
target = up;
type = BottomGhost;
}
);
layerId = UUID0;
paths = (
{
closed = 1;
nodes = (
"144 -107 LINE",
"223 -93 OFFCURVE",
"260 -44 OFFCURVE",
"260 29 CURVE SMOOTH",
"260 533 LINE SMOOTH",
"260 579 OFFCURVE",
"283 609 OFFCURVE",
"333 609 CURVE SMOOTH",
"377 609 OFFCURVE",
"398 579 OFFCURVE",
"398 533 CURVE SMOOTH",
"398 494 LINE",
"468 494 LINE",
"468 529 LINE SMOOTH",
"468 616 OFFCURVE",
"419 669 OFFCURVE",
"335 669 CURVE SMOOTH",
"243 669 OFFCURVE",
"190 616 OFFCURVE",
"190 529 CURVE SMOOTH",
"190 25 LINE SMOOTH",
"190 -17 OFFCURVE",
"178 -39 OFFCURVE",
"125 -48 CURVE"
);
},
{
closed = 1;
nodes = (
"398 344 LINE",
"90 344 LINE",
"90 294 LINE",
"398 294 LINE"
);
}
);
width = 510;
}
);
unicode = 0192;
},
{
glyphname = kip;
layers = (
{
anchors = (
{
name = bottom;
position = "{248, 0}";
},
{
name = top;
position = "{248, 650}";
}
);
components = (
{
name = strokelongcomb;
transform = "{0.83312, 0, 0, 1, 8, 0}";
}
);
hints = (
{
place = "{101, 70}";
type = Stem;
},
{
horizontal = 1;
place = "{0, 21}";
target = up;
type = BottomGhost;
},
{
horizontal = 1;
place = "{650, -20}";
target = down;
type = TopGhost;
}
);
layerId = UUID0;
paths = (
{
closed = 1;
nodes = (
"170 313 LINE",
"356 0 LINE",
"434 0 LINE",
"226 339 LINE"
);
},
{
closed = 1;
nodes = (
"170 650 LINE",
"100 650 LINE",
"100 0 LINE",
"170 0 LINE"
);
},
{
closed = 1;
nodes = (
"424 650 LINE",
"347 650 LINE",
"170 337 LINE",
"226 311 LINE"
);
}
);
width = 455;
}
);
unicode = 20AD;
},
{
glyphname = lira;
layers = (
{
components = (
{
name = strokelongcomb;
transform = "{0.66919, 0, 0, 1, 37, 15}";
},
{
name = strokelongcomb;
transform = "{0.66919, 0, 0, 1, 37, -125}";
}
);
hints = (
{
place = "{95, 70}";
type = Stem;
},
{
place = "{348, 70}";
type = Stem;
},
{
horizontal = 1;
place = "{0, 60}";
type = Stem;
},
{
horizontal = 1;
place = "{170, 50}";
type = Stem;
},
{
horizontal = 1;
place = "{320, 50}";
type = Stem;
},
{
horizontal = 1;
place = "{605, 60}";
type = Stem;
}
);
layerId = UUID0;
paths = (
{
closed = 1;
nodes = (
"170 529 LINE SMOOTH",
"171 575 OFFCURVE",
"200 605 OFFCURVE",
"264 605 CURVE SMOOTH",
"321 605 OFFCURVE",
"348 575 OFFCURVE",
"348 529 CURVE SMOOTH",
"348 470 LINE",
"418 470 LINE",
"418 525 LINE SMOOTH",
"418 612 OFFCURVE",
"369 665 OFFCURVE",
"267 665 CURVE SMOOTH",
"153 665 OFFCURVE",
"102 612 OFFCURVE",
"100 525 CURVE SMOOTH",
"91 55 LINE",
"161 60 LINE"
);
},
{
closed = 1;
nodes = (
"428 60 LINE",
"106 60 LINE",
"91 55 LINE",
"61 0 LINE",
"428 0 LINE"
);
}
);
width = 510;
}
);
unicode = 20A4;
},
{
glyphname = liraTurkish;
layers = (
{
hints = (
{
horizontal = 1;
origin = "{2, 7}";
target = "{2, 4}";
type = Stem;
},
{
horizontal = 1;
origin = "{2, 6}";
target = down;
type = TopGhost;
},
{
origin = "{2, 6}";
target = "{2, 4}";
type = Stem;
},
{
origin = "{2, 0}";
target = "{2, 11}";
type = Stem;
}
);
layerId = UUID0;
paths = (
{
closed = 1;
nodes = (
"50.384 320 LINE",
"308 440 LINE",
"308 490 LINE",
"50.384 370 LINE"
);
},
{
closed = 1;
nodes = (
"50.384 180 LINE",
"308 300 LINE",
"308 350 LINE",
"50.384 230 LINE"
);
},
{
closed = 1;
nodes = (
"323 136 LINE SMOOTH",
"323 90 OFFCURVE",
"296 60 OFFCURVE",
"239 60 CURVE SMOOTH",
"161 60 LINE",
"161 650 LINE",
"91 650 LINE",
"92 0 LINE",
"242 0 LINE SMOOTH",
"344 0 OFFCURVE",
"393 53 OFFCURVE",
"393 140 CURVE SMOOTH",
"393 195 LINE",
"323 195 LINE"
);
}
);
width = 443;
}
);
unicode = 20BA;
},
{
glyphname = manat;
layers = (
{
components = (
{
name = thinbar;
transform = "{1, 0, 0, 0.62007, 130, 185}";
}
);
hints = (
{
place = "{430, -70}";
type = Stem;
},
{
place = "{160, -70}";
type = Stem;
},
{
horizontal = 1;
place = "{665, -60}";
type = Stem;
},
{
horizontal = 1;
place = "{0, 21}";
target = up;
type = BottomGhost;
}
);
layerId = UUID0;
paths = (
{
closed = 1;
nodes = (
"160 405 LINE SMOOTH",
"160 455 OFFCURVE",
"192 485 OFFCURVE",
"259 485 CURVE SMOOTH",
"327 485 OFFCURVE",
"360 455 OFFCURVE",
"360 405 CURVE SMOOTH",
"360 0 LINE",
"430 0 LINE",
"430 405 LINE SMOOTH",
"430 492 OFFCURVE",
"374 545 OFFCURVE",
"259 545 CURVE SMOOTH",
"144 545 OFFCURVE",
"90 492 OFFCURVE",
"90 405 CURVE SMOOTH",
"90 0 LINE",
"160 0 LINE"
);
}
);
width = 520;
}
);
unicode = 20BC;
},
{
glyphname = rupeeIndian;
layers = (
{
anchors = (
{
name = bottom;
position = "{251, 0}";
},
{
name = top;
position = "{231, 650}";
}
);
components = (
{
name = strokelongcomb;
transform = "{0.88805, 0, 0, 1, 32, 295}";
},
{
name = strokelongcomb;
transform = "{0.88805, 0, 0, 1, 32, 135}";
}
);
hints = (
{
place = "{100, 70}";
type = Stem;
},
{
place = "{340, 70}";
type = Stem;
},
{
horizontal = 1;
place = "{230, 60}";
type = Stem;
},
{
horizontal = 1;
place = "{590, 60}";
type = Stem;
},
{
horizontal = 1;
place = "{0, 21}";
target = up;
type = BottomGhost;
}
);
layerId = UUID0;
paths = (
{
closed = 1;
nodes = (
"144 303 LINE",
"344 0 LINE",
"422 0 LINE",
"204 329 LINE"
);
},
{
closed = 1;
nodes = (
"398 510 LINE SMOOTH",
"398 596 OFFCURVE",
"345 650 OFFCURVE",
"239 650 CURVE SMOOTH",
"88 650 LINE",
"88 600 LINE",
"239 600 LINE SMOOTH",
"298 600 OFFCURVE",
"328 569 OFFCURVE",
"328 520 CURVE SMOOTH",
"328 410 LINE SMOOTH",
"328 361 OFFCURVE",
"298 330 OFFCURVE",
"239 330 CURVE SMOOTH",
"144 330 LINE",
"144 303 LINE",
"183 270 LINE",
"239 270 LINE SMOOTH",
"345 270 OFFCURVE",
"398 324 OFFCURVE",
"398 410 CURVE SMOOTH"
);
}
);
width = 473;
}
);
unicode = 20B9;
},
{
glyphname = sterling;
layers = (
{
components = (
{
name = strokeshortcomb;
transform = "{1.18462, 0, 0, 1, -86, -45}";
}
);
hints = (
{
place = "{95, 70}";
type = Stem;
},
{
place = "{348, 70}";
type = Stem;
},
{
horizontal = 1;
place = "{0, 60}";
type = Stem;
},
{
horizontal = 1;
place = "{260, 50}";
type = Stem;
},
{
horizontal = 1;
place = "{605, 60}";
type = Stem;
}
);
layerId = UUID0;
paths = (
{
closed = 1;
nodes = (
"170 529 LINE SMOOTH",
"171 575 OFFCURVE",
"200 605 OFFCURVE",
"264 605 CURVE SMOOTH",
"321 605 OFFCURVE",
"348 575 OFFCURVE",
"348 529 CURVE SMOOTH",
"348 440 LINE",
"418 440 LINE",
"418 525 LINE SMOOTH",
"418 612 OFFCURVE",
"369 665 OFFCURVE",
"267 665 CURVE SMOOTH",
"153 665 OFFCURVE",
"102 612 OFFCURVE",
"100 525 CURVE SMOOTH",
"91 55 LINE",
"161 60 LINE"
);
},
{
closed = 1;
nodes = (
"428 60 LINE",
"106 60 LINE",
"91 55 LINE",
"61 0 LINE",
"428 0 LINE"
);
}
);
width = 510;
}
);
unicode = 00A3;
},
{
glyphname = yen;
layers = (
{
components = (
{
name = strokelongcomb;
transform = "{0.78177, 0, 0, 1, 60, -45}";
},
{
name = strokelongcomb;
transform = "{0.78177, 0, 0, 1, 60, -185}";
}
);
hints = (
{
place = "{220, 51}";
type = Stem;
},
{
place = "{239, 51}";
type = Stem;
},
{
horizontal = 1;
place = "{110, 50}";
type = Stem;
},
{
horizontal = 1;
place = "{260, 50}";
type = Stem;
},
{
horizontal = 1;
place = "{650, -20}";
target = down;
type = TopGhost;
},
{
horizontal = 1;
place = "{0, 21}";
target = up;
type = BottomGhost;
}
);
layerId = UUID0;
paths = (
{
closed = 1;
nodes = (
"275 262 LINE",
"129 650 LINE",
"55 650 LINE",
"267 114 LINE"
);
},
{
closed = 1;
nodes = (
"290 0 LINE",
"290 260 LINE",
"220 260 LINE",
"220 0 LINE"
);
},
{
closed = 1;
nodes = (
"243 114 LINE",
"455 650 LINE",
"381 650 LINE",
"235 262 LINE"
);
}
);
width = 510;
}
);
unicode = 00A5;
},
{
glyphname = plus;
layers = (
{
hints = (
{
place = "{225, 60}";
type = Stem;
},
{
horizontal = 1;
place = "{295, 60}";
type = Stem;
},
{
horizontal = 1;
place = "{485, -20}";
target = down;
type = TopGhost;
},
{
horizontal = 1;
place = "{165, 21}";
target = up;
type = BottomGhost;
}
);
layerId = UUID0;
paths = (
{
closed = 1;
nodes = (
"415 355 LINE",
"95 355 LINE",
"95 295 LINE",
"415 295 LINE"
);
},
{
closed = 1;
nodes = (
"225 485 LINE",
"225 165 LINE",
"285 165 LINE",
"285 485 LINE"
);
}
);
width = 510;
}
);
leftMetricsKey = minus;
rightMetricsKey = minus;
unicode = 002B;
},
{
glyphname = minus;
layers = (
{
hints = (
{
horizontal = 1;
place = "{295, 60}";
type = Stem;
}
);
layerId = UUID0;
paths = (
{
closed = 1;
nodes = (
"415 355 LINE",
"95 355 LINE",
"95 295 LINE",
"415 295 LINE"
);
}
);
width = 510;
}
);
unicode = 2212;
},
{
glyphname = multiply;
layers = (
{
hints = (
{
horizontal = 1;
place = "{173, 21}";
target = up;
type = BottomGhost;
},
{
horizontal = 1;
place = "{477, -20}";
target = down;
type = TopGhost;
}
);
layerId = UUID0;
paths = (
{
closed = 1;
nodes = (
"103 435 LINE",
"365 173 LINE",
"407 215 LINE",
"145 477 LINE"
);
},
{
closed = 1;
nodes = (
"145 173 LINE",
"407 435 LINE",
"365 477 LINE",
"103 215 LINE"
);
}
);
width = 510;
}
);
unicode = 00D7;
},
{
glyphname = greater;
layers = (
{
hints = (
{
horizontal = 1;
place = "{517, -20}";
target = down;
type = TopGhost;
},
{
horizontal = 1;
place = "{133, 21}";
target = up;
type = BottomGhost;
}
);
layerId = UUID0;
paths = (
{
closed = 1;
nodes = (
"415 347 LINE",
"122 517 LINE",
"95 464 LINE",
"338 325 LINE",
"95 186 LINE",
"122 133 LINE",
"415 303 LINE"
);
}
);
width = 510;
}
);
unicode = 003E;
},
{
glyphname = logicalnot;
layers = (
{
hints = (
{
place = "{361, 54}";
type = Stem;
},
{
horizontal = 1;
place = "{295, 60}";
type = Stem;
}
);
layerId = UUID0;
paths = (
{
closed = 1;
nodes = (
"361 295 LINE",
"361 175 LINE",
"415 175 LINE",
"415 355 LINE",
"95 355 LINE",
"95 295 LINE"
);
}
);
width = 510;
}
);
leftMetricsKey = minus;
rightMetricsKey = minus;
unicode = 00AC;
},
{
glyphname = asciitilde;
layers = (
{
hints = (
{
horizontal = 1;
place = "{269, 60}";
type = Stem;
},
{
horizontal = 1;
place = "{318, 60}";
type = Stem;
}
);
layerId = UUID0;
paths = (
{
closed = 1;
nodes = (
"415 355 LINE",
"391 370 OFFCURVE",
"364 378 OFFCURVE",
"336 378 CURVE SMOOTH",
"276 378 OFFCURVE",
"220 329 OFFCURVE",
"166 329 CURVE SMOOTH",
"139 329 OFFCURVE",
"115 338 OFFCURVE",
"95 355 CURVE",
"95 295 LINE",
"116 277 OFFCURVE",
"142 269 OFFCURVE",
"168 269 CURVE SMOOTH",
"231 269 OFFCURVE",
"285 318 OFFCURVE",
"340 318 CURVE SMOOTH",
"367 318 OFFCURVE",
"393 310 OFFCURVE",
"415 295 CURVE"
);
}
);
width = 510;
}
);
unicode = 007E;
},
{
glyphname = infinity;
layers = (
{
hints = (
{
place = "{70, 61}";
type = Stem;
},
{
place = "{605, 61}";
type = Stem;
},
{
horizontal = 1;
place = "{156, 55}";
type = Stem;
},
{
horizontal = 1;
place = "{429, 55}";
type = Stem;
}
);
layerId = UUID0;
paths = (
{
closed = 1;
nodes = (
"245 156 LINE SMOOTH",
"311 156 OFFCURVE",
"333 187 OFFCURVE",
"368 252 CURVE",
"406 187 OFFCURVE",
"434 156 OFFCURVE",
"501 156 CURVE SMOOTH",
"526 156 LINE",
"613 156 OFFCURVE",
"666 209 OFFCURVE",
"666 323 CURVE SMOOTH",
"666 435 OFFCURVE",
"613 484 OFFCURVE",
"526 484 CURVE SMOOTH",
"491 484 LINE SMOOTH",
"424 484 OFFCURVE",
"402 452 OFFCURVE",
"367 388 CURVE",
"329 452 OFFCURVE",
"301 484 OFFCURVE",
"235 484 CURVE SMOOTH",
"210 484 LINE SMOOTH",
"123 484 OFFCURVE",
"70 431 OFFCURVE",
"70 317 CURVE SMOOTH",
"70 205 OFFCURVE",
"123 156 OFFCURVE",
"210 156 CURVE SMOOTH"
);
},
{
closed = 1;
nodes = (
"156 211 OFFCURVE",
"131 249 OFFCURVE",
"131 320 CURVE SMOOTH",
"131 391 OFFCURVE",
"156 429 OFFCURVE",
"202 429 CURVE SMOOTH",
"235 429 LINE SMOOTH",
"275 429 OFFCURVE",
"313 385 OFFCURVE",
"343 320 CURVE",
"313 245 OFFCURVE",
"285 211 OFFCURVE",
"245 211 CURVE SMOOTH",
"202 211 LINE SMOOTH"
);
},
{
closed = 1;
nodes = (
"461 211 OFFCURVE",
"423 255 OFFCURVE",
"393 320 CURVE",
"423 395 OFFCURVE",
"451 429 OFFCURVE",
"491 429 CURVE SMOOTH",
"534 429 LINE SMOOTH",
"580 429 OFFCURVE",
"605 391 OFFCURVE",
"605 320 CURVE SMOOTH",
"605 249 OFFCURVE",
"580 211 OFFCURVE",
"534 211 CURVE SMOOTH",
"501 211 LINE SMOOTH"
);
}
);
width = 736;
}
);
unicode = 221E;
},
{
glyphname = integral;
layers = (
{
hints = (
{
horizontal = 1;
origin = "{0, 11}";
target = "{0, 12}";
type = Stem;
},
{
horizontal = 1;
origin = "{0, 4}";
target = "{0, 3}";
type = Stem;
},
{
origin = "{0, 8}";
target = "{0, 15}";
type = Stem;
}
);
layerId = UUID0;
paths = (
{
closed = 1;
nodes = (
"227 529 LINE SMOOTH",
"227 575 OFFCURVE",
"257 605 OFFCURVE",
"321 605 CURVE",
"324 665 LINE",
"210 665 OFFCURVE",
"157 612 OFFCURVE",
"157 525 CURVE SMOOTH",
"157 21 LINE SMOOTH",
"157 -25 OFFCURVE",
"127 -55 OFFCURVE",
"63 -55 CURVE",
"60 -115 LINE",
"174 -115 OFFCURVE",
"227 -62 OFFCURVE",
"227 25 CURVE SMOOTH"
);
}
);
width = 384;
}
);
unicode = 222B;
},
{
glyphname = Ohm;
layers = (
{
hints = (
{
place = "{85, 70}";
type = Stem;
},
{
place = "{155, 60}";
type = Stem;
},
{
place = "{334, 60}";
type = Stem;
},
{
place = "{395, 70}";
type = Stem;
},
{
horizontal = 1;
place = "{0, 60}";
type = Stem;
},
{
horizontal = 1;
place = "{605, 60}";
type = Stem;
}
);
layerId = UUID0;
paths = (
{
closed = 1;
nodes = (
"395 245 LINE SMOOTH",
"395 208 OFFCURVE",
"375 203 OFFCURVE",
"334 191 CURVE",
"334 129 LINE",
"423 143 OFFCURVE",
"465 172 OFFCURVE",
"465 245 CURVE SMOOTH",
"465 525 LINE SMOOTH",
"465 612 OFFCURVE",
"402 665 OFFCURVE",
"274 665 CURVE SMOOTH",
"145 665 OFFCURVE",
"85 612 OFFCURVE",
"85 525 CURVE SMOOTH",
"85 245 LINE SMOOTH",
"85 173 OFFCURVE",
"128 144 OFFCURVE",
"215 129 CURVE",
"215 192 LINE",
"175 204 OFFCURVE",
"155 210 OFFCURVE",
"155 245 CURVE SMOOTH",
"155 525 LINE SMOOTH",
"155 575 OFFCURVE",
"193 605 OFFCURVE",
"274 605 CURVE SMOOTH",
"355 605 OFFCURVE",
"395 575 OFFCURVE",
"395 525 CURVE SMOOTH"
);
},
{
closed = 1;
nodes = (
"334 0 LINE",
"494 0 LINE",
"494 60 LINE",
"334 60 LINE"
);
},
{
closed = 1;
nodes = (
"215 60 LINE",
"55 60 LINE",
"55 0 LINE",
"215 0 LINE"
);
},
{
closed = 1;
nodes = (
"215 0 LINE",
"215 182 LINE",
"155 182 LINE",
"155 0 LINE"
);
},
{
closed = 1;
nodes = (
"394 0 LINE",
"394 182 LINE",
"334 182 LINE",
"334 0 LINE"
);
}
);
width = 550;
}
);
unicode = 2126;
},
{
glyphname = increment;
layers = (
{
hints = (
{
horizontal = 1;
place = "{0, 60}";
type = Stem;
},
{
horizontal = 1;
place = "{650, -20}";
target = down;
type = TopGhost;
}
);
layerId = UUID0;
paths = (
{
closed = 1;
nodes = (
"50 0 LINE",
"489 0 LINE",
"489 55 LINE",
"294 650 LINE",
"245 650 LINE",
"50 55 LINE"
);
},
{
closed = 1;
nodes = (
"419 60 LINE",
"120 60 LINE",
"269 526 LINE"
);
}
);
width = 539;
}
);
unicode = 2206;
},
{
glyphname = product;
layers = (
{
hints = (
{
place = "{140, 70}";
type = Stem;
},
{
place = "{440, 70}";
type = Stem;
},
{
horizontal = 1;
place = "{590, 60}";
type = Stem;
},
{
horizontal = 1;
place = "{-100, 21}";
target = up;
type = BottomGhost;
}
);
layerId = UUID0;
paths = (
{
closed = 1;
nodes = (
"210 -100 LINE",
"210 590 LINE",
"440 590 LINE",
"440 -100 LINE",
"510 -100 LINE",
"510 590 LINE",
"570 590 LINE",
"570 650 LINE",
"80 650 LINE",
"80 590 LINE",
"140 590 LINE",
"140 -100 LINE"
);
}
);
width = 650;
}
);
unicode = 220F;
},
{
glyphname = summation;
layers = (
{
hints = (
{
horizontal = 1;
place = "{-100, 60}";
type = Stem;
},
{
horizontal = 1;
place = "{590, 60}";
type = Stem;
}
);
layerId = UUID0;
paths = (
{
closed = 1;
nodes = (
"145 -40 LINE",
"305 275 LINE",
"145 590 LINE",
"440 590 LINE",
"440 650 LINE",
"100 650 LINE",
"60 610 LINE",
"230 275 LINE",
"60 -60 LINE",
"100 -100 LINE",
"440 -100 LINE",
"440 -40 LINE"
);
}
);
width = 490;
}
);
unicode = 2211;
},
{
glyphname = radical;
layers = (
{
hints = (
{
horizontal = 1;
place = "{700, 50}";
type = Stem;
},
{
horizontal = 1;
place = "{0, 21}";
target = up;
type = BottomGhost;
}
);
layerId = UUID0;
paths = (
{
closed = 1;
nodes = (
"231 0 LINE",
"124 349 LINE",
"60 331 LINE",
"163 0 LINE"
);
},
{
closed = 1;
nodes = (
"258 0 LINE",
"428 750 LINE",
"358 750 LINE",
"190 0 LINE"
);
},
{
closed = 1;
nodes = (
"369 700 LINE",
"561 700 LINE",
"561 750 LINE",
"369 750 LINE"
);
}
);
width = 481;
}
);
unicode = 221A;
},
{
glyphname = micro;
layers = (
{
hints = (
{
horizontal = 1;
origin = "{0, 6}";
target = "{0, 15}";
type = Stem;
},
{
horizontal = 1;
origin = "{0, 0}";
target = down;
type = TopGhost;
},
{
origin = "{0, 1}";
target = "{0, 18}";
type = Stem;
},
{
origin = "{0, 12}";
target = "{0, 9}";
type = Stem;
}
);
layerId = UUID0;
paths = (
{
closed = 1;
nodes = (
"90 650 LINE",
"90 -250 LINE",
"120 -250 LINE",
"151 23 LINE",
"174 0 OFFCURVE",
"210 -15 OFFCURVE",
"261 -15 CURVE SMOOTH",
"376 -15 OFFCURVE",
"430 38 OFFCURVE",
"430 125 CURVE SMOOTH",
"430 650 LINE",
"360 650 LINE",
"360 125 LINE SMOOTH",
"360 75 OFFCURVE",
"328 45 OFFCURVE",
"261 45 CURVE SMOOTH",
"193 45 OFFCURVE",
"160 75 OFFCURVE",
"160 125 CURVE SMOOTH",
"160 650 LINE"
);
}
);
width = 525;
}
);
unicode = 00B5;
},
{
glyphname = partialdiff;
layers = (
{
hints = (
{
horizontal = 1;
place = "{-15, 60}";
type = Stem;
},
{
horizontal = 1;
place = "{455, 60}";
type = Stem;
},
{
horizontal = 1;
place = "{750, -20}";
target = down;
type = TopGhost;
}
);
layerId = UUID0;
paths = (
{
closed = 1;
nodes = (
"316 509 LINE",
"302 513 OFFCURVE",
"286 515 OFFCURVE",
"277 515 CURVE SMOOTH",
"176 515 OFFCURVE",
"114 462 OFFCURVE",
"102 375 CURVE SMOOTH",
"67 125 LINE SMOOTH",
"66 116 OFFCURVE",
"65 108 OFFCURVE",
"65 100 CURVE SMOOTH",
"65 28 OFFCURVE",
"114 -15 OFFCURVE",
"218 -15 CURVE SMOOTH",
"333 -15 OFFCURVE",
"395 38 OFFCURVE",
"407 125 CURVE SMOOTH",
"442 375 LINE SMOOTH",
"443 384 OFFCURVE",
"444 392 OFFCURVE",
"444 400 CURVE SMOOTH",
"444 455 OFFCURVE",
"402 515 OFFCURVE",
"350 588 CURVE SMOOTH",
"237 750 LINE",
"160 750 LINE",
"322 515 LINE"
);
},
{
closed = 1;
nodes = (
"337 125 LINE SMOOTH",
"330 75 OFFCURVE",
"294 45 OFFCURVE",
"227 45 CURVE SMOOTH",
"165 45 OFFCURVE",
"136 69 OFFCURVE",
"136 111 CURVE SMOOTH",
"136 115 OFFCURVE",
"136 120 OFFCURVE",
"137 125 CURVE SMOOTH",
"172 375 LINE SMOOTH",
"179 425 OFFCURVE",
"215 455 OFFCURVE",
"282 455 CURVE SMOOTH",
"343 455 OFFCURVE",
"373 430 OFFCURVE",
"373 389 CURVE SMOOTH",
"373 384 OFFCURVE",
"373 380 OFFCURVE",
"372 375 CURVE SMOOTH"
);
}
);
width = 510;
}
);
unicode = 2202;
},
{
glyphname = lozenge;
layers = (
{
hints = (
{
horizontal = 1;
place = "{-100, 21}";
target = up;
type = BottomGhost;
},
{
horizontal = 1;
place = "{650, -20}";
target = down;
type = TopGhost;
}
);
layerId = UUID0;
paths = (
{
closed = 1;
nodes = (
"245 -100 LINE",
"294 -100 LINE",
"489 275 LINE",
"294 650 LINE",
"245 650 LINE",
"50 275 LINE"
);
},
{
closed = 1;
nodes = (
"416 275 LINE",
"269 -17 LINE",
"123 275 LINE",
"269 566 LINE"
);
}
);
width = 539;
}
);
unicode = 25CA;
},
{
glyphname = apple;
layers = (
{
hints = (
{
horizontal = 1;
place = "{-102, 89}";
type = Stem;
},
{
horizontal = 1;
place = "{77, 40}";
type = Stem;
},
{
horizontal = 1;
place = "{360, 57}";
type = Stem;
},
{
horizontal = 1;
place = "{509, 77}";
type = Stem;
},
{
horizontal = 1;
place = "{-88, -20}";
target = down;
type = TopGhost;
},
{
horizontal = 1;
place = "{-89, -20}";
target = down;
type = TopGhost;
},
{
horizontal = 1;
place = "{608, -20}";
target = down;
type = TopGhost;
},
{
horizontal = 1;
place = "{-91, -20}";
target = down;
type = TopGhost;
},
{
horizontal = 1;
place = "{-114, 21}";
target = up;
type = BottomGhost;
},
{
horizontal = 1;
place = "{-6, 21}";
target = up;
type = BottomGhost;
},
{
horizontal = 1;
place = "{-15, 21}";
target = up;
type = BottomGhost;
}
);
layerId = UUID0;
paths = (
{
closed = 1;
nodes = (
"579 -88 OFFCURVE",
"583 -88 OFFCURVE",
"586 -88 CURVE SMOOTH",
"594 -88 OFFCURVE",
"601 -89 OFFCURVE",
"609 -89 CURVE SMOOTH",
"635 -89 OFFCURVE",
"637 -70 OFFCURVE",
"654 -60 CURVE SMOOTH",
"669 -52 OFFCURVE",
"690 -51 OFFCURVE",
"703 -42 CURVE SMOOTH",
"716 -33 OFFCURVE",
"721 -11 OFFCURVE",
"733 1 CURVE SMOOTH",
"743 11 OFFCURVE",
"759 12 OFFCURVE",
"768 23 CURVE SMOOTH",
"779 36 OFFCURVE",
"778 60 OFFCURVE",
"786 74 CURVE SMOOTH",
"796 91 OFFCURVE",
"820 92 OFFCURVE",
"820 120 CURVE SMOOTH",
"820 130 OFFCURVE",
"818 141 OFFCURVE",
"818 152 CURVE SMOOTH",
"818 177 OFFCURVE",
"840 180 OFFCURVE",
"843 200 CURVE",
"843 214 OFFCURVE",
"832 229 OFFCURVE",
"832 244 CURVE SMOOTH",
"832 257 OFFCURVE",
"843 269 OFFCURVE",
"843 283 CURVE SMOOTH",
"843 305 OFFCURVE",
"819 319 OFFCURVE",
"819 344 CURVE SMOOTH",
"819 352 OFFCURVE",
"820 360 OFFCURVE",
"820 369 CURVE SMOOTH",
"820 397 OFFCURVE",
"795 400 OFFCURVE",
"784 418 CURVE SMOOTH",
"778 428 OFFCURVE",
"783 450 OFFCURVE",
"777 460 CURVE SMOOTH",
"766 479 OFFCURVE",
"740 483 OFFCURVE",
"726 496 CURVE SMOOTH",
"714 508 OFFCURVE",
"716 526 OFFCURVE",
"703 535 CURVE SMOOTH",
"689 545 OFFCURVE",
"673 542 OFFCURVE",
"658 550 CURVE SMOOTH",
"639 560 OFFCURVE",
"637 586 OFFCURVE",
"610 586 CURVE SMOOTH",
"600 586 OFFCURVE",
"590 583 OFFCURVE",
"582 583 CURVE SMOOTH",
"558 583 OFFCURVE",
"551 608 OFFCURVE",
"525 608 CURVE SMOOTH",
"511 608 OFFCURVE",
"494 596 OFFCURVE",
"480 596 CURVE SMOOTH",
"467 596 OFFCURVE",
"449 608 OFFCURVE",
"436 608 CURVE SMOOTH",
"414 608 OFFCURVE",
"406 585 OFFCURVE",
"381 585 CURVE SMOOTH",
"372 585 OFFCURVE",
"363 587 OFFCURVE",
"355 587 CURVE SMOOTH",
"330 586 OFFCURVE",
"323 558 OFFCURVE",
"306 549 CURVE SMOOTH",
"290 541 OFFCURVE",
"268 543 OFFCURVE",
"255 532 CURVE SMOOTH",
"244 522 OFFCURVE",
"240 501 OFFCURVE",
"230 491 CURVE SMOOTH",
"219 480 OFFCURVE",
"198 480 OFFCURVE",
"190 467 CURVE SMOOTH",
"183 456 OFFCURVE",
"186 435 OFFCURVE",
"179 424 CURVE SMOOTH",
"169 407 OFFCURVE",
"144 401 OFFCURVE",
"144 376 CURVE SMOOTH",
"144 368 OFFCURVE",
"145 359 OFFCURVE",
"145 351 CURVE SMOOTH",
"145 332 OFFCURVE",
"120 311 OFFCURVE",
"120 290 CURVE SMOOTH",
"120 275 OFFCURVE",
"132 265 OFFCURVE",
"132 248 CURVE SMOOTH",
"132 233 OFFCURVE",
"120 218 OFFCURVE",
"120 204 CURVE SMOOTH",
"120 183 OFFCURVE",
"145 168 OFFCURVE",
"145 149 CURVE SMOOTH",
"145 141 OFFCURVE",
"142 133 OFFCURVE",
"142 124 CURVE SMOOTH",
"142 98 OFFCURVE",
"168 87 OFFCURVE",
"176 75 CURVE SMOOTH",
"187 57 OFFCURVE",
"180 46 OFFCURVE",
"191 28 CURVE SMOOTH",
"201 12 OFFCURVE",
"217 15 OFFCURVE",
"230 4 CURVE SMOOTH",
"243 -7 OFFCURVE",
"242 -31 OFFCURVE",
"260 -42 CURVE SMOOTH",
"276 -52 OFFCURVE",
"283 -43 OFFCURVE",
"306 -55 CURVE SMOOTH",
"319 -62 OFFCURVE",
"331 -91 OFFCURVE",
"357 -91 CURVE SMOOTH",
"364 -91 OFFCURVE",
"373 -89 OFFCURVE",
"381 -89 CURVE SMOOTH",
"405 -89 OFFCURVE",
"416 -114 OFFCURVE",
"436 -114 CURVE SMOOTH",
"451 -114 OFFCURVE",
"466 -102 OFFCURVE",
"482 -102 CURVE SMOOTH",
"497 -102 OFFCURVE",
"513 -112 OFFCURVE",
"528 -112 CURVE SMOOTH",
"545 -112 OFFCURVE",
"558 -94 OFFCURVE",
"576 -89 CURVE SMOOTH"
);
},
{
closed = 1;
nodes = (
"537 0 OFFCURVE",
"527 -13 OFFCURVE",
"515 -13 CURVE SMOOTH",
"504 -13 OFFCURVE",
"493 -6 OFFCURVE",
"482 -6 CURVE SMOOTH",
"470 -6 OFFCURVE",
"458 -15 OFFCURVE",
"446 -15 CURVE",
"432 -13 OFFCURVE",
"425 3 OFFCURVE",
"406 3 CURVE SMOOTH",
"401 3 OFFCURVE",
"396 2 OFFCURVE",
"391 2 CURVE SMOOTH",
"372 2 OFFCURVE",
"365 23 OFFCURVE",
"354 28 CURVE SMOOTH",
"337 37 OFFCURVE",
"332 29 OFFCURVE",
"321 37 CURVE SMOOTH",
"308 45 OFFCURVE",
"309 63 OFFCURVE",
"299 71 CURVE SMOOTH",
"290 79 OFFCURVE",
"278 77 OFFCURVE",
"271 88 CURVE SMOOTH",
"263 101 OFFCURVE",
"268 110 OFFCURVE",
"260 123 CURVE SMOOTH",
"255 132 OFFCURVE",
"235 139 OFFCURVE",
"235 158 CURVE SMOOTH",
"235 163 OFFCURVE",
"237 169 OFFCURVE",
"237 174 CURVE SMOOTH",
"237 189 OFFCURVE",
"220 200 OFFCURVE",
"220 215 CURVE SMOOTH",
"220 226 OFFCURVE",
"228 237 OFFCURVE",
"228 248 CURVE SMOOTH",
"228 260 OFFCURVE",
"220 267 OFFCURVE",
"220 278 CURVE SMOOTH",
"220 294 OFFCURVE",
"237 308 OFFCURVE",
"237 324 CURVE SMOOTH",
"237 329 OFFCURVE",
"236 335 OFFCURVE",
"236 340 CURVE SMOOTH",
"236 359 OFFCURVE",
"255 363 OFFCURVE",
"262 376 CURVE SMOOTH",
"267 384 OFFCURVE",
"265 399 OFFCURVE",
"270 407 CURVE SMOOTH",
"277 416 OFFCURVE",
"291 416 OFFCURVE",
"299 424 CURVE SMOOTH",
"307 432 OFFCURVE",
"309 447 OFFCURVE",
"318 454 CURVE SMOOTH",
"327 462 OFFCURVE",
"343 460 OFFCURVE",
"354 466 CURVE SMOOTH",
"367 472 OFFCURVE",
"371 493 OFFCURVE",
"390 493 CURVE SMOOTH",
"396 493 OFFCURVE",
"401 492 OFFCURVE",
"407 492 CURVE SMOOTH",
"426 492 OFFCURVE",
"433 509 OFFCURVE",
"449 509 CURVE SMOOTH",
"459 509 OFFCURVE",
"471 500 OFFCURVE",
"481 500 CURVE SMOOTH",
"491 500 OFFCURVE",
"503 509 OFFCURVE",
"514 509 CURVE SMOOTH",
"533 509 OFFCURVE",
"536 491 OFFCURVE",
"555 491 CURVE SMOOTH",
"561 491 OFFCURVE",
"568 493 OFFCURVE",
"575 493 CURVE SMOOTH",
"595 493 OFFCURVE",
"596 474 OFFCURVE",
"609 467 CURVE SMOOTH",
"621 460 OFFCURVE",
"632 464 OFFCURVE",
"642 456 CURVE SMOOTH",
"652 449 OFFCURVE",
"650 436 OFFCURVE",
"659 428 CURVE SMOOTH",
"669 418 OFFCURVE",
"688 415 OFFCURVE",
"696 402 CURVE SMOOTH",
"700 394 OFFCURVE",
"697 379 OFFCURVE",
"701 371 CURVE SMOOTH",
"709 357 OFFCURVE",
"727 356 OFFCURVE",
"727 335 CURVE SMOOTH",
"727 329 OFFCURVE",
"726 323 OFFCURVE",
"726 318 CURVE SMOOTH",
"726 300 OFFCURVE",
"744 289 OFFCURVE",
"744 273 CURVE SMOOTH",
"744 264 OFFCURVE",
"736 254 OFFCURVE",
"736 245 CURVE SMOOTH",
"736 234 OFFCURVE",
"744 223 OFFCURVE",
"744 213 CURVE",
"741 199 OFFCURVE",
"726 196 OFFCURVE",
"726 177 CURVE SMOOTH",
"726 171 OFFCURVE",
"727 164 OFFCURVE",
"727 157 CURVE SMOOTH",
"727 133 OFFCURVE",
"711 136 OFFCURVE",
"703 122 CURVE SMOOTH",
"697 111 OFFCURVE",
"697 94 OFFCURVE",
"690 84 CURVE SMOOTH",
"683 76 OFFCURVE",
"671 76 OFFCURVE",
"664 68 CURVE SMOOTH",
"656 60 OFFCURVE",
"652 45 OFFCURVE",
"642 38 CURVE SMOOTH",
"633 31 OFFCURVE",
"617 30 OFFCURVE",
"607 24 CURVE",
"595 19 OFFCURVE",
"594 3 OFFCURVE",
"574 3 CURVE SMOOTH",
"569 3 OFFCURVE",
"564 4 OFFCURVE",
"559 4 CURVE SMOOTH",
"556 4 OFFCURVE",
"553 4 OFFCURVE",
"550 3 CURVE SMOOTH"
);
},
{
closed = 1;
nodes = (
"388 417 OFFCURVE",
"312 341 OFFCURVE",
"312 247 CURVE SMOOTH",
"312 153 OFFCURVE",
"388 77 OFFCURVE",
"482 77 CURVE SMOOTH",
"576 77 OFFCURVE",
"652 153 OFFCURVE",
"652 247 CURVE SMOOTH",
"652 341 OFFCURVE",
"576 417 OFFCURVE",
"482 417 CURVE SMOOTH"
);
},
{
closed = 1;
nodes = (
"525 292 LINE",
"525 117 LINE",
"440 117 LINE",
"440 292 LINE",
"386 292 LINE",
"386 360 LINE",
"577 360 LINE",
"577 292 LINE"
);
}
);
width = 963;
}
);
unicode = F8FF;
},
{
glyphname = at;
layers = (
{
hints = (
{
place = "{120, 52}";
type = Stem;
},
{
place = "{246, 65}";
type = Stem;
},
{
place = "{433, 64}";
type = Stem;
},
{
place = "{574, 52}";
type = Stem;
},
{
horizontal = 1;
place = "{-65, 45}";
type = Stem;
},
{
horizontal = 1;
place = "{51, 52}";
type = Stem;
},
{
horizontal = 1;
place = "{291, 51}";
type = Stem;
},
{
horizontal = 1;
place = "{548, 52}";
type = Stem;
},
{
horizontal = 1;
place = "{670, 45}";
type = Stem;
}
);
layerId = UUID0;
paths = (
{
closed = 1;
nodes = (
"574 168 LINE",
"574 143 LINE SMOOTH",
"574 35 OFFCURVE",
"510 -20 OFFCURVE",
"374 -20 CURVE SMOOTH",
"238 -20 OFFCURVE",
"172 36 OFFCURVE",
"172 143 CURVE SMOOTH",
"172 507 LINE SMOOTH",
"172 614 OFFCURVE",
"236 670 OFFCURVE",
"371 670 CURVE SMOOTH",
"508 670 OFFCURVE",
"574 614 OFFCURVE",
"574 507 CURVE SMOOTH",
"574 342 LINE",
"626 342 LINE",
"626 507 LINE SMOOTH",
"626 636 OFFCURVE",
"543 715 OFFCURVE",
"371 715 CURVE SMOOTH",
"200 715 OFFCURVE",
"120 636 OFFCURVE",
"120 507 CURVE SMOOTH",
"120 143 LINE SMOOTH",
"120 14 OFFCURVE",
"203 -65 OFFCURVE",
"374 -65 CURVE SMOOTH",
"545 -65 OFFCURVE",
"626 14 OFFCURVE",
"626 143 CURVE SMOOTH",
"626 168 LINE"
);
},
{
closed = 1;
nodes = (
"497 489 LINE SMOOTH",
"497 559 OFFCURVE",
"456 600 OFFCURVE",
"371 600 CURVE SMOOTH",
"285 600 OFFCURVE",
"246 559 OFFCURVE",
"246 489 CURVE SMOOTH",
"246 405 LINE",
"311 405 LINE",
"311 492 LINE SMOOTH",
"311 526 OFFCURVE",
"330 548 OFFCURVE",
"371 548 CURVE SMOOTH",
"411 548 OFFCURVE",
"433 526 OFFCURVE",
"433 492 CURVE SMOOTH",
"433 342 LINE",
"356 342 LINE SMOOTH",
"267 342 OFFCURVE",
"239 299 OFFCURVE",
"239 235 CURVE SMOOTH",
"239 162 LINE SMOOTH",
"239 92 OFFCURVE",
"280 51 OFFCURVE",
"365 51 CURVE SMOOTH",
"454 51 OFFCURVE",
"497 92 OFFCURVE",
"497 162 CURVE SMOOTH"
);
},
{
closed = 1;
nodes = (
"433 159 LINE SMOOTH",
"433 125 OFFCURVE",
"413 103 OFFCURVE",
"369 103 CURVE SMOOTH",
"325 103 OFFCURVE",
"305 124 OFFCURVE",
"305 158 CURVE SMOOTH",
"305 238 LINE SMOOTH",
"305 266 OFFCURVE",
"312 291 OFFCURVE",
"351 291 CURVE SMOOTH",
"433 291 LINE"
);
},
{
closed = 1;
nodes = (
"497 291 LINE",
"626 291 LINE",
"626 342 LINE",
"497 342 LINE"
);
}
);
width = 746;
}
);
unicode = 0040;
},
{
glyphname = ampersand;
layers = (
{
hints = (
{
place = "{70, 70}";
type = Stem;
},
{
place = "{90, 70}";
type = Stem;
},
{
place = "{348, 60}";
type = Stem;
},
{
horizontal = 1;
place = "{-15, 60}";
type = Stem;
},
{
horizontal = 1;
place = "{300, 60}";
type = Stem;
},
{
horizontal = 1;
place = "{605, 60}";
type = Stem;
}
);
layerId = UUID0;
paths = (
{
closed = 1;
nodes = (
"232 337 LINE",
"198 384 OFFCURVE",
"160 437 OFFCURVE",
"160 475 CURVE SMOOTH",
"160 529 LINE SMOOTH",
"160 575 OFFCURVE",
"190 605 OFFCURVE",
"254 605 CURVE SMOOTH",
"318 605 OFFCURVE",
"348 575 OFFCURVE",
"348 529 CURVE SMOOTH",
"348 440 LINE",
"418 440 LINE",
"418 525 LINE SMOOTH",
"418 612 OFFCURVE",
"369 665 OFFCURVE",
"257 665 CURVE SMOOTH",
"143 665 OFFCURVE",
"90 612 OFFCURVE",
"90 525 CURVE SMOOTH",
"90 475 LINE SMOOTH",
"90 434 OFFCURVE",
"114 390 OFFCURVE",
"160 322 CURVE"
);
},
{
closed = 1;
nodes = (
"70 125 LINE SMOOTH",
"70 38 OFFCURVE",
"121 -15 OFFCURVE",
"239 -15 CURVE SMOOTH",
"357 -15 OFFCURVE",
"408 38 OFFCURVE",
"408 125 CURVE SMOOTH",
"408 300 LINE",
"338 300 LINE",
"338 121 LINE SMOOTH",
"338 75 OFFCURVE",
"306 45 OFFCURVE",
"239 45 CURVE SMOOTH",
"172 45 OFFCURVE",
"140 75 OFFCURVE",
"140 121 CURVE SMOOTH",
"140 215 LINE SMOOTH",
"140 254 OFFCURVE",
"150 300 OFFCURVE",
"209 300 CURVE SMOOTH",
"489 300 LINE",
"489 360 LINE",
"209 360 LINE SMOOTH",
"103 360 OFFCURVE",
"70 301 OFFCURVE",
"70 215 CURVE SMOOTH"
);
}
);
width = 510;
}
);
unicode = 0026;
},
{
glyphname = paragraph;
layers = (
{
hints = (
{
place = "{50, 70}";
type = Stem;
},
{
place = "{169, 70}";
type = Stem;
},
{
place = "{308, 70}";
type = Stem;
},
{
horizontal = 1;
place = "{240, 60}";
type = Stem;
},
{
horizontal = 1;
place = "{605, 60}";
type = Stem;
},
{
horizontal = 1;
place = "{0, 21}";
target = up;
type = BottomGhost;
}
);
layerId = UUID0;
paths = (
{
closed = 1;
nodes = (
"239 300 LINE",
"198 349 LINE SMOOTH",
"160 395 OFFCURVE",
"120 435 OFFCURVE",
"120 475 CURVE SMOOTH",
"120 529 LINE SMOOTH",
"120 575 OFFCURVE",
"150 605 OFFCURVE",
"214 605 CURVE SMOOTH",
"278 605 OFFCURVE",
"308 575 OFFCURVE",
"308 529 CURVE SMOOTH",
"308 0 LINE",
"378 0 LINE",
"378 525 LINE SMOOTH",
"378 612 OFFCURVE",
"329 665 OFFCURVE",
"217 665 CURVE SMOOTH",
"103 665 OFFCURVE",
"50 612 OFFCURVE",
"50 525 CURVE SMOOTH",
"50 475 LINE SMOOTH",
"50 427 OFFCURVE",
"75 391 OFFCURVE",
"144 307 CURVE SMOOTH",
"199 240 LINE",
"239 240 LINE"
);
},
{
closed = 1;
nodes = (
"169 300 LINE",
"169 0 LINE",
"239 0 LINE",
"239 300 LINE"
);
}
);
width = 478;
}
);
unicode = 00B6;
},
{
glyphname = section;
layers = (
{
hints = (
{
place = "{70, 70}";
type = Stem;
},
{
horizontal = 1;
place = "{-70, 60}";
type = Stem;
},
{
horizontal = 1;
place = "{675, 60}";
type = Stem;
}
);
layerId = UUID0;
paths = (
{
closed = 1;
nodes = (
"328 325 LINE",
"328 360 LINE",
"221 466 LINE SMOOTH",
"151 536 OFFCURVE",
"140 554 OFFCURVE",
"140 585 CURVE SMOOTH",
"140 599 LINE SMOOTH",
"140 645 OFFCURVE",
"170 675 OFFCURVE",
"234 675 CURVE SMOOTH",
"298 675 OFFCURVE",
"328 645 OFFCURVE",
"328 599 CURVE SMOOTH",
"328 540 LINE",
"398 540 LINE",
"398 595 LINE SMOOTH",
"398 682 OFFCURVE",
"349 735 OFFCURVE",
"237 735 CURVE SMOOTH",
"123 735 OFFCURVE",
"70 682 OFFCURVE",
"70 595 CURVE SMOOTH",
"70 585 LINE SMOOTH",
"70 537 OFFCURVE",
"93 498 OFFCURVE",
"128 463 CURVE SMOOTH",
"267 325 LINE"
);
},
{
closed = 1;
nodes = (
"355 -70 OFFCURVE",
"408 -17 OFFCURVE",
"408 70 CURVE SMOOTH",
"408 80 LINE SMOOTH",
"408 128 OFFCURVE",
"385 167 OFFCURVE",
"350 202 CURVE SMOOTH",
"211 340 LINE",
"150 340 LINE",
"150 305 LINE",
"257 199 LINE SMOOTH",
"327 129 OFFCURVE",
"338 111 OFFCURVE",
"338 80 CURVE SMOOTH",
"338 66 LINE SMOOTH",
"338 20 OFFCURVE",
"308 -10 OFFCURVE",
"244 -10 CURVE SMOOTH",
"180 -10 OFFCURVE",
"150 20 OFFCURVE",
"150 66 CURVE SMOOTH",
"150 125 LINE",
"80 125 LINE",
"80 70 LINE SMOOTH",
"80 -17 OFFCURVE",
"129 -70 OFFCURVE",
"241 -70 CURVE SMOOTH"
);
}
);
width = 478;
}
);
unicode = 00A7;
},
{
glyphname = copyright;
layers = (
{
hints = (
{
place = "{162, 48}";
type = Stem;
},
{
place = "{289, 48}";
type = Stem;
},
{
horizontal = 1;
place = "{290, 43}";
type = Stem;
},
{
horizontal = 1;
place = "{552, 43}";
type = Stem;
},
{
horizontal = 1;
place = "{665, -20}";
target = down;
type = TopGhost;
},
{
horizontal = 1;
place = "{218, 21}";
target = up;
type = BottomGhost;
}
);
layerId = UUID0;
paths = (
{
closed = 1;
nodes = (
"289 366 LINE SMOOTH",
"289 345 OFFCURVE",
"276 333 OFFCURVE",
"250 333 CURVE SMOOTH",
"223 333 OFFCURVE",
"210 345 OFFCURVE",
"210 366 CURVE SMOOTH",
"210 519 LINE SMOOTH",
"210 540 OFFCURVE",
"222 552 OFFCURVE",
"249 552 CURVE SMOOTH",
"276 552 OFFCURVE",
"289 540 OFFCURVE",
"289 519 CURVE SMOOTH",
"289 466 LINE",
"337 466 LINE",
"337 519 LINE SMOOTH",
"337 566 OFFCURVE",
"309 595 OFFCURVE",
"249 595 CURVE SMOOTH",
"189 595 OFFCURVE",
"162 566 OFFCURVE",
"162 519 CURVE SMOOTH",
"162 366 LINE SMOOTH",
"162 320 OFFCURVE",
"190 290 OFFCURVE",
"250 290 CURVE SMOOTH",
"309 290 OFFCURVE",
"337 320 OFFCURVE",
"337 366 CURVE SMOOTH",
"337 400 LINE",
"289 400 LINE"
);
},
{
closed = 1;
nodes = (
"420 525 LINE SMOOTH",
"420 612 OFFCURVE",
"364 665 OFFCURVE",
"249 665 CURVE SMOOTH",
"134 665 OFFCURVE",
"80 612 OFFCURVE",
"80 525 CURVE SMOOTH",
"80 358 LINE SMOOTH",
"80 271 OFFCURVE",
"136 218 OFFCURVE",
"251 218 CURVE SMOOTH",
"366 218 OFFCURVE",
"420 271 OFFCURVE",
"420 358 CURVE SMOOTH"
);
},
{
closed = 1;
nodes = (
"385 358 LINE",
"385 285 OFFCURVE",
"342 248 OFFCURVE",
"251 248 CURVE SMOOTH",
"159 248 OFFCURVE",
"115 286 OFFCURVE",
"115 358 CURVE SMOOTH",
"115 525 LINE SMOOTH",
"115 597 OFFCURVE",
"158 635 OFFCURVE",
"249 635 CURVE SMOOTH",
"341 635 OFFCURVE",
"385 597 OFFCURVE",
"385 525 CURVE SMOOTH"
);
}
);
width = 500;
}
);
unicode = 00A9;
},
{
glyphname = registered;
layers = (
{
hints = (
{
place = "{169, 48}";
type = Stem;
},
{
place = "{286, 48}";
type = Stem;
},
{
horizontal = 1;
place = "{542, 43}";
type = Stem;
},
{
horizontal = 1;
place = "{665, -20}";
target = down;
type = TopGhost;
},
{
horizontal = 1;
place = "{218, 21}";
target = up;
type = BottomGhost;
}
);
layerId = UUID0;
paths = (
{
closed = 1;
nodes = (
"420 525 LINE SMOOTH",
"420 612 OFFCURVE",
"364 665 OFFCURVE",
"249 665 CURVE SMOOTH",
"134 665 OFFCURVE",
"80 612 OFFCURVE",
"80 525 CURVE SMOOTH",
"80 358 LINE SMOOTH",
"80 271 OFFCURVE",
"136 218 OFFCURVE",
"251 218 CURVE SMOOTH",
"366 218 OFFCURVE",
"420 271 OFFCURVE",
"420 358 CURVE SMOOTH"
);
},
{
closed = 1;
nodes = (
"385 358 LINE",
"385 285 OFFCURVE",
"342 248 OFFCURVE",
"251 248 CURVE SMOOTH",
"159 248 OFFCURVE",
"115 286 OFFCURVE",
"115 358 CURVE SMOOTH",
"115 525 LINE SMOOTH",
"115 597 OFFCURVE",
"158 635 OFFCURVE",
"249 635 CURVE SMOOTH",
"341 635 OFFCURVE",
"385 597 OFFCURVE",
"385 525 CURVE SMOOTH"
);
},
{
closed = 1;
nodes = (
"217 300 LINE",
"217 403 LINE",
"248 403 LINE",
"298 300 LINE",
"350 300 LINE",
"294 411 LINE",
"321 422 OFFCURVE",
"334 445 OFFCURVE",
"334 478 CURVE SMOOTH",
"334 509 LINE SMOOTH",
"334 555 OFFCURVE",
"306 585 OFFCURVE",
"249 585 CURVE SMOOTH",
"169 585 LINE",
"169 300 LINE"
);
},
{
closed = 1;
nodes = (
"286 478 LINE SMOOTH",
"286 457 OFFCURVE",
"273 446 OFFCURVE",
"249 446 CURVE SMOOTH",
"217 446 LINE",
"217 542 LINE",
"249 542 LINE SMOOTH",
"273 542 OFFCURVE",
"286 529 OFFCURVE",
"286 509 CURVE SMOOTH"
);
}
);
width = 500;
}
);
unicode = 00AE;
},
{
glyphname = trademark;
layers = (
{
hints = (
{
place = "{94, 48}";
type = Stem;
},
{
place = "{242, 48}";
type = Stem;
},
{
place = "{421, 48}";
type = Stem;
},
{
horizontal = 1;
place = "{607, 43}";
type = Stem;
},
{
horizontal = 1;
place = "{365, 21}";
target = up;
type = BottomGhost;
}
);
layerId = UUID0;
paths = (
{
closed = 1;
nodes = (
"290 365 LINE",
"290 565 LINE",
"294 565 LINE",
"337 414 LINE",
"374 414 LINE",
"417 565 LINE",
"421 565 LINE",
"421 365 LINE",
"469 365 LINE",
"469 650 LINE",
"401 650 LINE",
"355 482 LINE",
"310 650 LINE",
"242 650 LINE",
"242 365 LINE"
);
},
{
closed = 1;
nodes = (
"205 650 LINE",
"30 650 LINE",
"30 607 LINE",
"94 607 LINE",
"94 365 LINE",
"142 365 LINE",
"142 607 LINE",
"205 607 LINE"
);
}
);
width = 544;
}
);
unicode = 2122;
},
{
glyphname = degree;
layers = (
{
hints = (
{
place = "{85, 48}";
type = Stem;
},
{
place = "{246, 48}";
type = Stem;
},
{
horizontal = 1;
place = "{391, 43}";
type = Stem;
},
{
horizontal = 1;
place = "{623, 42}";
type = Stem;
}
);
layerId = UUID0;
paths = (
{
closed = 1;
nodes = (
"294 590 LINE SMOOTH",
"294 637 OFFCURVE",
"260 665 OFFCURVE",
"190 665 CURVE SMOOTH",
"118 665 OFFCURVE",
"85 637 OFFCURVE",
"85 590 CURVE SMOOTH",
"85 466 LINE SMOOTH",
"85 420 OFFCURVE",
"119 391 OFFCURVE",
"191 391 CURVE SMOOTH",
"261 391 OFFCURVE",
"294 420 OFFCURVE",
"294 466 CURVE SMOOTH"
);
},
{
closed = 1;
nodes = (
"246 466 LINE SMOOTH",
"246 446 OFFCURVE",
"228 434 OFFCURVE",
"192 434 CURVE SMOOTH",
"152 434 OFFCURVE",
"133 446 OFFCURVE",
"133 466 CURVE SMOOTH",
"133 590 LINE SMOOTH",
"133 611 OFFCURVE",
"151 623 OFFCURVE",
"190 623 CURVE SMOOTH",
"228 623 OFFCURVE",
"246 611 OFFCURVE",
"246 590 CURVE SMOOTH"
);
}
);
width = 379;
}
);
unicode = 00B0;
},
{
glyphname = bar;
layers = (
{
hints = (
{
place = "{110, 60}";
type = Stem;
},
{
horizontal = 1;
place = "{-100, 21}";
target = up;
type = BottomGhost;
},
{
horizontal = 1;
place = "{750, -20}";
target = down;
type = TopGhost;
}
);
layerId = UUID0;
paths = (
{
closed = 1;
nodes = (
"100 -100 LINE",
"160 -100 LINE",
"160 750 LINE",
"100 750 LINE"
);
}
);
width = 260;
}
);
unicode = 007C;
},
{
glyphname = brokenbar;
layers = (
{
hints = (
{
place = "{110, 60}";
type = Stem;
},
{
horizontal = 1;
place = "{-100, 21}";
target = up;
type = BottomGhost;
},
{
horizontal = 1;
place = "{750, -20}";
target = down;
type = TopGhost;
}
);
layerId = UUID0;
paths = (
{
closed = 1;
nodes = (
"100 -100 LINE",
"160 -100 LINE",
"160 220 LINE",
"100 220 LINE"
);
},
{
closed = 1;
nodes = (
"100 430 LINE",
"160 430 LINE",
"160 750 LINE",
"100 750 LINE"
);
}
);
width = 260;
}
);
unicode = 00A6;
},
{
glyphname = dagger;
layers = (
{
hints = (
{
place = "{185, 70}";
type = Stem;
},
{
horizontal = 1;
place = "{490, 60}";
type = Stem;
},
{
horizontal = 1;
place = "{0, 21}";
target = up;
type = BottomGhost;
},
{
horizontal = 1;
place = "{700, -20}";
target = down;
type = TopGhost;
}
);
layerId = UUID0;
paths = (
{
closed = 1;
nodes = (
"60 490 LINE",
"185 490 LINE",
"185 0 LINE",
"255 0 LINE",
"255 490 LINE",
"380 490 LINE",
"380 550 LINE",
"255 550 LINE",
"255 700 LINE",
"185 700 LINE",
"185 550 LINE",
"60 550 LINE"
);
}
);
width = 440;
}
);
unicode = 2020;
},
{
glyphname = literSign;
layers = (
{
hints = (
{
place = "{85, 70}";
type = Stem;
},
{
horizontal = 1;
place = "{-15, 60}";
type = Stem;
},
{
horizontal = 1;
place = "{650, -20}";
target = down;
type = TopGhost;
}
);
layerId = UUID0;
paths = (
{
closed = 1;
nodes = (
"260 84 LINE",
"252 65 OFFCURVE",
"225 45 OFFCURVE",
"201 45 CURVE SMOOTH",
"164 45 OFFCURVE",
"155 75 OFFCURVE",
"155 111 CURVE SMOOTH",
"155 650 LINE",
"85 650 LINE",
"85 115 LINE SMOOTH",
"85 28 OFFCURVE",
"128 -15 OFFCURVE",
"201 -15 CURVE SMOOTH",
"251 -15 OFFCURVE",
"287 8 OFFCURVE",
"312 51 CURVE"
);
}
);
width = 312;
}
);
unicode = 2113;
},
{
glyphname = daggerdbl;
layers = (
{
hints = (
{
place = "{185, 70}";
type = Stem;
},
{
horizontal = 1;
place = "{150, 60}";
type = Stem;
},
{
horizontal = 1;
place = "{490, 60}";
type = Stem;
},
{
horizontal = 1;
place = "{0, 21}";
target = up;
type = BottomGhost;
},
{
horizontal = 1;
place = "{700, -20}";
target = down;
type = TopGhost;
}
);
layerId = UUID0;
paths = (
{
closed = 1;
nodes = (
"60 490 LINE",
"185 490 LINE",
"185 210 LINE",
"60 210 LINE",
"60 150 LINE",
"185 150 LINE",
"185 0 LINE",
"255 0 LINE",
"255 150 LINE",
"380 150 LINE",
"380 210 LINE",
"255 210 LINE",
"255 490 LINE",
"380 490 LINE",
"380 550 LINE",
"255 550 LINE",
"255 700 LINE",
"185 700 LINE",
"185 550 LINE",
"60 550 LINE"
);
}
);
width = 440;
}
);
unicode = 2021;
},
{
glyphname = estimated;
layers = (
{
hints = (
{
horizontal = 1;
origin = "{0, 0}";
target = "{1, 8}";
type = Stem;
},
{
origin = "{0, 14}";
target = "{0, 0}";
type = Stem;
},
{
horizontal = 1;
origin = "{1, 4}";
target = "{0, 17}";
type = Stem;
},
{
horizontal = 1;
origin = "{0, 11}";
target = "{0, 4}";
type = Stem;
},
{
origin = "{1, 0}";
target = "{0, 20}";
type = Stem;
}
);
layerId = UUID0;
paths = (
{
closed = 1;
nodes = (
"415 -17 OFFCURVE",
"467 26 OFFCURVE",
"536 118 CURVE",
"501 139 LINE",
"455 59 OFFCURVE",
"391 19 OFFCURVE",
"308 19 CURVE SMOOTH",
"253 19 OFFCURVE",
"204 39 OFFCURVE",
"163 78 CURVE",
"163 259 LINE",
"567 259 LINE",
"560 413 OFFCURVE",
"479 535 OFFCURVE",
"308 535 CURVE SMOOTH",
"148 535 OFFCURVE",
"50 422 OFFCURVE",
"50 259 CURVE SMOOTH",
"50 107 OFFCURVE",
"144 -17 OFFCURVE",
"308 -17 CURVE SMOOTH"
);
},
{
closed = 1;
nodes = (
"163 440 LINE",
"202 480 OFFCURVE",
"250 500 OFFCURVE",
"307 500 CURVE SMOOTH",
"363 500 OFFCURVE",
"412 480 OFFCURVE",
"454 440 CURVE",
"454 295 LINE",
"163 295 LINE"
);
}
);
width = 617;
}
);
unicode = 212E;
},
{
glyphname = asciicircum;
layers = (
{
hints = (
{
horizontal = 1;
place = "{650, -20}";
target = down;
type = TopGhost;
},
{
horizontal = 1;
place = "{395, 21}";
target = up;
type = BottomGhost;
}
);
layerId = UUID0;
paths = (
{
closed = 1;
nodes = (
"233 650 LINE",
"100 422 LINE",
"153 395 LINE",
"255 573 LINE",
"357 395 LINE",
"410 422 LINE",
"277 650 LINE"
);
}
);
width = 510;
}
);
unicode = 005E;
},
{
glyphname = minute;
layers = (
{
guideLines = (
{
angle = 83.991;
position = "{122, 722}";
},
{
angle = 83.991;
position = "{46, 730}";
}
);
layerId = UUID0;
paths = (
{
closed = 1;
nodes = (
"38 728 LINE",
"30 496 LINE",
"66 493 LINE",
"116 653 LINE",
"118 725 LINE"
);
}
);
width = 148;
}
);
unicode = 2032;
},
{
glyphname = dieresiscomb;
layers = (
{
anchors = (
{
name = _top;
position = "{125, 650}";
},
{
name = top;
position = "{125, 825}";
}
);
hints = (
{
horizontal = 1;
origin = "{0, 3}";
target = "{0, 2}";
type = Stem;
},
{
origin = "{0, 3}";
target = "{0, 0}";
type = Stem;
},
{
origin = "{1, 3}";
target = "{1, 0}";
type = Stem;
}
);
layerId = UUID0;
paths = (
{
closed = 1;
nodes = (
"90 715 LINE",
"90 825 LINE",
"20 825 LINE",
"20 715 LINE"
);
},
{
closed = 1;
nodes = (
"230 715 LINE",
"230 825 LINE",
"160 825 LINE",
"160 715 LINE"
);
}
);
width = 250;
}
);
unicode = 0308;
},
{
glyphname = dotaccentcomb;
layers = (
{
anchors = (
{
name = _top;
position = "{60, 650}";
},
{
name = top;
position = "{60, 825}";
}
);
hints = (
{
horizontal = 1;
origin = "{0, 3}";
target = "{0, 2}";
type = Stem;
},
{
origin = "{0, 3}";
target = "{0, 0}";
type = Stem;
}
);
layerId = UUID0;
paths = (
{
closed = 1;
nodes = (
"100 715 LINE",
"100 825 LINE",
"20 825 LINE",
"20 715 LINE"
);
}
);
width = 120;
}
);
unicode = 0307;
},
{
glyphname = gravecomb;
layers = (
{
anchors = (
{
name = _top;
position = "{109, 650}";
},
{
name = top;
position = "{109, 847}";
}
);
hints = (
{
horizontal = 1;
origin = "{0, 3}";
target = down;
type = TopGhost;
},
{
horizontal = 1;
origin = "{0, 1}";
target = up;
type = BottomGhost;
}
);
layerId = UUID0;
paths = (
{
closed = 1;
nodes = (
"58 755 LINE",
"171 698 LINE",
"197 724 LINE",
"74 847 LINE",
"20 793 LINE"
);
}
);
width = 217;
}
);
unicode = 0300;
},
{
glyphname = acutecomb;
layers = (
{
anchors = (
{
name = _top;
position = "{109, 650}";
},
{
name = top;
position = "{109, 847}";
}
);
hints = (
{
horizontal = 1;
place = "{847, -20}";
target = down;
type = TopGhost;
},
{
horizontal = 1;
place = "{698, 21}";
target = up;
type = BottomGhost;
}
);
layerId = UUID0;
paths = (
{
closed = 1;
nodes = (
"197 793 LINE",
"143 847 LINE",
"20 724 LINE",
"46 698 LINE",
"159 755 LINE"
);
}
);
width = 217;
}
);
unicode = 0301;
},
{
glyphname = hungarumlautcomb;
layers = (
{
anchors = (
{
name = _top;
position = "{174, 650}";
},
{
name = top;
position = "{184, 847}";
}
);
guideLines = (
{
angle = 141.7401;
position = "{26, 724}";
}
);
hints = (
{
horizontal = 1;
origin = "{0, 1}";
target = down;
type = TopGhost;
},
{
horizontal = 1;
origin = "{0, 3}";
target = up;
type = BottomGhost;
}
);
layerId = UUID0;
paths = (
{
closed = 1;
nodes = (
"181 800 LINE",
"123 847 LINE",
"20 717 LINE",
"44 698 LINE",
"151 762 LINE"
);
},
{
closed = 1;
nodes = (
"341 800 LINE",
"283 847 LINE",
"180 717 LINE",
"204 698 LINE",
"311 762 LINE"
);
}
);
width = 361;
}
);
unicode = 030B;
},
{
glyphname = caroncomb.alt;
layers = (
{
anchors = (
{
name = _topright;
position = "{64, 650}";
}
);
hints = (
{
place = "{41.5, 81}";
type = Stem;
}
);
layerId = UUID0;
paths = (
{
closed = 1;
nodes = (
"49 856 LINE",
"34 683 LINE",
"70 680 LINE",
"120 796 LINE",
"125 850 LINE"
);
}
);
width = 128;
}
);
},
{
glyphname = circumflexcomb;
layers = (
{
anchors = (
{
name = _top;
position = "{134, 650}";
},
{
name = top;
position = "{134, 807}";
}
);
hints = (
{
horizontal = 1;
place = "{698, 21}";
target = up;
type = BottomGhost;
},
{
horizontal = 1;
place = "{837, -20}";
target = down;
type = TopGhost;
}
);
layerId = UUID0;
paths = (
{
closed = 1;
nodes = (
"134 760 LINE",
"222 698 LINE",
"248 724 LINE",
"150 837 LINE",
"118 837 LINE",
"20 724 LINE",
"46 698 LINE"
);
}
);
width = 268;
}
);
unicode = 0302;
},
{
glyphname = caroncomb;
layers = (
{
anchors = (
{
name = _top;
position = "{134, 650}";
},
{
name = top;
position = "{134, 840}";
}
);
hints = (
{
horizontal = 1;
place = "{840, -20}";
target = down;
type = TopGhost;
},
{
horizontal = 1;
place = "{701, 21}";
target = up;
type = BottomGhost;
}
);
layerId = UUID0;
paths = (
{
closed = 1;
nodes = (
"134 775 LINE",
"46 837 LINE",
"20 811 LINE",
"118 698 LINE",
"150 698 LINE",
"248 811 LINE",
"222 837 LINE"
);
}
);
width = 268;
}
);
unicode = 030C;
},
{
glyphname = brevecomb;
layers = (
{
anchors = (
{
name = _top;
position = "{118, 650}";
},
{
name = top;
position = "{118, 796}";
}
);
hints = (
{
horizontal = 1;
origin = "{0, 5}";
target = "{0, 14}";
type = Stem;
},
{
origin = "{0, 2}";
target = "{0, 17}";
type = Stem;
},
{
origin = "{0, 11}";
target = "{0, 8}";
type = Stem;
}
);
layerId = UUID0;
paths = (
{
closed = 1;
nodes = (
"75 816 LINE",
"20 816 LINE",
"20 790 LINE SMOOTH",
"20 743 OFFCURVE",
"49 715 OFFCURVE",
"118 715 CURVE SMOOTH",
"185 715 OFFCURVE",
"216 743 OFFCURVE",
"216 790 CURVE SMOOTH",
"216 816 LINE",
"161 816 LINE",
"161 796 LINE SMOOTH",
"161 775 OFFCURVE",
"149 765 OFFCURVE",
"118 765 CURVE SMOOTH",
"86 765 OFFCURVE",
"75 775 OFFCURVE",
"75 796 CURVE SMOOTH"
);
}
);
width = 236;
}
);
unicode = 0306;
},
{
glyphname = ringcomb;
layers = (
{
anchors = (
{
name = _top;
position = "{105, 650}";
},
{
name = top;
position = "{105, 815}";
}
);
hints = (
{
horizontal = 1;
origin = "{0, 10}";
target = "{1, 10}";
type = Stem;
},
{
horizontal = 1;
origin = "{1, 3}";
target = "{0, 3}";
type = Stem;
},
{
origin = "{0, 7}";
target = "{1, 13}";
type = Stem;
},
{
origin = "{1, 7}";
target = "{0, 13}";
type = Stem;
}
);
layerId = UUID0;
paths = (
{
closed = 1;
nodes = (
"190 780 LINE SMOOTH",
"190 827 OFFCURVE",
"165 855 OFFCURVE",
"105 855 CURVE SMOOTH",
"43 855 OFFCURVE",
"20 827 OFFCURVE",
"20 780 CURVE SMOOTH",
"20 760 LINE SMOOTH",
"20 713 OFFCURVE",
"43 685 OFFCURVE",
"105 685 CURVE SMOOTH",
"165 685 OFFCURVE",
"190 713 OFFCURVE",
"190 760 CURVE SMOOTH"
);
},
{
closed = 1;
nodes = (
"70 780 LINE SMOOTH",
"70 801 OFFCURVE",
"80 811 OFFCURVE",
"105 811 CURVE SMOOTH",
"129 811 OFFCURVE",
"140 801 OFFCURVE",
"140 780 CURVE SMOOTH",
"140 760 LINE SMOOTH",
"140 739 OFFCURVE",
"129 729 OFFCURVE",
"105 729 CURVE SMOOTH",
"80 729 OFFCURVE",
"70 739 OFFCURVE",
"70 760 CURVE SMOOTH"
);
}
);
width = 210;
}
);
unicode = 030A;
},
{
glyphname = tildecomb;
layers = (
{
anchors = (
{
name = _top;
position = "{138, 650}";
},
{
name = top;
position = "{138, 819}";
}
);
hints = (
{
horizontal = 1;
origin = "{0, 16}";
target = "{0, 3}";
type = Stem;
},
{
horizontal = 1;
origin = "{0, 13}";
target = "{0, 6}";
type = Stem;
}
);
layerId = UUID0;
paths = (
{
closed = 1;
nodes = (
"256 745 LINE",
"252 791 OFFCURVE",
"225 819 OFFCURVE",
"190 819 CURVE SMOOTH",
"145 819 OFFCURVE",
"128 781 OFFCURVE",
"95 781 CURVE SMOOTH",
"81 781 OFFCURVE",
"68 790 OFFCURVE",
"61 809 CURVE",
"20 795 LINE",
"24 749 OFFCURVE",
"51 721 OFFCURVE",
"86 721 CURVE SMOOTH",
"131 721 OFFCURVE",
"148 759 OFFCURVE",
"181 759 CURVE SMOOTH",
"195 759 OFFCURVE",
"208 750 OFFCURVE",
"215 731 CURVE"
);
}
);
width = 276;
}
);
unicode = 0303;
},
{
glyphname = macroncomb;
layers = (
{
anchors = (
{
name = _top;
position = "{128, 650}";
},
{
name = top;
position = "{128, 800}";
}
);
hints = (
{
horizontal = 1;
place = "{740, 60}";
type = Stem;
}
);
layerId = UUID0;
paths = (
{
closed = 1;
nodes = (
"20 740 LINE",
"236 740 LINE",
"236 800 LINE",
"20 800 LINE"
);
}
);
width = 256;
}
);
unicode = 0304;
},
{
glyphname = hookabovecomb;
layers = (
{
anchors = (
{
name = _top;
position = "{110, 650}";
},
{
name = top;
position = "{110, 884}";
}
);
hints = (
{
horizontal = 1;
origin = "{0, 17}";
target = "{0, 8}";
type = Stem;
},
{
origin = "{0, 12}";
target = "{0, 13}";
type = Stem;
},
{
origin = "{0, 21}";
target = "{0, 4}";
type = Stem;
}
);
layerId = UUID0;
paths = (
{
closed = 1;
nodes = (
"138 698 LINE",
"158 715 LINE SMOOTH",
"189 741 OFFCURVE",
"199 772 OFFCURVE",
"199 798 CURVE SMOOTH",
"199 808 LINE SMOOTH",
"199 854 OFFCURVE",
"172 884 OFFCURVE",
"110 884 CURVE SMOOTH",
"47 884 OFFCURVE",
"20 854 OFFCURVE",
"20 808 CURVE SMOOTH",
"20 780 LINE",
"68 780 LINE",
"68 810 LINE SMOOTH",
"68 829 OFFCURVE",
"81 841 OFFCURVE",
"110 841 CURVE SMOOTH",
"137 841 OFFCURVE",
"151 829 OFFCURVE",
"151 810 CURVE SMOOTH",
"151 798 LINE SMOOTH",
"151 778 OFFCURVE",
"137 755 OFFCURVE",
"109 731 CURVE"
);
}
);
width = 219;
}
);
unicode = 0309;
},
{
glyphname = commaturnedabovecomb;
layers = (
{
anchors = (
{
name = _top;
position = "{60, 650}";
},
{
name = top;
position = "{60, 906}";
}
);
hints = (
{
origin = "{0, 1}";
target = "{0, 2}";
type = Stem;
}
);
layerId = UUID0;
paths = (
{
closed = 1;
nodes = (
"20 790 LINE",
"20 705 LINE",
"100 705 LINE",
"100 796 LINE",
"76 805 LINE",
"96 900 LINE",
"64 906 LINE"
);
}
);
width = 120;
}
);
unicode = 0312;
},
{
glyphname = horncomb;
layers = (
{
anchors = (
{
name = _topright;
position = "{25, 700}";
},
{
name = topright;
position = "{65, 650}";
}
);
hints = (
{
horizontal = 1;
origin = "{0, 1}";
target = "{0, 0}";
type = Stem;
},
{
origin = "{0, 8}";
target = "{0, 5}";
type = Stem;
}
);
layerId = UUID0;
paths = (
{
closed = 1;
nodes = (
"20 700 LINE",
"20 650 LINE",
"65 650 LINE",
"132 650 OFFCURVE",
"163 678 OFFCURVE",
"163 725 CURVE SMOOTH",
"163 781 LINE",
"108 781 LINE",
"108 731 LINE SMOOTH",
"108 710 OFFCURVE",
"96 700 OFFCURVE",
"65 700 CURVE"
);
}
);
width = 183;
}
);
unicode = 031B;
},
{
glyphname = commaaccentcomb;
layers = (
{
anchors = (
{
name = _bottom;
position = "{60, 0}";
},
{
name = bottom;
position = "{60, -256}";
}
);
hints = (
{
origin = "{0, 3}";
target = "{0, 0}";
type = Stem;
}
);
layerId = UUID0;
paths = (
{
closed = 1;
nodes = (
"100 -140 LINE",
"100 -55 LINE",
"20 -55 LINE",
"20 -146 LINE",
"44 -155 LINE",
"24 -250 LINE",
"56 -256 LINE"
);
}
);
width = 120;
}
);
unicode = 0326;
},
{
glyphname = cedillacomb;
layers = (
{
anchors = (
{
name = _bottom;
position = "{97, 0}";
},
{
name = bottom;
position = "{110, -240}";
}
);
hints = (
{
horizontal = 1;
origin = "{0, 18}";
target = "{0, 9}";
type = Stem;
},
{
horizontal = 1;
origin = "{0, 26}";
target = "{0, 1}";
type = Stem;
},
{
origin = "{0, 15}";
target = "{0, 12}";
type = Stem;
},
{
origin = "{0, 6}";
target = "{0, 21}";
type = Stem;
}
);
layerId = UUID0;
paths = (
{
closed = 1;
nodes = (
"76 2 LINE",
"55 -105 LINE",
"115 -105 LINE SMOOTH",
"138 -105 OFFCURVE",
"151 -124 OFFCURVE",
"151 -141 CURVE SMOOTH",
"151 -166 LINE SMOOTH",
"151 -185 OFFCURVE",
"137 -197 OFFCURVE",
"110 -197 CURVE SMOOTH",
"81 -197 OFFCURVE",
"68 -185 OFFCURVE",
"68 -166 CURVE SMOOTH",
"68 -156 LINE",
"20 -156 LINE",
"20 -164 LINE SMOOTH",
"20 -210 OFFCURVE",
"47 -240 OFFCURVE",
"110 -240 CURVE SMOOTH",
"172 -240 OFFCURVE",
"199 -210 OFFCURVE",
"199 -164 CURVE SMOOTH",
"199 -141 LINE SMOOTH",
"199 -95 OFFCURVE",
"171 -62 OFFCURVE",
"115 -62 CURVE SMOOTH",
"110 -62 LINE",
"123 2 LINE"
);
}
);
width = 219;
}
);
unicode = 0327;
},
{
glyphname = ogonekcomb;
layers = (
{
anchors = (
{
name = _ogonek;
position = "{180, 0}";
}
);
hints = (
{
horizontal = 1;
origin = "{0, 8}";
target = "{0, 17}";
type = Stem;
},
{
horizontal = 1;
origin = "{0, 25}";
target = down;
type = TopGhost;
},
{
origin = "{0, 5}";
target = "{0, 20}";
type = Stem;
},
{
origin = "{0, 14}";
target = "{0, 11}";
type = Stem;
}
);
layerId = UUID0;
paths = (
{
closed = 1;
nodes = (
"151 36 LINE",
"61 -41 LINE SMOOTH",
"28 -70 OFFCURVE",
"20 -98 OFFCURVE",
"20 -124 CURVE SMOOTH",
"20 -164 LINE SMOOTH",
"20 -210 OFFCURVE",
"47 -240 OFFCURVE",
"109 -240 CURVE SMOOTH",
"172 -240 OFFCURVE",
"199 -210 OFFCURVE",
"199 -164 CURVE SMOOTH",
"199 -136 LINE",
"151 -136 LINE",
"151 -166 LINE SMOOTH",
"151 -185 OFFCURVE",
"138 -197 OFFCURVE",
"109 -197 CURVE SMOOTH",
"82 -197 OFFCURVE",
"68 -185 OFFCURVE",
"68 -166 CURVE SMOOTH",
"68 -124 LINE SMOOTH",
"68 -102 OFFCURVE",
"84 -78 OFFCURVE",
"117 -51 CURVE SMOOTH",
"180 0 LINE"
);
}
);
width = 219;
}
);
unicode = 0328;
},
{
glyphname = strokeshortcomb;
layers = (
{
anchors = (
{
name = _center;
position = "{245, 330}";
}
);
hints = (
{
horizontal = 1;
place = "{305, 50}";
type = Stem;
}
);
layerId = UUID0;
paths = (
{
closed = 1;
nodes = (
"115 305 LINE",
"375 305 LINE",
"375 355 LINE",
"115 355 LINE"
);
}
);
width = 490;
}
);
unicode = 0335;
},
{
glyphname = strokelongcomb;
layers = (
{
anchors = (
{
name = _center;
position = "{250, 330}";
}
);
hints = (
{
horizontal = 1;
place = "{305, 50}";
type = Stem;
}
);
layerId = UUID0;
paths = (
{
closed = 1;
nodes = (
"20 305 LINE",
"480 305 LINE",
"480 355 LINE",
"20 355 LINE"
);
}
);
width = 500;
}
);
unicode = 0336;
},
{
glyphname = slashshortcomb;
layers = (
{
anchors = (
{
name = _center;
position = "{195, 330}";
}
);
hints = (
{
horizontal = 1;
place = "{244, 21}";
target = up;
type = BottomGhost;
},
{
horizontal = 1;
place = "{416, -20}";
target = down;
type = TopGhost;
}
);
layerId = UUID0;
paths = (
{
closed = 1;
nodes = (
"82 244 LINE",
"331 371 LINE",
"308 416 LINE",
"59 289 LINE"
);
}
);
width = 386;
}
);
unicode = 0337;
},
{
glyphname = slashlongcomb;
layers = (
{
anchors = (
{
name = _center;
position = "{155, 325}";
}
);
hints = (
{
horizontal = 1;
place = "{-60, 21}";
target = up;
type = BottomGhost;
},
{
horizontal = 1;
place = "{710, -20}";
target = down;
type = TopGhost;
}
);
layerId = UUID0;
paths = (
{
closed = 1;
nodes = (
"90 -60 LINE",
"265 710 LINE",
"220 710 LINE",
"45 -60 LINE"
);
}
);
width = 310;
}
);
unicode = 0338;
},
